<?xml version="1.0" standalone="no"?>
<!DOCTYPE svg PUBLIC "-//W3C//DTD SVG 20010904//EN"
 "http://www.w3.org/TR/2001/REC-SVG-20010904/DTD/svg10.dtd">
<svg version="1.0" xmlns="http://www.w3.org/2000/svg"
 width="2452.000000pt" height="2170.000000pt" viewBox="0 0 2452.000000 2170.000000"
 preserveAspectRatio="xMidYMid meet">

<g transform="translate(0.000000,2170.000000) scale(0.100000,-0.100000)"
fill="#000000" stroke="none">
<path d="M14020 18840 l0 -210 30 0 30 0 0 210 0 210 -30 0 -30 0 0 -210z"/>
<path d="M10700 18830 l0 -200 110 0 110 0 0 30 0 30 -80 0 -80 0 0 60 0 60
75 0 75 0 0 30 0 30 -75 0 -75 0 0 50 0 50 80 0 80 0 0 30 0 30 -110 0 -110 0
0 -200z"/>
<path d="M12630 18830 l0 -200 30 0 30 0 0 74 0 73 54 6 c30 3 68 13 86 22 61
32 77 130 29 181 -29 31 -77 44 -161 44 l-68 0 0 -200z m168 124 c15 -10 22
-25 22 -49 0 -43 -29 -65 -87 -65 l-43 0 0 65 0 65 43 0 c23 0 53 -7 65 -16z"/>
<path d="M3859 18927 c-92 -62 -67 -174 46 -207 121 -36 234 85 164 174 -47
60 -147 76 -210 33z"/>
<path d="M21044 18936 c-48 -21 -74 -61 -74 -114 0 -38 5 -49 35 -77 59 -57
153 -58 219 -3 33 27 36 34 36 82 0 44 -4 56 -27 78 -50 48 -126 61 -189 34z"/>
<path d="M11355 18924 c-19 -10 -31 -11 -33 -5 -2 6 -15 11 -28 11 l-24 0 0
-215 0 -215 30 0 30 0 0 75 c0 68 9 91 25 65 10 -16 98 -12 123 6 57 39 74
170 32 238 -32 53 -98 70 -155 40z m99 -66 c10 -13 16 -44 16 -74 0 -92 -61
-134 -115 -79 -20 19 -25 34 -25 77 0 72 19 98 70 98 29 0 43 -6 54 -22z"/>
<path d="M11704 18930 c-12 -5 -25 -13 -29 -19 -9 -16 -25 -13 -25 4 0 9 -9
15 -25 15 l-25 0 0 -150 0 -150 30 0 30 0 0 100 c0 94 2 103 25 125 14 15 36
25 53 25 29 0 42 14 42 46 0 16 -42 18 -76 4z"/>
<path d="M11871 18922 c-47 -25 -71 -74 -71 -142 0 -98 52 -150 150 -150 64 0
90 13 90 46 0 22 -3 24 -27 17 -45 -13 -112 -9 -127 7 -8 8 -18 27 -21 43 l-7
27 102 0 102 0 -7 43 c-11 62 -32 97 -70 113 -46 19 -73 18 -114 -4z m103 -58
c33 -32 20 -44 -49 -44 -67 0 -73 7 -42 48 13 17 73 15 91 -4z"/>
<path d="M12163 18932 c-40 -12 -63 -40 -63 -74 0 -47 11 -59 82 -93 46 -22
64 -36 66 -52 5 -35 -40 -41 -125 -17 -20 6 -23 3 -23 -24 0 -35 16 -42 97
-42 70 0 113 34 113 89 0 45 -15 60 -91 94 -62 27 -72 36 -59 56 6 10 24 13
69 8 53 -4 63 -3 71 13 14 27 14 27 -34 39 -49 12 -69 12 -103 3z"/>
<path d="M12400 18922 c-42 -21 -59 -60 -42 -97 8 -17 34 -36 78 -57 72 -34
87 -53 58 -75 -18 -14 -65 -13 -121 3 -20 5 -23 2 -23 -19 0 -34 25 -47 92
-47 93 0 145 54 118 121 -7 15 -27 35 -46 43 -19 9 -50 23 -69 32 -23 11 -35
22 -33 33 3 13 16 16 68 15 63 -1 79 6 80 33 0 13 -60 33 -100 33 -14 0 -41
-8 -60 -18z"/>
<path d="M12998 18928 c-37 -10 -44 -21 -32 -52 4 -11 11 -13 31 -5 58 22 113
6 113 -33 0 -14 -8 -18 -32 -18 -48 0 -107 -19 -129 -41 -28 -28 -26 -93 6
-124 28 -29 99 -34 131 -10 25 19 34 19 34 0 0 -9 9 -15 25 -15 l25 0 0 121
c0 67 -5 129 -11 141 -12 23 -67 48 -101 47 -13 -1 -40 -6 -60 -11z m112 -180
c0 -51 -80 -90 -110 -53 -28 34 13 75 78 75 26 0 32 -4 32 -22z"/>
<path d="M13337 18921 c-29 -15 -37 -16 -37 -5 0 8 -10 14 -25 14 l-25 0 0
-150 0 -150 30 0 30 0 0 100 c0 94 2 103 25 125 14 15 36 25 53 25 24 0 31 5
34 25 3 13 3 27 0 30 -11 11 -49 4 -85 -14z"/>
<path d="M13523 18926 c-54 -25 -75 -69 -71 -154 3 -65 6 -75 34 -103 23 -23
44 -33 77 -36 72 -8 97 2 97 38 0 26 -3 30 -17 24 -51 -20 -81 -17 -107 8 -22
22 -26 35 -26 82 0 77 23 100 92 92 44 -6 50 -4 57 16 5 12 6 25 2 30 -15 16
-106 18 -138 3z"/>
<path d="M13790 18932 c-57 -25 -90 -81 -90 -153 0 -90 58 -149 146 -149 67 0
92 9 100 32 9 31 -6 38 -58 26 -59 -14 -102 2 -117 42 -5 16 -7 31 -4 34 4 3
49 6 101 6 l95 0 -7 47 c-3 26 -13 57 -22 71 -26 40 -102 63 -144 44z m88 -64
c7 -7 12 -20 12 -30 0 -15 -9 -18 -60 -18 -64 0 -76 12 -44 44 18 19 75 21 92
4z"/>
<path d="M10960 18924 c0 -3 20 -34 45 -68 25 -35 45 -66 45 -70 0 -3 -22 -37
-50 -76 -27 -39 -50 -72 -50 -75 0 -3 15 -5 33 -5 27 0 37 7 66 50 19 28 38
50 42 50 5 0 24 -22 41 -50 28 -43 38 -50 66 -50 17 0 32 2 32 5 0 3 -23 38
-51 79 l-51 73 51 72 51 71 -35 0 c-31 0 -40 -6 -67 -45 -18 -25 -35 -45 -39
-45 -4 0 -20 20 -36 45 -24 38 -33 45 -60 45 -18 0 -33 -3 -33 -6z"/>
<path d="M3728 18680 c-41 -12 -87 -48 -103 -80 -20 -38 -22 -449 -3 -468 7
-7 28 -12 48 -12 20 0 41 5 48 12 8 8 12 65 12 190 0 152 2 178 15 178 13 0
15 -56 16 -442 0 -244 3 -456 5 -473 6 -38 37 -65 76 -65 31 0 68 16 80 34 4
6 8 136 8 289 0 239 2 277 15 277 13 0 15 -37 15 -275 l0 -276 25 -24 c35 -36
111 -31 137 9 4 6 8 221 8 479 0 408 2 467 15 467 13 0 15 -26 15 -178 0 -125
4 -182 12 -190 18 -18 83 -15 99 5 11 12 14 63 14 228 0 238 -1 242 -77 293
l-41 27 -206 2 c-113 1 -218 -2 -233 -7z"/>
<path d="M20905 18671 c-51 -13 -92 -39 -117 -73 -22 -32 -23 -41 -26 -257 -3
-199 -1 -225 14 -242 19 -21 64 -25 95 -9 18 10 19 23 19 200 0 159 2 190 14
190 13 0 15 -72 18 -489 3 -464 4 -490 22 -510 26 -29 107 -30 136 -1 19 19
20 33 20 310 0 251 2 290 15 290 13 0 15 -39 15 -290 0 -277 1 -291 20 -310
25 -25 105 -27 135 -4 19 14 20 28 23 509 2 425 5 495 17 495 13 0 15 -30 15
-188 0 -133 4 -192 12 -200 19 -19 82 -15 101 6 15 16 17 47 17 233 0 203 -1
216 -23 253 -15 27 -38 48 -72 65 -48 25 -57 26 -245 28 -107 1 -208 -2 -225
-6z"/>
<path d="M8100 18409 c-280 -21 -549 -90 -740 -190 -140 -73 -257 -188 -276
-272 -7 -34 -12 -32 -94 23 -80 55 -90 53 -90 -14 l0 -53 -414 -8 c-228 -4
-436 -4 -463 0 -95 13 -134 54 -154 162 -22 116 -74 175 -170 193 -33 6 -260
9 -579 8 -459 -3 -525 -5 -525 -18 0 -13 71 -16 555 -20 504 -5 558 -7 587
-22 49 -27 80 -76 94 -148 21 -113 61 -166 139 -186 19 -5 235 -9 480 -9 l445
0 3 -52 c4 -66 13 -67 92 -13 77 52 90 57 90 34 0 -39 50 -123 104 -176 157
-153 482 -268 872 -308 155 -16 540 -8 684 14 519 81 850 284 850 522 0 341
-701 592 -1490 533z m-555 -499 c0 -11 -9 -14 -38 -12 -49 5 -77 -19 -77 -64
0 -43 23 -64 71 -64 28 0 39 -4 39 -15 0 -11 -12 -15 -50 -15 -69 0 -100 30
-100 95 0 36 6 52 25 71 22 21 33 25 78 22 38 -2 52 -7 52 -18z m871 -69 c40
-99 40 -101 14 -101 -13 0 -22 9 -26 25 -5 21 -12 25 -40 25 -27 0 -37 -5 -46
-25 -6 -14 -19 -25 -30 -25 -10 0 -18 2 -18 5 0 3 16 46 36 95 48 119 62 119
110 1z m-406 54 c0 -8 9 -15 20 -15 11 0 20 -4 20 -10 0 -5 -9 -10 -21 -10
-18 0 -20 -5 -17 -47 2 -39 6 -48 21 -47 9 1 17 -4 17 -12 0 -17 -51 -19 -68
-2 -7 7 -12 33 -12 59 0 28 -5 49 -12 51 -8 3 -5 11 8 25 23 25 44 29 44 8z
m1240 0 c0 -8 9 -15 20 -15 11 0 20 -4 20 -10 0 -5 -9 -10 -21 -10 -18 0 -20
-5 -17 -47 2 -39 6 -47 21 -45 10 2 17 -3 17 -13 0 -13 -8 -16 -37 -13 l-38 3
-3 55 c-2 30 -8 57 -14 61 -15 9 13 49 34 49 10 0 18 -7 18 -15z m-1590 -31
c0 -8 -8 -14 -18 -14 -29 0 -42 -21 -42 -67 0 -36 -3 -43 -20 -43 -18 0 -20 7
-20 69 l0 69 50 0 c37 1 50 -3 50 -14z m122 -1 c10 -9 18 -26 18 -39 0 -21 -5
-23 -52 -26 -49 -3 -51 -4 -34 -20 12 -12 26 -16 46 -11 23 4 30 2 30 -11 0
-13 -10 -16 -50 -16 -42 0 -52 4 -66 25 -17 27 -14 76 7 102 16 18 79 16 101
-4z m146 5 c7 -7 12 -38 12 -70 l0 -58 -60 0 c-55 0 -60 2 -66 25 -9 34 11 55
53 55 28 0 34 4 31 18 -3 13 -12 16 -36 14 -24 -2 -32 1 -32 12 0 20 79 23 98
4z m258 -5 c7 -10 14 -28 14 -40 0 -21 -5 -23 -50 -23 -27 0 -50 -4 -50 -10 0
-16 34 -28 63 -23 20 4 27 1 27 -11 0 -13 -11 -16 -49 -16 -55 0 -81 22 -81
70 0 45 26 70 72 70 27 0 45 -6 54 -17z m384 2 c0 -10 -10 -15 -34 -15 -38 0
-53 -22 -41 -60 7 -21 14 -24 53 -20 14 1 22 -4 22 -14 0 -12 -11 -16 -44 -16
-50 0 -76 24 -76 70 0 46 26 70 76 70 32 0 44 -4 44 -15z m130 0 c0 -10 -11
-15 -35 -15 -29 0 -36 -4 -41 -25 -10 -40 1 -55 41 -55 24 0 35 -4 35 -15 0
-11 -12 -15 -44 -15 -50 0 -76 24 -76 70 0 46 26 70 76 70 32 0 44 -4 44 -15z
m134 -1 c32 -32 28 -92 -8 -116 -20 -14 -79 -8 -98 9 -23 20 -24 85 -2 107 20
21 88 21 108 0z m86 -38 c0 -36 4 -56 13 -59 25 -10 40 11 45 62 3 34 9 51 18
51 11 0 14 -17 14 -70 l0 -70 -53 0 c-29 0 -58 5 -65 12 -7 7 -12 38 -12 70 0
51 2 58 20 58 18 0 20 -7 20 -54z m248 42 c7 -7 12 -38 12 -70 0 -51 -2 -58
-20 -58 -18 0 -20 7 -20 54 0 38 -4 56 -15 60 -25 9 -45 -22 -45 -70 0 -37 -3
-44 -20 -44 -18 0 -20 7 -20 70 l0 70 58 0 c32 0 63 -5 70 -12z"/>
<path d="M8352 17853 c-16 -29 -15 -33 8 -33 22 0 23 4 11 35 -8 19 -8 19 -19
-2z"/>
<path d="M7715 17843 c-18 -17 -18 -18 9 -21 35 -4 44 4 24 24 -14 14 -17 14
-33 -3z"/>
<path d="M7860 17790 c-11 -6 -12 -12 -4 -20 13 -13 44 -2 44 16 0 16 -18 18
-40 4z"/>
<path d="M8117 17849 c-26 -15 -20 -29 13 -29 32 0 38 11 17 28 -8 7 -18 7
-30 1z"/>
<path d="M8767 17849 c-23 -13 -23 -65 1 -78 23 -12 39 -2 47 30 8 32 -21 62
-48 48z"/>
<path d="M16644 18409 c-371 -27 -704 -134 -888 -285 -138 -114 -177 -247
-109 -378 71 -137 274 -258 572 -340 335 -92 826 -103 1204 -25 218 44 438
135 552 227 75 61 110 105 139 175 l23 56 66 -44 c87 -59 95 -58 99 8 l3 52
410 0 c314 0 419 3 447 13 51 18 100 79 122 149 24 77 51 120 89 141 29 15 84
18 552 22 453 4 520 7 520 20 0 13 -64 15 -505 18 -360 2 -516 0 -545 -9 -74
-21 -115 -67 -141 -159 -27 -92 -55 -127 -121 -146 -50 -15 -99 -16 -445 -9
l-388 7 0 54 c0 68 -9 69 -98 10 l-66 -44 -28 57 c-142 297 -767 480 -1464
430z m-44 -516 l0 -56 23 21 c13 12 34 22 47 22 l24 0 -29 -30 -28 -30 26 -37
c23 -32 25 -39 11 -41 -9 -2 -29 9 -45 24 l-29 28 0 -27 c0 -20 -5 -27 -20
-27 -19 0 -20 7 -20 105 0 98 1 105 20 105 18 0 20 -7 20 -57z m220 22 c0 -34
1 -35 40 -35 49 0 76 -33 66 -82 -10 -49 -23 -58 -87 -58 l-59 0 0 105 c0 98
1 105 20 105 16 0 20 -7 20 -35z m-650 0 c0 -10 -10 -15 -30 -15 l-30 0 0 -80
c0 -64 -3 -80 -15 -80 -12 0 -15 16 -15 80 l0 80 -30 0 c-20 0 -30 5 -30 15 0
12 15 15 75 15 60 0 75 -3 75 -15z m1106 -74 c40 -99 40 -101 14 -101 -13 0
-22 9 -26 25 -5 21 -12 25 -40 25 -27 0 -37 -5 -46 -25 -6 -14 -19 -25 -30
-25 -10 0 -18 2 -18 5 0 3 16 46 36 95 48 119 62 119 110 1z m75 34 c14 -62
20 -61 39 8 10 38 17 47 35 47 18 0 25 -9 35 -47 19 -69 25 -70 39 -8 10 43
16 55 32 55 24 0 24 2 -3 -102 -19 -76 -25 -88 -44 -88 -18 0 -24 11 -40 67
l-20 68 -18 -68 c-16 -59 -21 -68 -39 -65 -17 2 -26 18 -44 83 -28 98 -28 105
-4 105 16 0 22 -12 32 -55z m347 43 c15 -15 16 -50 2 -64 -8 -8 -6 -15 5 -24
20 -16 19 -49 -2 -72 -12 -13 -31 -18 -75 -18 l-58 0 0 95 0 95 58 0 c32 0 63
-5 70 -12z m-1424 -53 c-4 -8 -14 -15 -25 -15 -24 0 -39 -29 -39 -74 0 -25 -4
-36 -15 -36 -12 0 -15 14 -15 69 l0 68 50 2 c40 0 48 -2 44 -14z m126 -11 c6
-14 10 -45 10 -70 l0 -44 -58 0 c-56 0 -82 11 -82 36 0 23 31 44 66 44 19 0
34 4 34 8 0 18 -25 31 -51 25 -16 -3 -29 -1 -29 4 0 18 13 23 57 23 37 0 45
-4 53 -26z m140 12 c0 -9 -12 -16 -32 -18 -30 -3 -33 -6 -33 -38 0 -32 3 -35
33 -38 48 -5 43 -32 -7 -32 -50 0 -71 21 -71 70 0 22 7 45 16 54 20 21 94 22
94 2z m439 -26 c14 -46 25 -45 41 5 8 24 18 35 31 35 25 0 25 1 -19 -105 -37
-89 -37 -90 -75 -93 -41 -4 -51 12 -13 22 34 8 38 30 15 83 -41 95 -41 93 -15
93 18 0 25 -8 35 -40z"/>
<path d="M16835 17844 c-8 -9 -15 -24 -15 -34 0 -45 52 -60 65 -19 14 44 -21
81 -50 53z"/>
<path d="M17212 17853 c-16 -29 -15 -33 8 -33 22 0 23 4 11 35 -8 19 -8 19
-19 -2z"/>
<path d="M17610 17880 c0 -30 11 -37 44 -24 22 8 20 31 -3 44 -32 16 -41 12
-41 -20z"/>
<path d="M17610 17795 c0 -19 4 -35 9 -35 24 0 61 21 61 35 0 14 -37 35 -61
35 -5 0 -9 -16 -9 -35z"/>
<path d="M16320 17790 c-11 -7 -12 -12 -3 -21 12 -12 53 4 53 21 0 13 -30 13
-50 0z"/>
<path d="M3040 16955 c0 -96 3 -115 15 -115 12 0 15 17 15 93 l0 92 60 -92
c81 -126 90 -124 90 22 0 138 -18 156 -22 23 l-3 -93 -60 92 c-84 129 -95 127
-95 -22z"/>
<path d="M3824 17036 c-28 -28 -34 -42 -34 -75 0 -80 47 -126 121 -119 50 5
50 28 -1 28 -56 0 -78 14 -86 55 -14 77 15 115 87 115 48 0 65 12 33 24 -42
16 -86 6 -120 -28z"/>
<path d="M4522 17054 c4 -21 22 -23 26 -1 2 10 -3 17 -13 17 -10 0 -15 -6 -13
-16z"/>
<path d="M16785 17034 c-352 -30 -609 -131 -846 -333 -120 -102 -233 -269
-282 -418 -144 -441 90 -905 577 -1138 337 -161 750 -185 1119 -64 242 79 456
226 591 406 103 137 159 266 180 415 l11 78 67 -45 c89 -60 98 -59 98 9 l0 53
1341 8 c1426 7 1379 6 1432 53 16 14 17 -33 20 -974 3 -1363 3 -1323 -12
-1367 -7 -21 -28 -49 -49 -65 l-35 -27 -1349 -3 -1348 -2 0 55 c0 69 -8 70
-98 11 l-67 -45 -11 77 c-27 187 -117 363 -259 507 -310 314 -773 447 -1278
365 -102 -16 -300 -84 -396 -136 -127 -69 -205 -128 -306 -229 -151 -153 -243
-336 -264 -528 -50 -451 259 -864 775 -1036 520 -173 1113 -47 1467 311 141
143 235 326 261 510 l11 78 67 -45 c90 -60 98 -59 98 10 l0 55 1348 2 c1302 3
1348 4 1385 22 22 11 51 37 65 59 l27 41 3 1438 c2 1421 2 1438 -17 1438 -19
0 -20 -9 -23 -219 -3 -246 -6 -257 -81 -294 -34 -17 -112 -18 -1371 -24
l-1336 -6 0 56 c0 71 -8 72 -98 12 l-67 -45 -11 78 c-63 440 -492 809 -1024
881 -88 12 -258 20 -315 15z m365 -399 c0 -34 1 -35 40 -35 34 0 42 -4 50 -26
6 -14 10 -45 10 -70 0 -37 -3 -44 -20 -44 -17 0 -20 7 -20 49 0 31 -5 53 -15
61 -26 21 -45 -5 -45 -61 0 -42 -3 -49 -20 -49 -19 0 -20 7 -20 105 0 98 1
105 20 105 16 0 20 -7 20 -35z m-756 -47 c12 -32 24 -58 27 -58 3 0 14 27 24
60 l18 60 44 0 c32 0 43 -4 43 -15 0 -17 -36 -21 -42 -4 -2 6 -18 -29 -35 -77
-26 -76 -33 -89 -53 -89 -19 0 -27 14 -56 90 -19 50 -34 91 -34 93 0 2 10 2
22 0 16 -2 27 -17 42 -60z m656 27 c0 -9 9 -15 25 -15 14 0 25 -4 25 -10 0 -5
-11 -10 -25 -10 -22 0 -25 -4 -25 -38 0 -41 15 -63 36 -55 9 3 14 -1 14 -12 0
-13 -8 -16 -37 -13 l-38 3 -3 55 c-2 30 -8 57 -14 61 -6 4 -5 14 3 28 16 24
39 28 39 6z m-500 -85 c0 -63 -2 -70 -20 -70 -18 0 -20 7 -20 70 0 63 2 70 20
70 18 0 20 -7 20 -70z m148 58 c7 -7 12 -25 12 -40 0 -27 -2 -28 -45 -28 -44
0 -58 -11 -33 -26 7 -4 27 -7 46 -6 24 2 33 -1 30 -10 -7 -21 -87 -22 -109 -2
-24 21 -26 86 -3 108 18 19 85 21 102 4z m64 -29 l14 -42 13 42 c10 34 16 42
33 39 14 -2 26 -15 33 -38 l13 -35 11 28 c6 16 11 33 11 38 0 5 10 9 21 9 17
0 20 -4 15 -22 -4 -13 -12 -45 -18 -71 -10 -43 -14 -48 -37 -45 -19 2 -28 11
-35 36 -5 17 -12 32 -16 32 -4 0 -11 -15 -16 -32 -7 -22 -17 -34 -31 -36 -19
-3 -25 6 -42 63 -25 81 -25 75 -2 75 14 0 23 -12 33 -41z m626 29 c7 -7 12
-25 12 -40 0 -27 -2 -28 -45 -28 -44 0 -58 -11 -33 -26 7 -4 27 -7 45 -6 24 2
33 -2 33 -13 0 -22 -87 -21 -112 2 -23 20 -24 85 -2 107 18 19 85 21 102 4z
m382 -383 l0 -105 -59 0 c-51 0 -62 3 -75 22 -9 12 -16 34 -16 48 0 44 26 70
71 70 38 0 39 1 39 35 0 28 4 35 20 35 19 0 20 -7 20 -105z m-1570 15 c5 -10
10 -41 10 -69 0 -44 -3 -51 -20 -51 -17 0 -20 7 -20 49 0 88 -49 90 -58 2 -3
-34 -9 -51 -18 -51 -10 0 -14 14 -14 49 0 57 -19 81 -44 56 -10 -10 -16 -33
-16 -61 0 -37 -3 -44 -20 -44 -18 0 -20 7 -20 70 l0 70 105 -1 c92 0 106 -3
115 -19z m144 4 c3 -9 6 -39 6 -69 l0 -52 -47 -2 c-65 -1 -83 6 -83 33 0 31
19 46 58 46 27 0 33 4 30 18 -3 13 -12 16 -36 14 -30 -3 -41 6 -25 21 3 4 25
7 49 7 29 0 44 -5 48 -16z m166 -3 c5 -11 10 -42 10 -70 0 -44 -3 -51 -20 -51
-17 0 -20 7 -20 48 0 55 -14 76 -42 61 -14 -7 -18 -21 -18 -59 0 -43 -3 -50
-20 -50 -18 0 -20 7 -20 70 l0 70 60 0 c48 0 61 -4 70 -19z m150 0 c5 -11 10
-42 10 -70 l0 -51 -60 0 c-48 0 -61 4 -70 19 -13 25 -13 27 6 45 8 9 31 16 50
16 19 0 34 4 34 8 0 15 -22 30 -36 25 -19 -7 -47 5 -39 17 3 5 26 10 50 10 34
0 47 -5 55 -19z m170 -63 c0 -107 -7 -118 -75 -118 -44 0 -55 3 -55 16 0 13 7
15 34 11 31 -5 56 6 56 25 0 4 -15 8 -34 8 -44 0 -66 22 -66 66 0 63 13 74 80
73 l60 -2 0 -79z m142 65 c10 -9 18 -26 18 -39 0 -21 -5 -23 -52 -26 -49 -3
-51 -4 -34 -20 12 -12 26 -16 46 -11 23 4 30 2 30 -11 0 -12 -10 -16 -45 -16
-60 0 -90 28 -82 77 3 19 11 41 18 49 16 19 78 18 101 -3z m138 6 c0 -8 4 -8
14 0 17 14 102 11 98 -4 -1 -5 -16 -10 -32 -10 -40 0 -39 -15 2 -34 65 -31 45
-81 -33 -81 -38 0 -49 4 -49 15 0 12 9 15 36 13 43 -4 58 18 20 28 -15 3 -35
17 -45 30 -22 27 -56 32 -65 8 -3 -9 -6 -33 -6 -55 0 -32 -3 -39 -20 -39 -18
0 -20 7 -20 70 l0 70 50 0 c30 0 50 -4 50 -11z m318 -1 c7 -7 12 -38 12 -69
l0 -57 -62 1 c-58 2 -63 4 -66 25 -5 33 15 52 55 52 28 0 34 4 31 18 -3 11
-12 16 -28 14 -31 -3 -53 5 -45 18 9 14 88 13 103 -2z m166 -4 c3 -9 6 -40 6
-70 0 -47 -2 -54 -20 -54 -18 0 -20 7 -20 54 0 36 -4 56 -13 59 -25 10 -40
-11 -45 -62 -3 -34 -9 -51 -18 -51 -11 0 -14 17 -14 70 l0 70 59 0 c44 0 60
-4 65 -16z m-960 -289 c-4 -9 -14 -14 -23 -13 -10 2 -17 -5 -19 -19 -2 -16 2
-23 12 -23 9 0 16 -4 16 -10 0 -5 -7 -10 -15 -10 -12 0 -15 -13 -15 -60 0 -53
-2 -60 -20 -60 -18 0 -20 7 -20 60 0 47 -3 60 -15 60 -8 0 -15 5 -15 10 0 6 7
10 15 10 9 0 15 9 15 23 0 32 18 47 57 47 25 0 31 -4 27 -15z m206 -90 l0
-105 -58 0 c-32 0 -63 5 -70 12 -7 7 -12 33 -12 58 0 56 12 70 62 70 37 0 38
1 38 35 0 28 4 35 20 35 19 0 20 -7 20 -105z m220 0 c0 -98 -1 -105 -20 -105
-19 0 -20 7 -20 105 0 98 1 105 20 105 19 0 20 -7 20 -105z m770 0 l0 -105
-54 0 c-45 0 -58 4 -70 22 -9 12 -16 34 -16 48 0 44 26 70 71 70 38 0 39 1 39
35 0 24 5 35 15 35 12 0 15 -18 15 -105z m-700 70 c0 -16 -35 -21 -44 -6 -8
12 4 21 26 21 10 0 18 -7 18 -15z m-1092 -47 c7 -7 12 -38 12 -70 0 -51 -2
-58 -20 -58 -18 0 -20 7 -20 54 0 38 -4 56 -15 60 -25 9 -45 -22 -45 -70 0
-37 -3 -44 -20 -44 -18 0 -20 7 -20 70 l0 70 58 0 c32 0 63 -5 70 -12z m166
-10 c9 -12 16 -34 16 -48 0 -46 -26 -70 -75 -70 -49 0 -75 24 -75 70 0 46 26
70 75 70 34 0 47 -5 59 -22z m298 5 c23 -20 24 -80 1 -105 -19 -22 -95 -25
-112 -5 -21 26 -24 75 -7 102 13 20 25 25 58 25 25 0 49 -7 60 -17z m476 4 c6
-6 13 -24 17 -40 7 -27 7 -27 -44 -27 -49 0 -64 -10 -39 -26 7 -4 27 -7 45 -6
24 2 33 -2 33 -13 0 -22 -87 -21 -112 2 -23 20 -24 80 -1 105 19 21 85 25 101
5z m142 -57 c0 -56 -3 -70 -15 -70 -12 0 -15 14 -15 70 0 56 3 70 15 70 12 0
15 -14 15 -70z m69 30 c6 -22 15 -40 20 -40 4 0 13 18 20 40 9 29 17 40 31 40
25 0 25 -4 -4 -76 -19 -47 -29 -60 -49 -62 -17 -2 -26 3 -29 15 -3 10 -15 42
-27 71 l-21 52 24 0 c18 0 25 -8 35 -40z m213 23 c10 -9 18 -26 18 -39 0 -21
-5 -23 -52 -26 -49 -3 -51 -4 -34 -20 12 -12 26 -16 46 -11 23 4 30 2 30 -11
0 -12 -10 -16 -45 -16 -60 0 -90 28 -82 77 3 19 11 41 18 49 16 19 78 18 101
-3z m138 2 c0 -8 -8 -15 -18 -15 -29 0 -42 -21 -42 -67 0 -36 -3 -43 -20 -43
-18 0 -20 7 -20 70 l0 70 50 0 c38 0 50 -4 50 -15z m122 -2 c10 -9 18 -27 18
-40 0 -21 -4 -23 -50 -23 -27 0 -50 -4 -50 -10 0 -16 34 -28 63 -23 20 4 27 1
27 -11 0 -13 -11 -16 -49 -16 -40 0 -53 4 -65 22 -37 52 -8 118 51 118 20 0
45 -7 55 -17z m-1384 -111 c3 -17 -2 -22 -17 -22 -16 0 -21 6 -21 26 0 33 33
30 38 -4z m502 -259 l0 -56 23 21 c13 12 34 22 47 22 l24 0 -29 -30 -28 -30
26 -37 c23 -32 25 -39 11 -41 -9 -2 -29 9 -45 24 l-29 28 0 -27 c0 -20 -5 -27
-20 -27 -19 0 -20 7 -20 105 0 98 1 105 20 105 18 0 20 -7 20 -57z m-350 21
c20 -23 16 -75 -5 -90 -10 -8 -31 -14 -47 -14 -25 0 -28 -3 -28 -35 0 -28 -4
-35 -20 -35 -19 0 -20 7 -20 95 l0 95 54 0 c36 0 58 -5 66 -16z m150 -60 c6
-14 10 -45 10 -70 l0 -44 -58 0 c-56 0 -82 11 -82 36 0 23 31 44 66 44 19 0
34 4 34 8 0 18 -25 31 -51 25 -16 -3 -29 -1 -29 4 0 18 13 23 57 23 37 0 45
-4 53 -26z m140 12 c0 -9 -12 -16 -32 -18 -28 -3 -33 -7 -36 -33 -4 -33 18
-56 48 -48 14 4 20 0 20 -11 0 -12 -10 -16 -39 -16 -50 0 -71 21 -71 70 0 22
7 45 16 54 20 21 94 22 94 2z m280 -12 c6 -14 10 -45 10 -70 l0 -44 -58 0
c-56 0 -82 11 -82 36 0 23 31 44 66 44 19 0 34 4 34 8 0 18 -25 31 -51 25 -16
-3 -29 -1 -29 4 0 18 13 23 57 23 37 0 45 -4 53 -26z m170 -58 c0 -103 -9
-116 -81 -116 -38 0 -49 3 -49 16 0 12 7 15 27 11 29 -5 63 7 63 23 0 6 -18
10 -40 10 -44 0 -60 18 -60 70 0 58 14 70 80 70 l60 0 0 -84z m146 67 c7 -10
14 -28 14 -40 0 -21 -5 -23 -50 -23 -27 0 -50 -4 -50 -10 0 -16 34 -28 63 -23
20 4 27 1 27 -11 0 -13 -11 -16 -49 -16 -55 0 -81 22 -81 70 0 45 26 70 72 70
27 0 45 -6 54 -17z m134 1 c0 -13 -7 -15 -30 -11 -44 9 -46 -10 -3 -30 70 -33
52 -83 -28 -83 -38 0 -49 4 -49 15 0 12 9 15 36 13 51 -4 53 15 4 35 -67 26
-50 77 27 77 33 0 43 -4 43 -16z m-120 -1249 c0 -34 1 -35 38 -35 51 0 62 -14
62 -82 0 -51 -2 -58 -20 -58 -16 0 -19 8 -22 57 -2 31 -7 58 -13 60 -22 7 -38
-18 -43 -66 -3 -34 -9 -51 -18 -51 -11 0 -14 23 -14 105 0 87 3 105 15 105 10
0 15 -11 15 -35z m-1015 -5 c0 -11 -10 -14 -41 -12 -34 3 -45 -1 -58 -19 -20
-30 -21 -73 0 -93 9 -9 32 -16 55 -16 28 0 39 -4 39 -15 0 -11 -12 -15 -50
-15 -69 0 -100 30 -100 95 0 36 6 52 25 71 22 21 33 25 78 22 38 -2 52 -7 52
-18z m385 -15 c0 -8 9 -15 20 -15 11 0 20 -4 20 -10 0 -5 -9 -10 -21 -10 -18
0 -20 -5 -17 -47 2 -39 6 -48 21 -47 9 1 17 -4 17 -12 0 -17 -51 -19 -68 -2
-7 7 -12 33 -12 59 0 28 -5 49 -12 51 -8 3 -5 11 8 25 23 25 44 29 44 8z m380
0 c0 -8 9 -15 20 -15 11 0 20 -4 20 -10 0 -5 -9 -10 -21 -10 -18 0 -20 -5 -17
-47 2 -39 6 -47 21 -45 10 2 17 -3 17 -13 0 -13 -8 -16 -37 -13 l-38 3 -3 58
-3 58 -37 -6 c-61 -11 -64 -13 -60 -47 3 -30 6 -33 41 -36 49 -4 44 -26 -7
-30 -49 -4 -76 19 -76 66 0 53 23 72 87 72 40 0 53 4 53 15 0 8 9 15 20 15 11
0 20 -7 20 -15z m160 0 c0 -8 9 -15 20 -15 11 0 20 -4 20 -10 0 -5 -9 -10 -21
-10 -18 0 -20 -5 -17 -47 2 -39 6 -48 21 -47 9 1 17 -4 17 -12 0 -17 -51 -19
-68 -2 -7 7 -12 33 -12 59 0 28 -5 49 -12 51 -8 3 -5 11 8 25 23 25 44 29 44
8z m-786 -31 c32 -32 28 -92 -8 -116 -20 -14 -79 -8 -98 9 -23 20 -24 80 -1
105 20 23 85 24 107 2z m164 4 c7 -7 12 -38 12 -70 0 -51 -2 -58 -20 -58 -16
0 -19 8 -22 57 -2 31 -7 58 -13 60 -22 7 -38 -18 -43 -66 -3 -34 -9 -51 -18
-51 -11 0 -14 17 -14 70 l0 70 53 0 c29 0 58 -5 65 -12z m250 0 c7 -7 12 -38
12 -69 l0 -57 -62 1 c-58 2 -63 4 -66 25 -5 33 15 52 55 52 28 0 34 4 31 18
-3 11 -12 16 -28 14 -31 -3 -53 5 -45 18 9 14 88 13 103 -2z m704 -5 c10 -9
18 -26 18 -39 0 -21 -5 -23 -52 -26 -49 -3 -51 -4 -34 -20 12 -12 26 -16 46
-11 23 4 30 2 30 -11 0 -12 -10 -16 -45 -16 -60 0 -90 28 -82 77 3 19 11 41
18 49 16 19 78 18 101 -3z m-1064 -310 c-3 -14 -11 -17 -41 -15 -21 2 -44 -2
-52 -8 -23 -19 -29 -68 -11 -95 14 -21 25 -25 62 -25 32 0 44 -4 42 -12 -5
-15 -69 -23 -104 -14 -55 14 -69 114 -23 162 18 20 33 24 76 24 46 0 54 -3 51
-17z m497 2 c0 -5 -10 -11 -22 -13 -16 -2 -23 2 -23 13 0 11 7 15 23 13 12 -2
22 -7 22 -13z m-365 -45 c27 -14 34 -63 15 -99 -13 -27 -21 -31 -57 -31 -25 0
-49 7 -60 17 -23 20 -24 80 -1 105 18 20 73 24 103 8z m92 -47 c2 -31 8 -58
13 -60 22 -7 38 18 43 66 3 34 9 51 18 51 11 0 14 -17 14 -70 l0 -70 -59 0
c-68 0 -71 4 -71 86 0 47 3 54 20 54 16 0 19 -8 22 -57z m218 42 c0 -8 -9 -15
-20 -15 -25 0 -40 -29 -40 -74 0 -29 -4 -36 -20 -36 -18 0 -20 7 -20 70 l0 70
50 0 c38 0 50 -4 50 -15z m50 -55 c0 -63 -2 -70 -20 -70 -18 0 -20 7 -20 70 0
63 2 70 20 70 18 0 20 -7 20 -70z m142 53 c10 -9 18 -26 18 -39 0 -21 -5 -23
-52 -26 -49 -3 -51 -4 -34 -20 12 -12 26 -16 46 -11 23 4 30 2 30 -11 0 -12
-10 -16 -45 -16 -60 0 -90 28 -82 77 3 19 11 41 18 49 16 19 78 18 101 -3z
m138 2 c0 -9 -9 -15 -24 -15 -28 0 -36 -16 -36 -71 0 -32 -3 -39 -20 -39 -18
0 -20 7 -20 70 l0 70 50 0 c38 0 50 -4 50 -15z m117 3 c-2 -7 -18 -13 -35 -13
-48 0 -49 -14 -4 -32 36 -13 42 -20 42 -44 0 -22 -6 -30 -24 -35 -36 -9 -89
-1 -94 14 -3 10 5 13 33 10 48 -4 56 15 15 32 -37 15 -52 38 -39 62 7 14 22
18 60 18 36 0 49 -4 46 -12z m-1127 -313 c0 -34 1 -35 40 -35 34 0 42 -4 50
-26 6 -14 10 -45 10 -70 0 -37 -3 -44 -20 -44 -17 0 -20 7 -20 49 0 56 -19 82
-45 61 -10 -8 -15 -30 -15 -61 0 -42 -3 -49 -20 -49 -19 0 -20 7 -20 105 0 98
1 105 20 105 16 0 20 -7 20 -35z m1230 -70 l0 -105 -58 0 c-68 0 -82 11 -82
63 0 59 14 77 60 77 39 0 40 1 40 35 0 28 4 35 20 35 19 0 20 -7 20 -105z
m-1395 70 c0 -5 -10 -11 -22 -13 -16 -2 -23 2 -23 13 0 11 7 15 23 13 12 -2
22 -7 22 -13z m1465 0 c0 -8 -9 -15 -20 -15 -11 0 -20 7 -20 15 0 8 9 15 20
15 11 0 20 -7 20 -15z m-1400 -20 c0 -8 9 -15 20 -15 11 0 20 -4 20 -10 0 -5
-9 -10 -21 -10 -18 0 -20 -5 -17 -47 2 -39 6 -48 21 -47 9 1 17 -4 17 -12 0
-20 -66 -19 -74 2 -3 9 -6 35 -6 59 0 25 -5 45 -12 47 -8 3 -5 11 8 25 23 25
44 29 44 8z m590 0 c0 -8 9 -15 20 -15 11 0 20 -4 20 -10 0 -5 -9 -10 -21 -10
-18 0 -20 -5 -17 -47 2 -39 6 -48 21 -47 9 1 17 -4 17 -12 0 -20 -66 -19 -74
2 -3 9 -6 35 -6 59 0 24 -5 45 -12 47 -7 3 -5 12 8 26 21 25 44 29 44 7z
m-873 -57 l9 -43 14 43 c10 32 18 42 35 42 17 0 25 -10 35 -42 l14 -43 9 43
c7 31 15 42 28 42 23 0 23 -5 2 -80 -14 -51 -20 -60 -39 -60 -17 0 -26 9 -37
43 l-14 42 -13 -42 c-10 -34 -18 -43 -35 -43 -18 0 -25 11 -42 70 l-21 70 23
0 c18 0 24 -8 32 -42z m213 -28 c0 -63 -2 -70 -20 -70 -18 0 -20 7 -20 70 0
63 2 70 20 70 18 0 20 -7 20 -70z m412 53 c23 -20 24 -80 1 -105 -20 -23 -80
-24 -105 -1 -23 20 -24 85 -2 107 20 21 83 20 106 -1z m78 -31 c0 -55 14 -76
42 -61 14 7 18 21 18 59 0 43 3 50 20 50 18 0 20 -7 20 -70 l0 -70 -60 0 c-70
0 -80 11 -80 89 0 44 3 51 20 51 17 0 20 -7 20 -48z m424 26 c9 -12 16 -34 16
-48 0 -44 -26 -70 -71 -70 -37 0 -39 -2 -39 -30 0 -23 -4 -30 -20 -30 -19 0
-20 7 -20 100 l0 100 59 0 c51 0 62 -3 75 -22z m148 5 c10 -9 18 -27 18 -40 0
-21 -4 -23 -50 -23 -27 0 -50 -4 -50 -10 0 -16 34 -28 63 -23 20 4 27 1 27
-11 0 -25 -84 -22 -110 4 -24 24 -26 67 -4 98 19 27 78 30 106 5z m168 -9 c6
-14 10 -45 10 -70 0 -37 -3 -44 -20 -44 -17 0 -20 7 -20 48 0 55 -14 76 -42
61 -14 -7 -18 -21 -18 -59 0 -43 -3 -50 -20 -50 -18 0 -20 7 -20 69 l0 68 60
2 c56 1 61 -1 70 -25z m240 -44 c0 -63 -2 -70 -20 -70 -18 0 -20 7 -20 70 0
63 2 70 20 70 18 0 20 -7 20 -70z m148 58 c7 -7 12 -38 12 -70 0 -51 -2 -58
-20 -58 -16 0 -19 8 -22 57 -2 31 -7 58 -13 60 -22 7 -38 -18 -43 -66 -3 -34
-9 -51 -18 -51 -11 0 -14 17 -14 70 l0 70 53 0 c29 0 58 -5 65 -12z m182 -60
c0 -40 -6 -84 -13 -98 -11 -22 -19 -25 -66 -25 -38 0 -56 4 -59 14 -4 11 3 13
32 8 26 -4 40 -1 53 11 16 16 14 17 -25 20 -65 5 -94 66 -56 120 13 19 24 22
75 22 l59 0 0 -72z m-1120 -315 l0 -56 23 21 c13 12 34 22 47 22 l24 0 -29
-30 -28 -30 26 -37 c23 -32 25 -39 11 -41 -9 -2 -29 9 -45 24 l-29 28 0 -27
c0 -20 -5 -27 -20 -27 -19 0 -20 7 -20 105 0 98 1 105 20 105 18 0 20 -7 20
-57z m-350 21 c20 -23 16 -75 -5 -90 -10 -8 -31 -14 -47 -14 -25 0 -28 -3 -28
-35 0 -28 -4 -35 -19 -35 -18 0 -20 9 -23 95 l-3 95 56 0 c39 0 61 -5 69 -16z
m150 -60 c6 -14 10 -45 10 -70 l0 -44 -58 0 c-56 0 -82 11 -82 36 0 23 31 44
66 44 19 0 34 4 34 8 0 18 -25 31 -51 25 -16 -3 -29 -1 -29 4 0 18 13 23 57
23 37 0 45 -4 53 -26z m140 12 c0 -9 -12 -16 -32 -18 -30 -3 -33 -6 -33 -38 0
-32 3 -35 33 -38 48 -5 43 -32 -7 -32 -50 0 -71 21 -71 70 0 22 7 45 16 54 20
21 94 22 94 2z m280 -12 c6 -14 10 -45 10 -70 0 -43 -1 -44 -32 -45 -53 -2
-82 2 -95 13 -32 26 1 68 53 68 19 0 34 4 34 8 0 18 -25 31 -51 25 -16 -3 -29
-1 -29 4 0 18 13 23 57 23 37 0 45 -4 53 -26z m170 -58 c0 -103 -9 -116 -81
-116 -38 0 -49 3 -49 16 0 12 7 15 27 11 29 -5 63 7 63 23 0 6 -18 10 -40 10
-44 0 -60 18 -60 70 0 58 14 70 80 70 l60 0 0 -84z m142 67 c10 -9 18 -27 18
-40 0 -21 -4 -23 -50 -23 -27 0 -50 -4 -50 -10 0 -16 34 -28 63 -23 20 4 27 1
27 -11 0 -13 -11 -16 -49 -16 -40 0 -53 4 -65 22 -37 52 -8 118 51 118 20 0
45 -7 55 -17z m138 1 c0 -13 -7 -15 -30 -11 -45 10 -45 -10 0 -33 67 -34 49
-80 -32 -80 -37 0 -48 4 -48 15 0 12 9 15 36 13 51 -4 53 14 4 36 -66 29 -49
76 27 76 33 0 43 -4 43 -16z"/>
<path d="M16631 16567 c-18 -18 -13 -27 14 -27 15 0 25 6 25 14 0 19 -25 27
-39 13z"/>
<path d="M17321 16567 c-18 -18 -13 -27 14 -27 15 0 25 6 25 14 0 19 -25 27
-39 13z"/>
<path d="M17675 16204 c-18 -19 -19 -44 -2 -68 25 -34 67 8 52 53 -8 26 -31
33 -50 15z"/>
<path d="M16270 16150 c-11 -6 -12 -12 -4 -20 13 -13 44 -2 44 16 0 16 -18 18
-40 4z"/>
<path d="M16585 16150 c-3 -5 -3 -15 0 -20 7 -12 45 5 45 20 0 13 -37 13 -45
0z"/>
<path d="M16742 16208 c-31 -31 0 -105 33 -78 25 21 14 90 -15 90 -3 0 -11 -5
-18 -12z"/>
<path d="M16905 16203 c-18 -17 -18 -18 9 -21 35 -4 44 4 24 24 -14 14 -17 14
-33 -3z"/>
<path d="M17354 16149 c-3 -6 -2 -15 3 -20 13 -13 43 -1 43 17 0 16 -36 19
-46 3z"/>
<path d="M16752 15848 c-16 -16 -15 -75 1 -81 23 -8 47 13 47 43 0 34 -29 57
-48 38z"/>
<path d="M17742 15848 c-16 -16 -15 -63 2 -77 17 -14 46 -4 48 18 5 57 -21 88
-50 59z"/>
<path d="M16126 15844 c-35 -35 -5 -95 36 -73 22 12 23 52 2 73 -8 9 -17 16
-19 16 -2 0 -11 -7 -19 -16z"/>
<path d="M16426 15844 c-33 -33 -4 -94 35 -74 12 7 19 21 19 40 0 38 -31 57
-54 34z"/>
<path d="M16912 15848 c-20 -20 -14 -28 18 -28 28 0 30 2 20 20 -12 23 -21 25
-38 8z"/>
<path d="M17335 15843 c-18 -17 -18 -18 9 -21 35 -4 44 4 24 24 -14 14 -17 14
-33 -3z"/>
<path d="M17597 15849 c-26 -15 -20 -29 13 -29 32 0 38 11 17 28 -8 7 -18 7
-30 1z"/>
<path d="M16350 15471 c0 -38 1 -40 23 -32 22 8 38 61 18 61 -5 0 -16 3 -25 6
-13 5 -16 -2 -16 -35z"/>
<path d="M16500 15390 c-11 -7 -12 -12 -3 -21 12 -12 53 4 53 21 0 13 -30 13
-50 0z"/>
<path d="M16921 15386 c-8 -10 -9 -16 -2 -21 13 -7 51 12 51 25 0 15 -36 12
-49 -4z"/>
<path d="M17082 15448 c-18 -18 -15 -75 4 -82 24 -9 44 12 44 45 0 33 -30 55
-48 37z"/>
<path d="M17247 15449 c-26 -15 -20 -29 13 -29 32 0 38 11 17 28 -8 7 -18 7
-30 1z"/>
<path d="M16382 14148 c-18 -18 -15 -66 6 -77 23 -12 39 -2 47 30 4 18 1 31
-10 43 -20 19 -27 20 -43 4z"/>
<path d="M16794 14089 c-3 -6 -2 -15 3 -20 13 -13 43 -1 43 17 0 16 -36 19
-46 3z"/>
<path d="M17505 14143 c-18 -17 -18 -18 9 -21 35 -4 44 4 24 24 -14 14 -17 14
-33 -3z"/>
<path d="M16577 13788 c-24 -13 -22 -65 3 -78 16 -8 22 -6 35 14 27 41 1 86
-38 64z"/>
<path d="M17075 13783 c-18 -17 -18 -18 9 -21 35 -4 44 4 24 24 -14 14 -17 14
-33 -3z"/>
<path d="M17412 13428 c-16 -16 -15 -75 1 -81 23 -8 47 13 47 43 0 34 -29 57
-48 38z"/>
<path d="M16442 13428 c-31 -31 0 -105 33 -78 25 21 14 90 -15 90 -3 0 -11 -5
-18 -12z"/>
<path d="M16935 13424 c-8 -9 -15 -24 -15 -34 0 -45 52 -60 65 -19 14 44 -21
81 -50 53z"/>
<path d="M17097 13429 c-26 -15 -20 -29 13 -29 32 0 38 11 17 28 -8 7 -18 7
-30 1z"/>
<path d="M17805 13424 c-8 -9 -15 -24 -15 -34 0 -45 52 -60 65 -19 14 44 -21
81 -50 53z"/>
<path d="M16350 13051 c0 -38 1 -40 23 -32 22 8 38 61 18 61 -5 0 -16 3 -25 6
-13 5 -16 -2 -16 -35z"/>
<path d="M16500 12970 c-11 -7 -12 -12 -3 -21 12 -12 53 4 53 21 0 13 -30 13
-50 0z"/>
<path d="M16920 12970 c-11 -7 -12 -12 -3 -21 12 -12 53 4 53 21 0 13 -30 13
-50 0z"/>
<path d="M17082 13028 c-18 -18 -15 -75 4 -82 24 -9 44 12 44 45 0 33 -30 55
-48 37z"/>
<path d="M17247 13029 c-26 -15 -20 -29 13 -29 32 0 38 11 17 28 -8 7 -18 7
-30 1z"/>
<path d="M3300 16992 c-13 -10 -23 -33 -27 -59 -5 -35 -2 -45 20 -67 26 -26
66 -33 101 -20 29 11 17 27 -16 20 -35 -7 -78 15 -78 39 0 12 14 15 60 15 54
0 60 2 60 20 0 29 -44 70 -73 70 -14 0 -35 -8 -47 -18z m74 -18 c26 -25 19
-34 -29 -34 -25 0 -45 4 -45 9 0 14 30 41 45 41 7 0 21 -7 29 -16z"/>
<path d="M3443 16981 c4 -17 14 -57 23 -87 21 -74 41 -69 69 16 l22 65 19 -65
c28 -92 47 -92 74 2 12 40 23 79 25 86 3 6 -2 12 -10 12 -8 0 -20 -23 -30 -57
-9 -32 -17 -62 -19 -68 -2 -5 -12 19 -23 55 -25 85 -45 90 -68 18 -9 -29 -19
-60 -22 -68 -3 -8 -13 14 -22 49 -9 36 -23 67 -30 69 -11 4 -13 -3 -8 -27z"/>
<path d="M4015 16985 c-67 -67 12 -180 95 -135 28 15 42 67 29 107 -19 57 -81
72 -124 28z m85 -15 c11 -11 20 -31 20 -45 0 -27 -32 -65 -54 -65 -26 0 -46
30 -46 70 0 57 42 78 80 40z"/>
<path d="M4190 16942 c0 -54 4 -72 18 -85 21 -19 54 -22 83 -7 13 7 19 7 19 0
0 -5 5 -10 10 -10 6 0 10 35 10 85 0 50 -4 85 -10 85 -5 0 -10 -25 -10 -55 0
-42 -5 -60 -20 -75 -43 -43 -70 -18 -70 67 0 49 -3 63 -15 63 -12 0 -15 -14
-15 -68z"/>
<path d="M4390 16925 c0 -69 3 -85 15 -85 12 0 15 13 15 58 0 63 11 82 47 82
14 0 23 6 23 15 0 18 -23 19 -53 4 -16 -9 -22 -9 -25 0 -2 6 -8 11 -13 11 -5
0 -9 -38 -9 -85z"/>
<path d="M4520 16925 c0 -69 3 -85 15 -85 12 0 15 16 15 85 0 69 -3 85 -15 85
-12 0 -15 -16 -15 -85z"/>
<path d="M4622 16987 c-33 -35 -30 -99 5 -127 30 -24 93 -24 101 -1 3 10 -2
12 -21 7 -36 -9 -77 9 -77 34 0 18 6 20 55 20 52 0 55 1 55 25 0 59 -77 86
-118 42z m76 -9 c24 -24 13 -38 -28 -38 -43 0 -55 20 -22 39 23 14 36 13 50
-1z"/>
<path d="M4790 16925 c0 -50 4 -85 10 -85 6 0 10 20 10 44 0 65 14 96 45 96
16 0 25 6 25 15 0 20 -29 19 -52 -2 -17 -15 -18 -15 -18 0 0 10 -4 17 -10 17
-6 0 -10 -35 -10 -85z"/>
<path d="M20910 16880 c0 -100 3 -120 15 -120 13 0 15 20 15 120 0 100 -2 120
-15 120 -12 0 -15 -20 -15 -120z"/>
<path d="M20734 16956 c-28 -28 -34 -42 -34 -75 0 -80 47 -126 121 -119 50 5
50 28 -1 28 -56 0 -78 14 -86 55 -14 77 15 115 87 115 48 0 65 12 33 24 -42
16 -86 6 -120 -28z"/>
<path d="M20992 16974 c4 -21 22 -23 26 -1 2 10 -3 17 -13 17 -10 0 -15 -6
-13 -16z"/>
<path d="M21460 16951 c0 -10 -8 -22 -17 -26 -17 -6 -17 -7 0 -16 13 -8 17
-23 17 -67 0 -63 11 -82 47 -82 29 0 30 12 1 25 -19 8 -23 19 -26 68 -3 55 -2
57 23 57 14 0 25 5 25 10 0 6 -11 10 -25 10 -18 0 -25 5 -25 20 0 11 -4 20
-10 20 -5 0 -10 -9 -10 -19z"/>
<path d="M20990 16845 c0 -69 3 -85 15 -85 12 0 15 16 15 85 0 69 -3 85 -15
85 -12 0 -15 -16 -15 -85z"/>
<path d="M21092 16907 c-33 -35 -30 -99 5 -127 30 -24 93 -24 101 -1 3 10 -2
12 -21 7 -36 -9 -77 9 -77 34 0 18 6 20 55 20 52 0 55 1 55 25 0 59 -77 86
-118 42z m76 -9 c24 -24 13 -38 -28 -38 -43 0 -55 20 -22 39 23 14 36 13 50
-1z"/>
<path d="M21260 16845 c0 -50 4 -85 10 -85 6 0 10 25 10 55 0 42 5 60 20 75
21 21 29 23 54 14 12 -5 16 -21 16 -75 0 -55 3 -69 15 -69 24 0 21 131 -3 153
-21 19 -54 22 -83 7 -13 -7 -19 -7 -19 0 0 5 -4 10 -10 10 -6 0 -10 -35 -10
-85z"/>
<path d="M8100 16029 c-280 -21 -549 -90 -740 -190 -140 -73 -257 -188 -276
-272 -7 -34 -12 -32 -94 23 -81 55 -90 53 -90 -15 l0 -55 -1422 -2 -1423 -3
-46 -27 c-75 -44 -82 -68 -91 -313 -5 -115 -7 -565 -6 -1000 3 -694 5 -790 18
-790 13 0 16 118 20 985 5 970 5 986 26 1025 14 27 34 47 64 63 l44 22 1408 0
1408 0 0 -55 c0 -69 8 -70 100 -8 39 25 72 44 73 42 2 -2 9 -22 15 -44 45
-157 260 -298 590 -389 192 -52 393 -76 652 -76 304 0 543 34 773 111 246 82
396 185 458 314 187 388 -558 721 -1461 654z m190 -431 c0 -7 -14 -70 -32
-140 -27 -103 -36 -128 -50 -128 -23 0 -22 3 3 97 44 168 50 183 64 183 8 0
15 -6 15 -12z m-750 -107 l0 -80 42 -3 c23 -2 43 -9 46 -15 3 -10 -14 -13 -62
-13 l-66 0 0 95 c0 88 1 95 20 95 18 0 20 -7 20 -79z m460 64 c0 -8 -9 -15
-20 -15 -11 0 -20 7 -20 15 0 8 9 15 20 15 11 0 20 -7 20 -15z m350 -64 l0
-80 42 -3 c23 -2 43 -9 46 -15 3 -10 -14 -13 -62 -13 l-66 0 0 95 c0 88 1 95
20 95 18 0 20 -7 20 -79z m790 44 c0 -9 9 -15 25 -15 14 0 25 -4 25 -10 0 -5
-11 -10 -25 -10 -22 0 -25 -4 -25 -37 0 -47 11 -66 33 -57 12 4 17 1 17 -11 0
-13 -8 -16 -37 -13 l-38 3 -3 55 c-2 30 -8 57 -14 61 -6 4 -5 14 3 28 16 24
39 28 39 6z m-1376 -37 c9 -12 16 -34 16 -48 0 -46 -26 -70 -75 -70 -49 0 -75
24 -75 70 0 46 26 70 75 70 34 0 47 -5 59 -22z m176 -50 c0 -40 -6 -84 -13
-98 -11 -22 -19 -25 -66 -25 -38 0 -56 4 -59 14 -4 11 3 13 32 8 26 -4 40 -1
53 11 16 16 14 17 -25 20 -65 5 -94 66 -56 120 13 19 24 22 75 22 l59 0 0 -72z
m60 2 c0 -63 -2 -70 -20 -70 -18 0 -20 7 -20 70 0 63 2 70 20 70 18 0 20 -7
20 -70z m158 58 c7 -7 12 -38 12 -70 0 -51 -2 -58 -20 -58 -18 0 -20 7 -20 54
0 38 -4 56 -15 60 -25 9 -45 -22 -45 -70 0 -37 -3 -44 -20 -44 -18 0 -20 7
-20 70 l0 70 58 0 c32 0 63 -5 70 -12z m414 -5 c23 -20 24 -80 1 -105 -19 -22
-95 -25 -112 -5 -21 26 -24 75 -7 102 13 20 25 25 58 25 25 0 49 -7 60 -17z
m178 -64 c0 -108 -7 -119 -75 -119 -44 0 -55 3 -55 16 0 12 7 15 27 11 29 -5
63 7 63 23 0 6 -18 10 -40 10 -45 0 -60 18 -60 74 0 50 21 66 86 66 l54 0 0
-81z m156 50 c29 -56 -2 -109 -63 -109 -48 0 -73 24 -73 68 0 50 24 72 76 72
39 0 45 -4 60 -31z m76 -26 c2 -31 8 -58 13 -60 22 -7 38 18 43 66 3 34 9 51
18 51 11 0 14 -17 14 -70 l0 -70 -53 0 c-29 0 -58 5 -65 12 -7 7 -12 38 -12
70 0 51 2 58 20 58 16 0 19 -8 22 -57z"/>
<path d="M7687 15489 c-22 -13 -22 -65 0 -78 27 -14 53 5 53 39 0 34 -26 53
-53 39z"/>
<path d="M7845 15484 c-8 -9 -15 -24 -15 -34 0 -45 52 -60 65 -19 14 44 -21
81 -50 53z"/>
<path d="M8496 15484 c-33 -33 -4 -94 35 -74 12 7 19 21 19 40 0 38 -31 57
-54 34z"/>
<path d="M8662 15488 c-18 -18 -15 -75 4 -82 24 -9 44 12 44 45 0 33 -30 55
-48 37z"/>
<path d="M8822 15488 c-19 -19 -15 -66 7 -78 16 -8 23 -6 35 12 21 29 20 41
-2 61 -22 20 -25 20 -40 5z"/>
<path d="M8130 14649 c-195 -13 -431 -64 -586 -127 l-51 -21 -81 55 c-45 30
-88 54 -97 54 -12 0 -15 -12 -15 -55 l0 -55 -573 -2 -573 -3 -42 -27 c-82 -55
-76 8 -82 -903 -5 -794 -5 -811 -26 -849 -12 -24 -35 -47 -58 -59 -37 -20 -58
-20 -697 -18 -642 2 -659 2 -659 -17 0 -18 16 -19 398 -25 218 -4 469 -7 557
-7 137 0 166 -3 203 -20 80 -36 76 -3 82 -775 5 -663 6 -681 25 -715 12 -19
40 -48 64 -65 l43 -30 469 -3 469 -3 0 -54 c0 -68 9 -70 90 -15 84 57 86 57
95 14 16 -88 93 -191 198 -265 182 -130 460 -226 752 -260 146 -17 485 -15
632 5 200 27 388 79 538 151 177 85 293 184 351 300 56 113 49 214 -23 333
-108 177 -419 334 -787 397 -323 55 -749 34 -1049 -51 -334 -96 -583 -281
-612 -457 -8 -45 -10 -45 -95 13 -81 55 -90 53 -90 -15 l0 -55 -450 0 c-506 0
-510 1 -552 69 l-23 36 -5 680 c-4 495 -8 687 -17 707 l-12 26 67 -31 c85 -40
161 -45 640 -46 l352 -1 0 -55 c0 -68 9 -70 90 -15 85 58 87 58 95 13 14 -87
107 -205 220 -280 219 -146 503 -230 862 -253 439 -29 855 51 1138 218 144 84
247 199 276 307 54 198 -82 389 -376 530 -150 72 -337 124 -538 151 -146 20
-484 23 -632 5 -292 -34 -570 -130 -752 -260 -105 -74 -182 -177 -198 -265 -9
-43 -11 -43 -95 14 -81 55 -90 53 -90 -16 l0 -55 -448 3 -447 3 -95 47 -95 46
50 1 c107 3 178 64 195 167 6 34 10 381 10 818 0 745 0 761 20 802 30 61 68
76 199 78 58 0 310 0 559 -1 l452 -3 0 -30 c0 -19 -8 -37 -22 -48 -55 -43
-135 -132 -159 -178 -95 -175 -33 -365 164 -505 182 -130 460 -226 752 -260
146 -17 485 -15 632 5 200 27 388 79 538 151 177 85 293 184 351 300 56 113
49 214 -23 333 -87 142 -309 275 -583 350 -157 43 -265 60 -449 72 -172 11
-190 11 -371 -1z m500 -354 c0 -34 1 -35 38 -35 51 0 62 -14 62 -82 0 -51 -2
-58 -20 -58 -18 0 -20 7 -20 54 0 38 -4 56 -15 60 -25 9 -45 -22 -45 -70 0
-37 -3 -44 -20 -44 -19 0 -20 7 -20 105 0 98 1 105 20 105 16 0 20 -7 20 -35z
m-909 -52 c12 -38 24 -61 27 -53 27 85 45 120 63 120 10 0 19 -3 19 -6 0 -4
-15 -47 -32 -95 -27 -74 -37 -89 -54 -89 -18 0 -27 15 -53 90 -17 49 -31 91
-31 95 0 3 9 5 19 5 15 0 25 -15 42 -67z m159 52 c0 -8 -9 -15 -20 -15 -11 0
-20 7 -20 15 0 8 9 15 20 15 11 0 20 -7 20 -15z m660 -20 c0 -8 9 -15 20 -15
11 0 20 -4 20 -10 0 -5 -9 -10 -21 -10 -18 0 -20 -5 -17 -47 2 -39 6 -47 21
-45 10 2 17 -3 17 -13 0 -10 -10 -15 -34 -15 -39 0 -46 12 -46 75 0 24 -5 45
-12 47 -7 3 -5 12 8 26 21 25 44 29 44 7z m-660 -85 c0 -63 -2 -70 -20 -70
-18 0 -20 7 -20 70 0 63 2 70 20 70 18 0 20 -7 20 -70z m142 53 c17 -15 18
-15 18 0 0 10 8 17 19 17 14 0 21 -10 25 -35 8 -41 21 -38 31 5 5 23 12 30 30
30 20 0 26 -8 36 -42 l12 -43 11 40 c8 29 18 41 33 43 l21 3 -21 -70 c-17 -60
-24 -71 -42 -71 -17 0 -25 9 -35 43 l-13 42 -14 -42 c-12 -34 -20 -43 -38 -43
-19 0 -25 8 -36 53 -9 36 -14 45 -17 30 -3 -20 -9 -23 -53 -23 -27 0 -49 -4
-49 -10 0 -16 34 -28 63 -23 20 4 27 1 27 -11 0 -13 -11 -16 -49 -16 -40 0
-53 4 -65 22 -37 52 -8 118 51 118 20 0 45 -7 55 -17z m432 1 c32 -32 28 -92
-8 -116 -20 -14 -79 -8 -98 9 -23 20 -24 80 -1 105 20 23 85 24 107 2z m418
-1 c10 -9 18 -27 18 -40 0 -21 -4 -23 -50 -23 -27 0 -50 -4 -50 -10 0 -16 34
-28 63 -23 20 4 27 1 27 -11 0 -13 -11 -16 -49 -16 -40 0 -53 4 -65 22 -37 52
-8 118 51 118 20 0 45 -7 55 -17z m138 2 c0 -8 -12 -15 -27 -17 -26 -3 -28 -7
-31 -55 -3 -45 -6 -53 -23 -53 -17 0 -19 7 -19 69 l0 68 50 2 c37 0 50 -3 50
-14z m-1045 -355 c0 -11 -10 -14 -41 -12 -48 4 -68 -14 -68 -63 0 -48 19 -65
71 -65 31 0 43 -4 41 -12 -5 -15 -69 -23 -104 -14 -56 14 -70 130 -21 169 28
22 122 20 122 -3z m500 5 c0 -5 -10 -11 -22 -13 -16 -2 -23 2 -23 13 0 11 7
15 23 13 12 -2 22 -7 22 -13z m-361 -51 c32 -32 28 -92 -8 -116 -20 -14 -79
-8 -98 9 -23 20 -24 80 -1 105 20 23 85 24 107 2z m88 -41 c2 -31 8 -58 13
-60 22 -7 38 18 43 66 3 34 9 51 18 51 11 0 14 -17 14 -70 l0 -70 -53 0 c-29
0 -58 5 -65 12 -7 7 -12 38 -12 70 0 51 2 58 20 58 16 0 19 -8 22 -57z m218
42 c0 -8 -8 -15 -18 -15 -29 0 -42 -21 -42 -67 0 -36 -3 -43 -20 -43 -18 0
-20 7 -20 70 l0 70 50 0 c38 0 50 -4 50 -15z m50 -55 c0 -63 -2 -70 -20 -70
-18 0 -20 7 -20 70 0 63 2 70 20 70 18 0 20 -7 20 -70z m142 53 c10 -9 18 -27
18 -40 0 -21 -4 -23 -50 -23 -27 0 -50 -4 -50 -10 0 -16 34 -28 63 -23 20 4
27 1 27 -11 0 -12 -10 -16 -45 -16 -61 0 -90 28 -81 79 3 20 13 42 23 48 24
18 73 16 95 -4z m138 2 c0 -8 -8 -15 -18 -15 -29 0 -42 -21 -42 -67 0 -36 -3
-43 -20 -43 -18 0 -20 7 -20 70 l0 70 50 0 c38 0 50 -4 50 -15z m117 3 c-2 -7
-17 -13 -33 -13 -39 0 -40 -17 -1 -35 42 -20 51 -66 14 -75 -36 -10 -90 -2
-95 13 -3 10 5 13 33 10 48 -4 56 15 15 32 -37 15 -52 38 -39 62 7 14 22 18
60 18 36 0 49 -4 46 -12z m-847 -1183 l0 -105 -60 0 c-68 0 -80 12 -80 79 0
45 18 61 69 61 29 0 31 3 31 35 0 28 4 35 20 35 19 0 20 -7 20 -105z m790 70
c0 -34 1 -35 40 -35 48 0 60 -18 60 -89 0 -44 -3 -51 -20 -51 -17 0 -20 7 -20
49 0 31 -5 53 -15 61 -26 21 -45 -5 -45 -61 0 -42 -3 -49 -20 -49 -19 0 -20 7
-20 105 0 98 1 105 20 105 16 0 20 -7 20 -35z m-1250 -46 c0 -75 12 -99 49
-99 35 0 41 13 41 96 0 57 2 64 20 64 18 0 20 -7 20 -75 0 -93 -16 -115 -84
-115 -65 0 -76 16 -76 111 0 64 3 79 15 79 12 0 15 -13 15 -61z m680 26 c0 -8
9 -15 20 -15 11 0 20 -4 20 -10 0 -5 -9 -10 -21 -10 -18 0 -20 -5 -17 -47 2
-39 6 -47 21 -45 10 2 17 -3 17 -13 0 -13 -8 -16 -37 -13 l-38 3 -3 55 c-2 30
-9 58 -15 63 -9 7 -9 10 1 14 6 2 12 11 12 19 0 8 9 14 20 14 11 0 20 -7 20
-15z m470 0 c0 -9 9 -15 25 -15 14 0 25 -4 25 -10 0 -5 -11 -10 -25 -10 -22 0
-25 -4 -25 -38 0 -41 15 -63 36 -55 9 3 14 -1 14 -12 0 -13 -8 -16 -37 -13
l-38 3 -3 55 c-2 30 -8 57 -14 61 -6 4 -5 14 3 28 16 24 39 28 39 6z m-866
-31 c21 -20 21 -88 0 -108 -8 -9 -31 -16 -50 -16 -31 0 -34 -2 -34 -30 0 -23
-4 -30 -20 -30 -19 0 -20 7 -20 99 l0 98 54 2 c38 0 60 -4 70 -15z m316 -3 c5
-11 10 -42 10 -70 l0 -51 -60 0 c-47 0 -61 4 -69 18 -16 30 13 62 55 62 24 0
34 5 34 15 0 16 -8 18 -52 15 -27 -1 -36 9 -21 23 3 4 26 7 49 7 33 0 46 -5
54 -19z m248 7 c7 -7 12 -25 12 -40 0 -27 -2 -28 -45 -28 -33 0 -45 -4 -45
-15 0 -15 13 -19 63 -15 19 1 27 -3 27 -14 0 -23 -87 -22 -112 1 -23 20 -24
85 -2 107 18 19 85 21 102 4z m224 -5 c23 -20 24 -80 1 -105 -19 -22 -95 -25
-112 -5 -21 26 -24 75 -7 102 13 20 25 25 58 25 25 0 49 -7 60 -17z m416 5 c7
-7 12 -25 12 -40 0 -27 -2 -28 -45 -28 -33 0 -45 -4 -45 -15 0 -15 13 -19 63
-15 19 1 27 -3 27 -14 0 -12 -11 -16 -49 -16 -61 0 -81 17 -81 70 0 22 7 45
16 54 18 19 85 21 102 4z m136 -3 c-4 -8 -14 -15 -25 -15 -24 0 -39 -29 -39
-74 0 -25 -4 -36 -15 -36 -12 0 -15 14 -15 69 l0 68 50 2 c40 0 48 -2 44 -14z
m-1206 -352 c-3 -14 -11 -17 -41 -15 -21 2 -44 -2 -52 -8 -23 -19 -29 -68 -11
-95 14 -21 25 -25 62 -25 32 0 44 -4 42 -12 -5 -15 -69 -22 -105 -13 -54 13
-68 121 -21 165 30 27 131 30 126 3z m492 2 c0 -8 -9 -15 -20 -15 -11 0 -20 7
-20 15 0 8 9 15 20 15 11 0 20 -7 20 -15z m-356 -51 c32 -32 28 -92 -8 -116
-20 -14 -79 -8 -98 9 -23 20 -24 80 -1 105 20 23 85 24 107 2z m88 -41 c2 -31
8 -58 13 -60 22 -7 38 18 43 66 3 34 9 51 18 51 11 0 14 -17 14 -70 l0 -70
-53 0 c-29 0 -58 5 -65 12 -7 7 -12 38 -12 70 0 51 2 58 20 58 16 0 19 -8 22
-57z m218 42 c0 -8 -9 -15 -20 -15 -25 0 -40 -29 -40 -74 0 -29 -4 -36 -20
-36 -18 0 -20 7 -20 70 l0 70 50 0 c38 0 50 -4 50 -15z m50 -55 c0 -63 -2 -70
-20 -70 -18 0 -20 7 -20 70 0 63 2 70 20 70 18 0 20 -7 20 -70z m142 53 c10
-9 18 -26 18 -39 0 -21 -5 -23 -52 -26 -49 -3 -51 -4 -34 -20 12 -12 26 -16
46 -11 23 4 30 2 30 -11 0 -12 -10 -16 -45 -16 -60 0 -90 28 -82 77 3 19 11
41 18 49 16 19 78 18 101 -3z m138 2 c0 -9 -9 -15 -24 -15 -28 0 -36 -16 -36
-71 0 -32 -3 -39 -20 -39 -18 0 -20 7 -20 70 l0 70 50 0 c38 0 50 -4 50 -15z
m120 -1 c0 -13 -7 -15 -35 -11 -49 8 -53 -9 -8 -30 32 -15 38 -23 38 -48 0
-30 -1 -30 -54 -30 -36 0 -56 4 -59 13 -3 10 6 12 33 10 47 -4 56 15 15 32
-37 15 -52 38 -39 62 13 25 109 26 109 2z m-910 -1099 c0 -98 -1 -105 -20
-105 -19 0 -20 7 -20 105 0 98 1 105 20 105 19 0 20 -7 20 -105z m792 70 c-4
-35 -4 -35 35 -35 52 0 63 -14 63 -82 0 -51 -2 -58 -20 -58 -16 0 -19 8 -22
57 -2 31 -7 58 -13 60 -22 7 -38 -18 -43 -66 -3 -34 -9 -51 -18 -51 -11 0 -14
23 -14 105 0 94 2 105 18 105 15 0 17 -6 14 -35z m-1027 -10 c19 -18 25 -35
25 -70 0 -69 -30 -95 -110 -95 l-60 0 0 95 0 95 60 0 c51 0 65 -4 85 -25z
m455 -10 c0 -8 9 -15 20 -15 11 0 20 -4 20 -10 0 -5 -9 -10 -21 -10 -18 0 -20
-5 -17 -47 2 -39 6 -48 21 -47 9 1 17 -4 17 -12 0 -17 -51 -19 -68 -2 -7 7
-12 33 -12 59 0 28 -5 49 -12 51 -8 3 -5 11 8 25 23 25 44 29 44 8z m480 0 c0
-8 9 -15 20 -15 11 0 20 -4 20 -10 0 -5 -9 -10 -21 -10 -18 0 -20 -5 -17 -47
2 -39 6 -47 21 -45 10 2 17 -3 17 -13 0 -10 -10 -15 -34 -15 -39 0 -46 12 -46
75 0 24 -5 45 -12 47 -7 3 -5 12 8 26 21 25 44 29 44 7z m-779 -25 c12 -7 19
-21 19 -40 0 -29 -2 -30 -45 -30 -44 0 -58 -11 -33 -26 7 -4 27 -7 45 -6 24 2
33 -2 33 -13 0 -22 -87 -21 -112 2 -23 20 -24 80 -1 105 18 20 64 24 94 8z
m223 -6 c9 -8 16 -26 16 -39 0 -22 -5 -24 -52 -27 -49 -3 -51 -4 -34 -20 12
-12 26 -16 46 -11 23 4 30 2 30 -11 0 -12 -10 -16 -45 -16 -60 0 -90 28 -82
77 3 19 11 41 18 49 16 19 84 18 103 -2z m248 -1 c10 -9 18 -27 18 -40 0 -21
-4 -23 -50 -23 -27 0 -50 -4 -50 -10 0 -16 34 -28 63 -23 20 4 27 1 27 -11 0
-13 -11 -16 -49 -16 -40 0 -53 4 -65 22 -37 52 -8 118 51 118 20 0 45 -7 55
-17z m232 -5 c9 -12 16 -34 16 -48 0 -46 -26 -70 -75 -70 -49 0 -75 24 -75 70
0 46 26 70 75 70 34 0 47 -5 59 -22z m408 5 c10 -9 18 -26 18 -39 0 -21 -5
-23 -52 -26 -49 -3 -51 -4 -34 -20 12 -12 26 -16 46 -11 23 4 30 2 30 -11 0
-25 -84 -22 -110 4 -24 24 -26 67 -4 98 19 27 78 30 106 5z m138 2 c0 -8 -8
-15 -18 -15 -29 0 -42 -21 -42 -67 0 -36 -3 -43 -20 -43 -18 0 -20 7 -20 70
l0 70 50 0 c38 0 50 -4 50 -15z m-1155 -355 c0 -11 -10 -14 -41 -12 -48 4 -68
-14 -68 -63 0 -48 19 -65 71 -65 31 0 43 -4 41 -12 -5 -15 -69 -23 -104 -14
-56 14 -70 130 -21 169 28 22 122 20 122 -3z m500 5 c0 -5 -10 -11 -22 -13
-16 -2 -23 2 -23 13 0 11 7 15 23 13 12 -2 22 -7 22 -13z m-361 -51 c32 -32
28 -92 -8 -116 -20 -14 -79 -8 -98 9 -23 20 -24 80 -1 105 20 23 85 24 107 2z
m88 -41 c2 -31 8 -58 13 -60 22 -7 38 18 43 66 3 34 9 51 18 51 11 0 14 -17
14 -70 l0 -70 -53 0 c-29 0 -58 5 -65 12 -7 7 -12 38 -12 70 0 51 2 58 20 58
16 0 19 -8 22 -57z m218 42 c0 -8 -8 -15 -18 -15 -29 0 -42 -21 -42 -67 0 -36
-3 -43 -20 -43 -18 0 -20 7 -20 70 l0 70 50 0 c38 0 50 -4 50 -15z m50 -55 c0
-63 -2 -70 -20 -70 -18 0 -20 7 -20 70 0 63 2 70 20 70 18 0 20 -7 20 -70z
m142 53 c10 -9 18 -27 18 -40 0 -21 -4 -23 -50 -23 -27 0 -50 -4 -50 -10 0
-16 34 -28 63 -23 20 4 27 1 27 -11 0 -12 -10 -16 -45 -16 -61 0 -90 28 -81
79 3 20 13 42 23 48 24 18 73 16 95 -4z m138 2 c0 -8 -8 -15 -18 -15 -29 0
-42 -21 -42 -67 0 -36 -3 -43 -20 -43 -18 0 -20 7 -20 70 l0 70 50 0 c38 0 50
-4 50 -15z m117 3 c-2 -7 -17 -13 -33 -13 -39 0 -40 -17 -1 -35 42 -20 51 -66
14 -75 -36 -10 -90 -2 -95 13 -3 10 5 13 33 10 48 -4 56 15 15 32 -37 15 -52
38 -39 62 7 14 22 18 60 18 36 0 49 -4 46 -12z"/>
<path d="M7952 14228 c-19 -19 -14 -28 18 -28 17 0 30 4 30 8 0 9 -21 32 -30
32 -3 0 -11 -5 -18 -12z"/>
<path d="M8382 14228 c-18 -18 -15 -66 6 -77 23 -12 39 -2 47 30 4 18 1 31
-10 43 -20 19 -27 20 -43 4z"/>
<path d="M8807 14229 c-26 -15 -20 -29 13 -29 32 0 38 11 17 28 -8 7 -18 7
-30 1z"/>
<path d="M8037 13828 c-21 -11 -23 -61 -3 -77 19 -16 43 -4 50 24 11 44 -14
72 -47 53z"/>
<path d="M8535 13823 c-18 -17 -18 -18 9 -21 35 -4 44 4 24 24 -14 14 -17 14
-33 -3z"/>
<path d="M7922 12668 c-7 -7 -12 -24 -12 -38 0 -35 18 -52 42 -39 11 6 18 21
18 39 0 34 -29 57 -48 38z"/>
<path d="M7762 12668 c-31 -31 0 -105 33 -78 25 21 14 90 -15 90 -3 0 -11 -5
-18 -12z"/>
<path d="M8074 12609 c-11 -18 13 -34 31 -19 8 7 15 16 15 21 0 13 -38 11 -46
-2z"/>
<path d="M8331 12667 c-18 -18 -13 -27 14 -27 15 0 25 6 25 14 0 19 -25 27
-39 13z"/>
<path d="M8546 12664 c-33 -33 -4 -94 35 -74 12 7 19 21 19 40 0 38 -31 57
-54 34z"/>
<path d="M8971 12667 c-18 -18 -13 -27 14 -27 15 0 25 6 25 14 0 19 -25 27
-39 13z"/>
<path d="M8037 12268 c-21 -11 -23 -61 -3 -77 19 -16 43 -4 50 24 11 44 -14
72 -47 53z"/>
<path d="M8535 12263 c-18 -17 -18 -18 9 -21 35 -4 44 4 24 24 -14 14 -17 14
-33 -3z"/>
<path d="M7610 11175 l0 -75 28 6 c15 4 35 14 45 22 17 15 23 67 9 89 -7 12
-54 33 -73 33 -5 0 -9 -34 -9 -75z"/>
<path d="M7811 11187 c-18 -18 -13 -27 14 -27 15 0 25 6 25 14 0 19 -25 27
-39 13z"/>
<path d="M8025 11183 c-18 -17 -18 -18 9 -21 35 -4 44 4 24 24 -14 14 -17 14
-33 -3z"/>
<path d="M8272 11188 c-19 -19 -14 -28 18 -28 17 0 30 4 30 8 0 9 -21 32 -30
32 -3 0 -11 -5 -18 -12z"/>
<path d="M8497 11189 c-22 -13 -22 -65 0 -78 27 -14 53 5 53 39 0 34 -26 53
-53 39z"/>
<path d="M8915 11183 c-18 -17 -18 -18 9 -21 35 -4 44 4 24 24 -14 14 -17 14
-33 -3z"/>
<path d="M8037 10788 c-21 -11 -23 -61 -3 -77 19 -16 43 -4 50 24 11 44 -14
72 -47 53z"/>
<path d="M8535 10783 c-18 -17 -18 -18 9 -21 35 -4 44 4 24 24 -14 14 -17 14
-33 -3z"/>
<path d="M3874 13336 c-63 -28 -91 -98 -63 -158 36 -77 182 -93 249 -27 55 55
35 145 -40 184 -36 18 -105 19 -146 1z"/>
<path d="M3690 13057 c-25 -13 -55 -38 -67 -57 -22 -32 -23 -41 -23 -255 0
-202 2 -223 18 -238 25 -23 68 -21 92 3 19 19 20 33 20 201 0 140 3 180 13
177 9 -4 13 -112 14 -489 3 -479 3 -484 24 -501 29 -25 90 -23 123 3 l26 20 0
285 c0 246 2 284 15 284 13 0 15 -38 15 -282 0 -156 4 -288 8 -294 24 -36 106
-45 142 -16 l22 18 2 484 c1 333 5 485 12 487 7 2 13 -58 17 -184 6 -161 9
-190 24 -200 23 -17 54 -16 81 3 22 15 22 19 22 236 0 249 -4 264 -78 310 -35
22 -48 23 -257 26 -215 3 -221 3 -265 -21z"/>
<path d="M16645 12229 c-458 -34 -864 -193 -985 -387 -73 -117 -54 -258 49
-361 163 -163 483 -279 888 -322 151 -16 533 -7 683 16 694 105 1037 441 749
734 -230 234 -793 364 -1384 320z m-175 -494 c0 -11 -12 -15 -49 -15 -52 0
-65 -9 -76 -53 -11 -42 17 -77 60 -77 28 0 35 4 35 20 0 13 -7 20 -20 20 -11
0 -20 7 -20 15 0 11 11 15 41 15 l40 0 -3 -47 -3 -48 -55 -3 c-67 -4 -96 11
-111 55 -13 41 -5 80 23 111 18 18 32 22 80 22 45 0 58 -3 58 -15z m220 -20
c0 -9 9 -15 25 -15 14 0 25 -4 25 -10 0 -5 -11 -10 -25 -10 -22 0 -25 -4 -25
-37 0 -43 11 -65 30 -61 7 2 15 -3 17 -10 4 -10 -5 -13 -33 -10 l-39 3 -3 55
c-2 30 -9 58 -15 63 -9 7 -9 10 1 14 6 2 12 11 12 19 0 8 7 14 15 14 8 0 15
-7 15 -15z m-78 -32 c10 -9 18 -26 18 -39 0 -21 -5 -23 -52 -26 -49 -3 -51 -4
-34 -20 12 -12 26 -16 46 -11 23 4 30 2 30 -11 0 -12 -10 -16 -45 -16 -60 0
-90 28 -82 77 3 19 11 41 18 49 16 19 78 18 101 -3z m338 -9 c6 -14 10 -45 10
-70 0 -37 -3 -44 -20 -44 -17 0 -20 7 -20 48 0 55 -14 76 -42 61 -14 -7 -18
-21 -18 -59 0 -43 -3 -50 -20 -50 -18 0 -20 7 -20 69 l0 68 60 2 c56 1 61 -1
70 -25z m148 14 c7 -7 12 -25 12 -40 0 -27 -2 -28 -45 -28 -44 0 -58 -11 -33
-26 7 -4 27 -7 45 -6 24 2 33 -2 33 -13 0 -22 -87 -21 -112 2 -23 20 -24 85
-2 107 18 19 85 21 102 4z m64 -29 l14 -42 13 42 c10 34 16 42 33 39 14 -2 26
-15 33 -38 l13 -35 11 28 c6 16 11 33 11 38 0 5 9 9 20 9 11 0 20 -5 20 -12 0
-9 3 -9 12 0 7 7 31 12 55 12 33 0 43 -4 43 -16 0 -13 -7 -15 -30 -11 -44 9
-46 -10 -3 -30 70 -33 52 -83 -28 -83 -38 0 -49 4 -49 15 0 12 9 15 36 13 49
-4 55 17 10 32 -21 7 -38 20 -42 33 -6 18 -10 13 -24 -33 -14 -47 -19 -55 -40
-55 -19 0 -26 7 -34 33 -5 17 -12 32 -16 32 -4 0 -11 -15 -16 -32 -7 -22 -17
-34 -31 -36 -19 -3 -24 5 -39 55 -9 32 -19 64 -21 71 -3 7 3 12 15 12 15 0 24
-11 34 -41z"/>
<path d="M16545 11663 c-18 -17 -18 -18 9 -21 35 -4 44 4 24 24 -14 14 -17 14
-33 -3z"/>
<path d="M17031 11667 c-18 -18 -13 -27 14 -27 15 0 25 6 25 14 0 19 -25 27
-39 13z"/>
<path d="M2770 11315 l0 -115 66 0 c48 0 65 3 62 13 -3 6 -25 13 -51 15 -46 3
-47 4 -47 38 0 34 0 34 45 34 33 0 45 4 45 15 0 11 -12 15 -45 15 -45 0 -45 0
-45 34 0 34 1 35 47 38 26 2 48 9 51 16 3 9 -14 12 -62 12 l-66 0 0 -115z"/>
<path d="M3115 11421 c-7 -12 12 -24 25 -16 11 7 4 25 -10 25 -5 0 -11 -4 -15
-9z"/>
<path d="M3467 11424 c-13 -13 -7 -24 14 -24 11 0 19 5 17 12 -5 14 -22 21
-31 12z"/>
<path d="M4054 11396 c-28 -28 -34 -42 -34 -75 0 -80 47 -126 121 -119 50 5
50 28 -1 28 -56 0 -78 14 -86 55 -14 77 15 115 87 115 48 0 65 12 33 24 -42
16 -86 6 -120 -28z"/>
<path d="M4752 11414 c4 -21 22 -23 26 -1 2 10 -3 17 -13 17 -10 0 -15 -6 -13
-16z"/>
<path d="M3360 11398 c0 -6 -7 -20 -17 -30 -9 -11 -11 -18 -5 -18 8 0 12 -21
12 -59 0 -66 15 -91 56 -91 31 0 31 16 -1 24 -23 6 -25 11 -25 66 0 57 1 60
25 60 14 0 25 5 25 10 0 6 -11 10 -25 10 -18 0 -25 5 -25 20 0 11 -4 20 -10
20 -5 0 -10 -5 -10 -12z"/>
<path d="M2958 11328 l29 -43 -29 -40 c-19 -26 -25 -41 -17 -44 11 -3 26 11
50 49 7 12 14 9 36 -18 42 -49 60 -40 23 12 l-32 44 26 35 c29 38 32 47 13 47
-7 0 -21 -14 -31 -32 l-19 -31 -26 32 c-39 47 -57 39 -23 -11z"/>
<path d="M3120 11285 c0 -50 4 -85 10 -85 6 0 10 35 10 85 0 50 -4 85 -10 85
-6 0 -10 -35 -10 -85z"/>
<path d="M3208 11359 c-10 -5 -18 -21 -18 -35 0 -20 9 -29 45 -44 25 -11 45
-26 45 -34 0 -19 -31 -29 -65 -20 -21 5 -27 4 -23 -7 7 -22 71 -23 98 -1 32
26 20 53 -35 80 -25 12 -45 26 -45 31 0 15 35 23 65 15 21 -5 27 -4 23 7 -6
17 -67 23 -90 8z"/>
<path d="M3470 11285 c0 -50 4 -85 10 -85 6 0 10 35 10 85 0 50 -4 85 -10 85
-6 0 -10 -35 -10 -85z"/>
<path d="M3550 11285 c0 -98 15 -115 22 -24 3 45 10 65 23 75 45 33 68 10 73
-70 6 -87 22 -85 22 3 0 50 -4 74 -16 85 -19 19 -65 21 -83 4 -11 -10 -14 -10
-18 0 -13 35 -23 3 -23 -73z"/>
<path d="M3760 11348 c-27 -30 -28 -100 0 -128 22 -22 69 -27 88 -8 9 9 12 5
12 -20 0 -39 -27 -55 -75 -46 -21 4 -35 2 -35 -4 0 -28 92 -30 120 -2 17 17
20 33 20 125 0 93 -9 130 -23 93 -4 -10 -7 -10 -18 0 -21 19 -66 14 -89 -10z
m84 -14 c9 -9 16 -32 16 -55 0 -32 -5 -42 -24 -50 -40 -19 -66 3 -66 56 0 59
39 85 74 49z"/>
<path d="M4246 11349 c-36 -28 -37 -89 -1 -124 63 -64 154 3 124 92 -18 55
-74 70 -123 32z m84 -19 c11 -11 20 -31 20 -45 0 -27 -32 -65 -54 -65 -26 0
-46 30 -46 70 0 57 42 78 80 40z"/>
<path d="M4420 11302 c0 -54 4 -72 18 -85 21 -19 54 -22 83 -7 13 7 19 7 19 0
0 -5 6 -10 13 -10 9 0 11 22 9 85 -4 93 -22 118 -22 30 0 -42 -5 -60 -20 -75
-43 -43 -70 -18 -70 67 0 49 -3 63 -15 63 -12 0 -15 -14 -15 -68z"/>
<path d="M4620 11285 c0 -69 3 -85 15 -85 12 0 15 13 15 58 0 63 11 82 47 82
14 0 23 6 23 15 0 18 -23 19 -53 4 -16 -9 -22 -9 -25 0 -2 6 -8 11 -13 11 -5
0 -9 -38 -9 -85z"/>
<path d="M4750 11285 c0 -69 3 -85 15 -85 12 0 15 16 15 85 0 69 -3 85 -15 85
-12 0 -15 -16 -15 -85z"/>
<path d="M4852 11347 c-33 -35 -30 -99 5 -127 30 -24 93 -24 101 -1 3 10 -2
12 -21 7 -36 -9 -77 9 -77 34 0 18 6 20 55 20 52 0 55 1 55 25 0 59 -77 86
-118 42z m76 -9 c24 -24 13 -38 -28 -38 -43 0 -55 20 -22 39 23 14 36 13 50
-1z"/>
<path d="M5020 11285 c0 -50 4 -85 10 -85 6 0 10 20 10 44 0 65 14 96 45 96
16 0 25 6 25 15 0 20 -29 19 -52 -2 -17 -15 -18 -15 -18 0 0 10 -4 17 -10 17
-6 0 -10 -35 -10 -85z"/>
<path d="M3911 7323 c1 -2034 5 -4173 8 -4753 7 -1198 0 -1105 90 -1158 l46
-27 1423 -3 1422 -2 0 -55 c0 -68 9 -70 90 -15 84 57 86 57 95 14 16 -88 93
-191 198 -265 182 -130 460 -226 752 -260 146 -17 485 -15 632 5 200 27 388
79 538 151 113 54 184 102 258 174 63 61 127 173 127 222 l0 29 271 0 c252 0
270 1 267 18 -4 21 17 19 -284 21 l-251 1 -7 41 c-13 80 -70 170 -152 240
-264 225 -751 343 -1272 309 -355 -24 -639 -107 -857 -253 -113 -75 -206 -193
-220 -280 -8 -45 -10 -45 -95 13 -81 55 -90 53 -90 -15 l0 -55 -1405 0 c-1551
0 -1456 -4 -1506 63 l-24 32 -3 763 -2 763 47 -28 48 -28 1423 -3 1422 -2 0
-55 c0 -68 9 -70 90 -15 84 57 86 57 95 14 16 -88 93 -191 198 -265 182 -130
460 -226 752 -260 146 -17 485 -15 632 5 200 27 388 79 538 151 177 85 293
184 351 300 56 113 49 214 -23 333 -108 177 -419 334 -787 397 -323 55 -749
34 -1049 -51 -334 -96 -583 -281 -612 -457 -8 -45 -10 -45 -95 13 -81 55 -90
53 -90 -15 l0 -55 -1405 0 c-1551 0 -1456 -4 -1506 63 l-24 32 -3 873 -2 873
42 -28 42 -28 1488 -3 1488 -2 0 -55 c0 -62 14 -71 60 -35 35 27 43 25 26 -7
-27 -55 -38 -138 -26 -200 72 -352 701 -598 1413 -553 191 12 298 29 457 72
338 92 581 266 631 453 53 197 -84 390 -376 530 -150 72 -338 124 -538 151
-147 20 -486 22 -632 5 -291 -34 -562 -127 -746 -256 -43 -30 -81 -55 -84 -55
-3 0 -39 23 -80 50 -97 65 -105 65 -105 -5 l0 -55 -1272 -2 c-1864 -4 -1667
-6 -1712 18 -80 41 -76 1 -74 788 l3 698 25 -20 c14 -11 43 -25 65 -31 28 -8
465 -11 1503 -11 l1462 0 0 -55 c0 -62 14 -71 60 -35 35 27 43 25 26 -7 -7
-16 -19 -54 -26 -85 -28 -139 48 -289 203 -399 182 -130 460 -226 752 -260
146 -17 485 -15 632 5 200 27 388 79 538 151 177 85 293 184 351 300 56 113
49 214 -23 333 -108 177 -419 334 -787 397 -386 66 -891 23 -1198 -102 -120
-48 -269 -134 -316 -180 -20 -20 -27 -17 -107 37 -97 65 -105 65 -105 -5 l0
-55 -1465 0 c-1618 0 -1516 -4 -1566 63 l-24 32 -3 742 -2 742 56 -29 56 -30
1474 0 1474 0 0 -55 c0 -62 14 -71 60 -35 35 27 43 25 26 -7 -27 -55 -38 -138
-26 -200 72 -352 701 -598 1413 -553 191 12 298 29 457 72 338 92 581 266 631
453 53 197 -84 390 -376 530 -150 72 -338 124 -538 151 -147 20 -486 22 -632
5 -291 -34 -562 -127 -746 -256 -43 -30 -81 -55 -84 -55 -3 0 -39 23 -80 50
-97 65 -105 65 -105 -5 l0 -55 -1465 0 c-1648 0 -1523 -6 -1570 75 l-25 42 0
797 0 796 39 -25 c21 -14 53 -28 72 -30 41 -5 1630 -15 2402 -15 l547 0 0 -55
c0 -66 10 -69 77 -23 37 25 45 27 38 12 -34 -83 -46 -124 -55 -184 -26 -184
56 -387 215 -531 180 -163 397 -268 662 -319 398 -77 831 -27 1140 131 263
136 424 308 479 514 18 65 18 206 -1 274 -28 107 -108 234 -206 328 -103 97
-306 211 -474 266 -382 125 -881 106 -1245 -46 -148 -62 -259 -135 -376 -250
l-72 -69 -75 51 c-99 66 -107 66 -107 -4 l0 -55 -1002 1 c-552 1 -1220 4
-1485 8 -469 6 -482 7 -510 27 -64 48 -61 13 -69 752 -7 645 -8 672 -25 672
-18 0 -19 -105 -18 -3697z m4229 2242 l0 -105 -54 0 c-45 0 -58 4 -70 22 -9
12 -16 34 -16 48 0 44 26 70 71 70 38 0 39 1 39 35 0 24 5 35 15 35 12 0 15
-18 15 -105z m630 70 c0 -34 1 -35 38 -35 51 0 62 -14 62 -82 0 -51 -2 -58
-20 -58 -16 0 -19 8 -22 57 -2 31 -8 58 -14 60 -23 8 -44 -28 -44 -73 0 -37
-3 -44 -20 -44 -19 0 -20 7 -20 105 0 98 1 105 20 105 16 0 20 -7 20 -35z
m-1078 -62 l3 -78 35 0 35 0 3 78 c3 69 5 77 22 77 18 0 20 -7 20 -77 0 -96
-12 -113 -81 -113 -65 0 -79 21 -79 117 0 66 2 73 20 73 17 0 19 -8 22 -77z
m668 42 c0 -8 9 -15 20 -15 11 0 20 -4 20 -10 0 -5 -9 -10 -21 -10 -18 0 -20
-5 -17 -47 2 -39 6 -48 21 -47 9 1 17 -4 17 -12 0 -17 -51 -19 -68 -2 -7 7
-12 33 -12 59 0 28 -5 49 -12 51 -8 3 -5 11 8 25 23 25 44 29 44 8z m320 0 c0
-8 9 -15 20 -15 11 0 20 -4 20 -10 0 -5 -9 -10 -21 -10 -18 0 -20 -5 -17 -47
2 -39 6 -48 21 -47 9 1 17 -4 17 -12 0 -17 -51 -19 -68 -2 -7 7 -12 33 -12 59
0 27 -5 49 -12 51 -7 3 -5 12 8 26 21 25 44 29 44 7z m-704 -40 c11 -17 14
-35 10 -57 -9 -45 -24 -58 -67 -58 -37 0 -39 -2 -39 -30 0 -23 -4 -30 -20 -30
-19 0 -20 7 -20 100 l0 100 60 0 c53 0 61 -3 76 -25z m314 -1 c6 -14 10 -45
10 -70 l0 -44 -58 0 c-56 0 -82 11 -82 36 0 23 31 44 66 44 19 0 34 4 34 8 0
18 -25 31 -51 25 -16 -3 -29 -1 -29 4 0 18 13 23 57 23 37 0 45 -4 53 -26z
m242 9 c10 -9 18 -27 18 -40 0 -21 -4 -23 -50 -23 -27 0 -50 -4 -50 -10 0 -16
34 -28 63 -23 20 4 27 1 27 -11 0 -13 -11 -16 -49 -16 -40 0 -53 4 -65 22 -37
52 -8 118 51 118 20 0 45 -7 55 -17z m480 0 c10 -9 18 -27 18 -40 0 -21 -4
-23 -50 -23 -27 0 -50 -4 -50 -10 0 -16 34 -28 63 -23 20 4 27 1 27 -11 0 -13
-11 -16 -49 -16 -40 0 -53 4 -65 22 -37 52 -8 118 51 118 20 0 45 -7 55 -17z
m71 -289 c-3 -8 -12 -13 -19 -10 -8 3 -18 -3 -24 -14 -14 -26 -13 -30 10 -30
11 0 20 -4 20 -10 0 -5 -9 -10 -20 -10 -18 0 -20 -7 -20 -60 0 -47 -3 -60 -15
-60 -12 0 -15 13 -15 60 0 47 -3 60 -15 60 -8 0 -15 5 -15 10 0 6 7 10 15 10
8 0 15 9 15 19 0 40 11 51 51 51 31 0 37 -3 32 -16z m-1255 -66 c7 -6 12 -34
12 -69 0 -52 -2 -59 -20 -59 -18 0 -20 7 -20 56 0 52 -1 55 -22 52 -20 -3 -23
-10 -26 -55 -3 -45 -6 -53 -23 -53 -16 0 -19 7 -19 54 0 37 -4 56 -14 59 -23
9 -36 -15 -36 -65 0 -41 -3 -48 -20 -48 -18 0 -20 7 -20 70 l0 70 98 -1 c53
-1 103 -6 110 -11z m150 0 c7 -7 12 -38 12 -69 l0 -57 -62 1 c-58 2 -63 4 -66
25 -5 33 15 52 55 52 28 0 34 4 31 18 -3 11 -12 16 -28 14 -31 -3 -53 5 -45
18 9 14 88 13 103 -2z m172 -14 c6 -14 10 -45 10 -70 0 -37 -3 -44 -20 -44
-17 0 -20 7 -20 48 0 55 -14 76 -42 61 -14 -7 -18 -21 -18 -59 0 -43 -3 -50
-20 -50 -18 0 -20 7 -20 69 l0 68 60 2 c56 1 61 -1 70 -25z m150 0 c6 -14 10
-45 10 -70 l0 -44 -58 0 c-56 0 -82 11 -82 36 0 23 31 44 66 44 19 0 34 4 34
8 0 18 -25 31 -51 25 -16 -3 -29 -1 -29 4 0 18 13 23 57 23 37 0 45 -4 53 -26z
m170 -58 c0 -103 -9 -116 -81 -116 -38 0 -49 3 -49 16 0 12 7 15 27 11 29 -5
63 7 63 23 0 6 -18 10 -40 10 -44 0 -60 18 -60 70 0 58 14 70 80 70 l60 0 0
-84z m138 71 c6 -6 13 -24 17 -40 7 -27 7 -27 -44 -27 -49 0 -64 -10 -39 -26
7 -4 27 -7 45 -6 52 4 44 -25 -8 -30 -58 -5 -89 20 -89 72 0 22 7 45 16 54 19
19 87 21 102 3z m136 -2 c-4 -8 -14 -15 -25 -15 -24 0 -39 -29 -39 -74 0 -25
-4 -36 -15 -36 -12 0 -15 14 -15 69 l0 68 50 2 c40 0 48 -2 44 -14z m213 -20
c16 -33 16 -37 0 -70 -15 -32 -21 -35 -59 -35 -54 0 -78 22 -78 71 0 50 21 69
76 69 41 0 46 -3 61 -35z m-1197 -330 c0 -34 1 -35 40 -35 48 0 60 -18 60 -89
0 -44 -3 -51 -20 -51 -17 0 -20 7 -20 48 0 55 -14 76 -42 61 -14 -7 -18 -21
-18 -59 0 -43 -3 -50 -20 -50 -19 0 -20 7 -20 105 0 98 1 105 20 105 16 0 20
-7 20 -35z m1060 0 c0 -8 -9 -15 -20 -15 -11 0 -20 7 -20 15 0 8 9 15 20 15
11 0 20 -7 20 -15z m-1160 -20 c0 -9 9 -15 25 -15 14 0 25 -4 25 -10 0 -5 -11
-10 -25 -10 -22 0 -25 -4 -25 -38 0 -41 15 -63 36 -55 9 3 14 -1 14 -12 0 -13
-8 -16 -37 -13 l-38 3 -3 55 c-2 30 -9 58 -15 63 -9 7 -9 10 1 14 6 2 12 11
12 19 0 8 7 14 15 14 8 0 15 -7 15 -15z m-76 -31 c21 -20 20 -83 -1 -106 -20
-23 -80 -24 -105 -1 -23 20 -24 85 -2 107 9 9 32 16 54 16 22 0 45 -7 54 -16z
m414 3 c6 -6 13 -24 17 -40 7 -27 7 -27 -44 -27 -49 0 -64 -10 -39 -26 7 -4
27 -7 45 -6 24 2 33 -2 33 -13 0 -22 -87 -21 -112 2 -23 20 -24 80 -1 105 19
21 85 25 101 5z m136 -2 c-4 -8 -14 -15 -25 -15 -24 0 -39 -29 -39 -74 0 -25
-4 -36 -15 -36 -12 0 -15 14 -15 69 l0 68 50 2 c40 0 48 -2 44 -14z m194 3
c-3 -7 -20 -15 -39 -18 -29 -4 -35 -9 -37 -35 -4 -35 17 -54 54 -47 20 4 25 1
22 -9 -7 -21 -82 -24 -102 -4 -21 21 -21 83 1 107 19 22 108 27 101 6z m136
-4 c21 -20 20 -83 -1 -106 -20 -23 -80 -24 -105 -1 -23 20 -24 85 -2 107 9 9
32 16 54 16 22 0 45 -7 54 -16z m76 -32 c0 -55 14 -76 42 -61 14 7 18 21 18
59 0 43 3 50 20 50 18 0 20 -7 20 -70 l0 -70 -60 0 c-70 0 -80 11 -80 89 0 44
3 51 20 51 17 0 20 -7 20 -48z m230 33 c0 -8 -12 -15 -27 -17 -26 -3 -28 -7
-31 -55 -3 -45 -6 -53 -23 -53 -17 0 -19 7 -19 69 l0 68 50 2 c37 0 50 -3 50
-14z m50 -55 c0 -63 -2 -70 -20 -70 -18 0 -20 7 -20 70 0 63 2 70 20 70 18 0
20 -7 20 -70z m142 53 c10 -9 18 -27 18 -40 0 -21 -4 -23 -50 -23 -27 0 -50
-4 -50 -10 0 -16 34 -28 63 -23 20 4 27 1 27 -11 0 -13 -11 -16 -49 -16 -40 0
-53 4 -65 22 -37 52 -8 118 51 118 20 0 45 -7 55 -17z m248 0 c0 -12 -7 -14
-30 -10 -44 9 -46 -10 -3 -30 70 -33 52 -83 -28 -83 -38 0 -49 4 -49 15 0 12
9 15 36 13 51 -4 53 14 4 36 -22 9 -40 24 -40 32 0 11 -8 14 -27 12 -26 -3
-28 -7 -31 -55 -3 -45 -6 -53 -23 -53 -17 0 -19 7 -19 69 l0 68 105 1 c90 1
105 -1 105 -15z m-640 -1210 l0 -56 23 21 c13 12 34 22 47 22 l24 0 -29 -30
-28 -30 26 -37 c23 -32 25 -39 11 -41 -9 -2 -29 9 -45 24 l-29 28 0 -27 c0
-20 -5 -27 -20 -27 -19 0 -20 7 -20 105 0 98 1 105 20 105 18 0 20 -7 20 -57z
m-1096 -25 c12 -32 24 -58 27 -58 3 0 14 27 24 60 l18 61 44 -3 c24 -2 43 -7
44 -13 0 -14 -32 -19 -41 -6 -3 6 -20 -28 -37 -76 -26 -76 -33 -88 -53 -88
-20 0 -28 13 -56 90 -19 50 -34 91 -34 93 0 2 10 2 22 0 16 -2 27 -17 42 -60z
m737 52 c25 -14 26 -71 2 -93 -10 -8 -31 -17 -48 -19 -26 -3 -30 -8 -33 -35
-2 -25 -8 -33 -23 -33 -17 0 -19 8 -19 95 l0 95 51 0 c28 0 59 -5 70 -10z
m-581 -110 c0 -63 -2 -70 -20 -70 -18 0 -20 7 -20 70 0 63 2 70 20 70 18 0 20
-7 20 -70z m148 58 c7 -7 12 -25 12 -40 0 -27 -2 -28 -45 -28 -44 0 -58 -11
-33 -26 7 -4 27 -7 45 -6 24 2 33 -2 33 -13 0 -22 -87 -21 -112 2 -23 20 -24
85 -2 107 18 19 85 21 102 4z m64 -29 l14 -42 13 42 c10 34 16 42 33 39 14 -2
26 -15 33 -38 l13 -35 11 28 c6 16 11 33 11 38 0 5 9 9 20 9 24 0 24 0 2 -75
-16 -52 -22 -60 -42 -60 -19 0 -26 7 -34 33 -5 17 -12 32 -16 32 -4 0 -11 -15
-16 -32 -7 -22 -17 -34 -31 -36 -19 -3 -25 6 -42 63 -25 81 -25 75 -2 75 14 0
23 -12 33 -41z m528 15 c6 -14 10 -45 10 -70 l0 -44 -58 0 c-56 0 -82 11 -82
36 0 23 31 44 66 44 19 0 34 4 34 8 0 18 -25 31 -51 25 -16 -3 -29 -1 -29 4 0
18 13 23 57 23 37 0 45 -4 53 -26z m140 12 c0 -9 -12 -16 -32 -18 -28 -2 -34
-8 -36 -31 -4 -37 12 -55 43 -49 18 3 25 0 25 -12 0 -12 -10 -16 -39 -16 -50
0 -71 21 -71 70 0 22 7 45 16 54 20 21 94 22 94 2z m280 -12 c6 -14 10 -45 10
-70 l0 -44 -58 0 c-56 0 -82 11 -82 36 0 23 31 44 66 44 19 0 34 4 34 8 0 18
-25 31 -51 25 -16 -3 -29 -1 -29 4 0 18 13 23 57 23 37 0 45 -4 53 -26z m170
-58 c0 -103 -9 -116 -81 -116 -39 0 -49 3 -49 16 0 13 7 15 31 10 31 -6 59 6
59 25 0 5 -18 9 -40 9 -44 0 -60 18 -60 70 0 58 14 70 80 70 l60 0 0 -84z
m138 71 c6 -6 13 -24 17 -40 7 -27 7 -27 -44 -27 -49 0 -64 -10 -39 -26 7 -4
27 -7 45 -6 24 2 33 -2 33 -13 0 -22 -87 -21 -112 2 -23 20 -24 80 -1 105 19
21 85 25 101 5z m142 -3 c0 -13 -7 -15 -28 -11 -15 3 -34 2 -42 -3 -10 -6 -3
-13 29 -26 38 -15 42 -19 39 -48 -3 -30 -5 -31 -55 -34 -43 -2 -53 0 -53 13 0
12 8 15 35 13 45 -4 46 13 1 35 -27 13 -36 23 -36 41 0 29 11 34 68 35 32 1
42 -3 42 -15z m-600 -1529 c0 -59 7 -66 35 -35 10 11 27 20 38 20 19 0 18 -2
-7 -29 l-28 -29 28 -38 c28 -36 29 -37 32 -13 6 36 21 49 59 49 28 0 34 4 31
18 -3 13 -12 16 -36 14 -24 -2 -32 1 -32 12 0 20 79 23 98 4 7 -7 12 -38 12
-69 l0 -57 -89 0 c-84 -1 -91 1 -106 24 -20 31 -35 31 -35 -1 0 -16 -6 -25
-15 -25 -12 0 -15 18 -15 105 0 87 3 105 15 105 12 0 15 -13 15 -55z m-1210
25 c0 -5 -4 -10 -10 -10 -6 0 -10 -32 -10 -75 0 -43 4 -75 10 -75 6 0 10 -4
10 -10 0 -5 -18 -10 -40 -10 -22 0 -40 5 -40 10 0 6 5 10 10 10 6 0 10 32 10
75 0 43 -4 75 -10 75 -5 0 -10 5 -10 10 0 6 18 10 40 10 22 0 40 -4 40 -10z
m864 -6 c39 -38 7 -104 -51 -104 -31 0 -33 -2 -33 -35 0 -28 -4 -35 -20 -35
-19 0 -20 7 -20 95 l0 95 54 0 c36 0 60 -5 70 -16z m-254 -19 c0 -8 9 -15 20
-15 11 0 20 -4 20 -10 0 -5 -9 -10 -21 -10 -18 0 -20 -5 -17 -47 2 -39 6 -48
21 -47 9 1 17 -4 17 -12 0 -17 -51 -19 -68 -2 -7 7 -12 33 -12 59 0 44 -2 47
-22 42 -38 -10 -48 -24 -48 -69 0 -37 -3 -44 -20 -44 -18 0 -20 7 -20 70 l0
70 55 0 c40 0 57 4 61 15 4 8 12 15 20 15 8 0 14 -7 14 -15z m-460 -41 c6 -14
10 -45 10 -70 0 -37 -3 -44 -20 -44 -17 0 -20 7 -20 48 0 55 -14 76 -42 61
-14 -7 -18 -21 -18 -59 0 -43 -3 -50 -20 -50 -18 0 -20 7 -20 69 l0 68 60 2
c56 1 61 -1 70 -25z m137 14 c-2 -7 -18 -13 -35 -13 -40 0 -40 -16 1 -35 42
-20 51 -66 14 -75 -36 -10 -90 -2 -95 13 -3 10 5 13 33 10 47 -4 59 17 18 32
-39 15 -55 38 -42 61 7 15 21 19 60 19 36 0 49 -4 46 -12z m137 -4 c9 -8 16
-26 16 -39 0 -22 -5 -24 -50 -27 -40 -2 -48 -6 -41 -17 6 -9 24 -14 45 -13 26
1 36 -3 36 -13 0 -11 -12 -15 -45 -15 -60 0 -90 28 -82 77 3 19 11 41 18 49
16 19 84 18 103 -2z m584 4 c7 -7 12 -38 12 -69 l0 -57 -62 1 c-58 2 -63 4
-66 25 -5 33 15 52 55 52 28 0 34 4 31 18 -3 11 -12 16 -28 14 -31 -3 -53 5
-45 18 9 14 88 13 103 -2z m152 -3 c0 -10 -10 -15 -34 -15 -34 0 -46 -13 -46
-50 0 -24 17 -34 52 -32 19 2 28 -2 28 -13 0 -11 -11 -15 -44 -15 -50 0 -76
24 -76 70 0 46 26 70 76 70 32 0 44 -4 44 -15z m440 -73 c0 -55 -4 -92 -12
-100 -7 -7 -36 -12 -65 -12 -42 0 -53 3 -53 16 0 13 7 15 35 11 25 -4 40 -1
52 11 16 16 14 17 -25 20 -65 5 -94 66 -56 120 12 18 25 22 70 22 l54 0 0 -88z
m144 72 c9 -8 16 -26 16 -39 0 -22 -5 -24 -52 -27 -49 -3 -51 -4 -34 -20 12
-12 26 -16 46 -11 23 4 30 2 30 -11 0 -12 -10 -16 -45 -16 -60 0 -90 28 -82
77 3 19 11 41 18 49 16 19 84 18 103 -2z m143 4 c-2 -7 -18 -13 -35 -13 -40 0
-40 -16 1 -35 42 -20 51 -66 14 -75 -36 -10 -90 -2 -95 13 -3 10 5 13 33 10
47 -4 59 17 18 32 -39 15 -55 38 -42 61 7 15 21 19 60 19 36 0 49 -4 46 -12z
m-937 -1283 l0 -105 -54 0 c-45 0 -58 4 -70 22 -9 12 -16 34 -16 48 0 44 26
70 71 70 38 0 39 1 39 35 0 24 5 35 15 35 12 0 15 -18 15 -105z m-450 21 c0
-83 6 -96 41 -96 37 0 49 24 49 99 0 54 2 61 20 61 18 0 20 -7 20 -59 0 -62
-13 -110 -33 -123 -7 -4 -31 -8 -54 -8 -67 0 -83 23 -83 115 0 68 2 75 20 75
18 0 20 -7 20 -64z m670 29 c0 -9 9 -15 25 -15 14 0 25 -4 25 -10 0 -5 -11
-10 -25 -10 -22 0 -25 -4 -25 -39 0 -37 13 -59 35 -59 5 0 11 -6 13 -12 3 -7
-9 -10 -34 -8 l-39 3 -3 55 c-2 30 -8 57 -14 61 -6 4 -5 14 3 28 16 24 39 28
39 6z m-384 -40 c11 -17 14 -35 10 -57 -9 -45 -24 -58 -67 -58 -37 0 -39 -2
-39 -30 0 -23 -4 -30 -20 -30 -19 0 -20 7 -20 100 l0 100 60 0 c53 0 61 -3 76
-25z m314 -1 c6 -14 10 -45 10 -70 l0 -44 -58 0 c-56 0 -82 11 -82 36 0 23 31
44 66 44 19 0 34 4 34 8 0 18 -25 31 -51 25 -16 -3 -29 -1 -29 4 0 18 13 23
57 23 37 0 45 -4 53 -26z m242 9 c10 -9 18 -27 18 -40 0 -21 -4 -23 -50 -23
-27 0 -50 -4 -50 -10 0 -16 34 -28 63 -23 20 4 27 1 27 -11 0 -13 -11 -16 -49
-16 -40 0 -53 4 -65 22 -37 52 -8 118 51 118 20 0 45 -7 55 -17z m-532 -370
l0 -56 23 21 c13 12 34 22 47 22 l24 0 -29 -30 -28 -30 26 -37 c23 -32 25 -39
11 -41 -9 -2 -29 9 -45 24 l-29 28 0 -27 c0 -20 -5 -27 -20 -27 -19 0 -20 7
-20 105 0 98 1 105 20 105 18 0 20 -7 20 -57z m-350 21 c20 -23 16 -75 -5 -90
-10 -8 -31 -14 -47 -14 -25 0 -28 -3 -28 -35 0 -28 -4 -35 -20 -35 -19 0 -20
7 -20 95 l0 95 54 0 c36 0 58 -5 66 -16z m150 -60 c6 -14 10 -45 10 -70 l0
-44 -58 0 c-56 0 -82 11 -82 36 0 23 31 44 66 44 19 0 34 4 34 8 0 18 -25 31
-51 25 -16 -3 -29 -1 -29 4 0 18 13 23 57 23 37 0 45 -4 53 -26z m140 12 c0
-9 -12 -16 -32 -18 -30 -3 -33 -6 -33 -38 0 -32 3 -35 33 -38 48 -5 43 -32 -7
-32 -50 0 -71 21 -71 70 0 22 7 45 16 54 20 21 94 22 94 2z m280 -12 c6 -14
10 -45 10 -70 l0 -44 -58 0 c-56 0 -82 11 -82 36 0 23 31 44 66 44 19 0 34 4
34 8 0 18 -25 31 -51 25 -16 -3 -29 -1 -29 4 0 18 13 23 57 23 37 0 45 -4 53
-26z m170 -58 c0 -103 -9 -116 -81 -116 -38 0 -49 3 -49 16 0 12 7 15 27 11
29 -5 63 7 63 23 0 6 -18 10 -40 10 -44 0 -60 18 -60 70 0 58 14 70 80 70 l60
0 0 -84z m142 67 c10 -9 18 -27 18 -40 0 -21 -4 -23 -50 -23 -27 0 -50 -4 -50
-10 0 -16 34 -28 63 -23 20 4 27 1 27 -11 0 -13 -11 -16 -49 -16 -40 0 -53 4
-65 22 -37 52 -8 118 51 118 20 0 45 -7 55 -17z m138 1 c0 -13 -7 -15 -30 -11
-45 10 -45 -10 0 -33 67 -34 49 -80 -32 -80 -37 0 -48 4 -48 15 0 12 9 15 36
13 51 -4 53 15 4 35 -67 26 -50 77 27 77 33 0 43 -4 43 -16z m-1200 -1399 c0
-98 -1 -105 -20 -105 -19 0 -20 7 -20 105 0 98 1 105 20 105 19 0 20 -7 20
-105z m970 48 l0 -56 23 21 c13 12 34 22 47 22 l24 0 -29 -30 -28 -30 26 -37
c23 -32 25 -39 11 -41 -9 -2 -29 9 -45 24 l-29 28 0 -27 c0 -20 -5 -27 -20
-27 -19 0 -20 7 -20 105 0 98 1 105 20 105 18 0 20 -7 20 -57z m-1215 20 c43
-43 42 -118 -2 -153 -19 -14 -40 -20 -79 -20 l-54 0 0 95 0 95 59 0 c42 0 64
-5 76 -17z m865 1 c20 -23 16 -75 -5 -90 -10 -8 -31 -14 -47 -14 -25 0 -28 -3
-28 -35 0 -28 -4 -35 -20 -35 -19 0 -20 7 -20 95 l0 95 54 0 c36 0 58 -5 66
-16z m-400 -19 c0 -8 9 -15 20 -15 11 0 20 -4 20 -10 0 -5 -9 -10 -21 -10 -18
0 -20 -5 -17 -47 2 -39 6 -47 21 -45 10 2 17 -3 17 -13 0 -13 -8 -16 -37 -13
l-38 3 -3 55 c-2 30 -8 57 -14 61 -15 9 13 49 34 49 10 0 18 -7 18 -15z m-298
-32 c10 -9 18 -27 18 -40 0 -21 -4 -23 -50 -23 -27 0 -50 -4 -50 -10 0 -16 34
-28 63 -23 20 4 27 1 27 -11 0 -13 -11 -16 -49 -16 -40 0 -53 4 -65 22 -37 52
-8 118 51 118 20 0 45 -7 55 -17z m216 4 c6 -6 13 -24 17 -40 7 -27 7 -27 -44
-27 -49 0 -64 -10 -39 -26 7 -4 27 -7 45 -6 24 2 33 -2 33 -13 0 -22 -87 -21
-112 2 -23 20 -24 85 -2 107 19 19 87 21 102 3z m250 1 c7 -7 12 -25 12 -40 0
-27 -2 -28 -45 -28 -44 0 -58 -11 -33 -26 7 -4 27 -7 45 -6 24 2 33 -2 33 -13
0 -22 -87 -21 -112 2 -23 20 -24 85 -2 107 18 19 85 21 102 4z m382 -14 c6
-14 10 -45 10 -70 l0 -44 -58 0 c-56 0 -82 11 -82 36 0 23 31 44 66 44 19 0
34 4 34 8 0 18 -25 31 -51 25 -16 -3 -29 -1 -29 4 0 18 13 23 57 23 37 0 45
-4 53 -26z m140 12 c0 -9 -12 -16 -32 -18 -30 -3 -33 -6 -33 -38 0 -32 3 -35
33 -38 20 -2 32 -9 32 -18 0 -20 -69 -18 -92 3 -23 20 -24 85 -2 107 20 21 94
22 94 2z m280 -12 c6 -14 10 -45 10 -70 l0 -44 -58 0 c-56 0 -82 11 -82 36 0
23 31 44 66 44 19 0 34 4 34 8 0 18 -25 31 -51 25 -16 -3 -29 -1 -29 4 0 18
13 23 57 23 37 0 45 -4 53 -26z m170 -55 c0 -108 -7 -119 -75 -119 -44 0 -55
3 -55 16 0 12 7 15 27 11 29 -5 63 7 63 23 0 6 -18 10 -40 10 -44 0 -60 18
-60 70 0 58 14 70 80 70 l60 0 0 -81z m142 64 c10 -9 18 -27 18 -40 0 -21 -4
-23 -50 -23 -27 0 -50 -4 -50 -10 0 -16 34 -28 63 -23 20 4 27 1 27 -11 0 -13
-11 -16 -49 -16 -40 0 -53 4 -65 22 -37 52 -8 118 51 118 20 0 45 -7 55 -17z
m138 1 c0 -13 -7 -15 -30 -11 -45 10 -45 -10 0 -33 67 -34 49 -80 -32 -80 -38
0 -48 4 -48 16 0 13 7 15 28 11 26 -5 62 6 52 16 -3 3 -22 12 -42 20 -65 27
-46 77 29 77 33 0 43 -4 43 -16z m-1060 -1399 c0 -87 -3 -105 -15 -105 -12 0
-15 18 -15 105 0 87 3 105 15 105 12 0 15 -18 15 -105z m-235 60 c19 -18 25
-35 25 -70 0 -69 -30 -95 -110 -95 l-60 0 0 95 0 95 60 0 c51 0 65 -4 85 -25z
m305 10 c0 -8 -9 -15 -20 -15 -11 0 -20 7 -20 15 0 8 9 15 20 15 11 0 20 -7
20 -15z m-142 -48 c6 -6 13 -24 17 -40 7 -27 7 -27 -44 -27 -28 0 -51 -4 -51
-10 0 -16 34 -28 63 -23 20 4 27 1 27 -11 0 -23 -86 -22 -112 1 -23 20 -24 80
-1 105 19 21 85 25 101 5z m142 -57 c0 -63 -2 -70 -20 -70 -18 0 -20 7 -20 70
0 63 2 70 20 70 18 0 20 -7 20 -70z m71 22 l16 -44 17 46 c13 33 23 46 38 46
22 0 20 -10 -14 -92 -16 -37 -26 -48 -43 -48 -13 0 -25 7 -28 18 -2 9 -14 41
-26 70 l-21 53 22 -3 c16 -2 27 -15 39 -46z m211 31 c10 -9 18 -27 18 -40 0
-21 -4 -23 -50 -23 -27 0 -50 -4 -50 -10 0 -16 34 -28 63 -23 20 4 27 1 27
-11 0 -13 -11 -16 -49 -16 -40 0 -53 4 -65 22 -37 52 -8 118 51 118 20 0 45
-7 55 -17z m138 2 c0 -8 -12 -15 -27 -17 -26 -3 -28 -7 -31 -55 -3 -45 -6 -53
-23 -53 -17 0 -19 7 -19 69 l0 68 50 2 c37 0 50 -3 50 -14z m-540 -372 l0 -56
23 21 c13 12 34 22 47 22 l24 0 -29 -30 -28 -30 26 -37 c23 -32 25 -39 11 -41
-9 -2 -29 9 -45 24 l-29 28 0 -27 c0 -20 -5 -27 -20 -27 -19 0 -20 7 -20 105
0 98 1 105 20 105 18 0 20 -7 20 -57z m-350 21 c20 -23 16 -75 -5 -90 -10 -8
-31 -14 -47 -14 -25 0 -28 -3 -28 -35 0 -28 -4 -35 -20 -35 -19 0 -20 7 -20
95 l0 95 54 0 c36 0 58 -5 66 -16z m150 -60 c6 -14 10 -45 10 -70 l0 -44 -58
0 c-56 0 -82 11 -82 36 0 23 31 44 66 44 19 0 34 4 34 8 0 18 -25 31 -51 25
-16 -3 -29 -1 -29 4 0 18 13 23 57 23 37 0 45 -4 53 -26z m140 12 c0 -9 -12
-16 -32 -18 -30 -3 -33 -6 -33 -38 0 -32 3 -35 33 -38 48 -5 43 -32 -7 -32
-50 0 -71 21 -71 70 0 22 7 45 16 54 20 21 94 22 94 2z m280 -12 c6 -14 10
-45 10 -70 l0 -44 -58 0 c-56 0 -82 11 -82 36 0 23 31 44 66 44 19 0 34 4 34
8 0 18 -25 31 -51 25 -16 -3 -29 -1 -29 4 0 18 13 23 57 23 37 0 45 -4 53 -26z
m170 -58 c0 -103 -9 -116 -81 -116 -39 0 -49 3 -49 16 0 13 7 15 31 10 31 -6
59 6 59 25 0 5 -18 9 -40 9 -46 0 -60 18 -60 79 0 49 16 60 88 61 l52 0 0 -84z
m144 62 c30 -43 21 -58 -34 -58 -27 0 -50 -4 -50 -10 0 -16 34 -28 63 -23 20
4 27 1 27 -11 0 -13 -11 -16 -49 -16 -55 0 -81 22 -81 70 0 44 26 70 70 70 29
0 43 -6 54 -22z m136 6 c0 -13 -7 -15 -30 -11 -45 10 -45 -10 0 -33 67 -34 49
-80 -32 -80 -37 0 -48 4 -48 15 0 12 9 15 36 13 51 -4 53 15 4 35 -67 26 -50
77 27 77 33 0 43 -4 43 -16z"/>
<path d="M8057 9568 c-23 -12 -22 -64 1 -77 31 -17 49 7 44 60 -2 22 -24 30
-45 17z"/>
<path d="M7895 9564 c-8 -9 -15 -24 -15 -34 0 -45 52 -60 65 -19 14 44 -21 81
-50 53z"/>
<path d="M8211 9506 c-8 -10 -9 -16 -2 -21 13 -7 51 12 51 25 0 15 -36 12 -49
-4z"/>
<path d="M8462 9568 c-19 -19 -14 -28 18 -28 17 0 30 4 30 8 0 9 -21 32 -30
32 -3 0 -11 -5 -18 -12z"/>
<path d="M8942 9568 c-19 -19 -14 -28 18 -28 17 0 30 4 30 8 0 9 -21 32 -30
32 -3 0 -11 -5 -18 -12z"/>
<path d="M7904 9149 c-3 -6 -2 -15 3 -20 13 -13 43 -1 43 17 0 16 -36 19 -46
3z"/>
<path d="M8220 9150 c-11 -7 -12 -12 -3 -21 12 -12 53 4 53 21 0 13 -30 13
-50 0z"/>
<path d="M8382 9208 c-16 -16 -15 -75 1 -81 23 -8 47 13 47 43 0 34 -29 57
-48 38z"/>
<path d="M8541 9207 c-18 -18 -13 -27 19 -27 21 0 28 4 24 14 -8 20 -29 27
-43 13z"/>
<path d="M8878 9209 c-25 -14 -24 -65 1 -79 39 -20 68 41 35 74 -8 9 -16 16
-17 16 -1 0 -10 -5 -19 -11z"/>
<path d="M7512 8808 c-31 -31 0 -105 33 -78 25 21 14 90 -15 90 -3 0 -11 -5
-18 -12z"/>
<path d="M7931 8807 c-18 -18 -13 -27 19 -27 21 0 28 4 24 14 -8 20 -29 27
-43 13z"/>
<path d="M8392 8808 c-31 -31 0 -105 33 -78 25 21 14 90 -15 90 -3 0 -11 -5
-18 -12z"/>
<path d="M8897 8809 c-26 -15 -20 -29 13 -29 32 0 38 11 17 28 -8 7 -18 7 -30
1z"/>
<path d="M8130 7590 c0 -45 -1 -44 34 -30 16 6 26 17 26 30 0 13 -10 24 -26
30 -35 14 -34 15 -34 -30z"/>
<path d="M7711 7567 c-18 -18 -13 -27 14 -27 15 0 25 6 25 14 0 19 -25 27 -39
13z"/>
<path d="M8291 7506 c-8 -10 -9 -16 -2 -21 13 -7 51 12 51 25 0 15 -36 12 -49
-4z"/>
<path d="M8711 7506 c-7 -9 -8 -17 -2 -20 13 -8 38 3 45 20 7 19 -28 19 -43 0z"/>
<path d="M8872 7568 c-18 -18 -15 -75 4 -82 24 -9 44 12 44 45 0 33 -30 55
-48 37z"/>
<path d="M9032 7568 c-20 -20 -14 -28 18 -28 28 0 30 2 20 20 -12 23 -21 25
-38 8z"/>
<path d="M8784 5949 c-3 -6 -2 -15 3 -20 13 -13 43 -1 43 17 0 16 -36 19 -46
3z"/>
<path d="M8210 6030 c0 -45 -1 -44 34 -30 16 6 26 17 26 30 0 13 -10 24 -26
30 -35 14 -34 15 -34 -30z"/>
<path d="M7785 6003 c-18 -17 -18 -18 9 -21 35 -4 44 4 24 24 -14 14 -17 14
-33 -3z"/>
<path d="M8364 5949 c-3 -6 -2 -15 3 -20 13 -13 43 -1 43 17 0 16 -36 19 -46
3z"/>
<path d="M8947 6008 c-21 -11 -23 -61 -3 -77 29 -24 61 10 50 54 -7 28 -24 36
-47 23z"/>
<path d="M9105 6003 c-18 -17 -18 -18 9 -21 35 -4 44 4 24 24 -14 14 -17 14
-33 -3z"/>
<path d="M8292 4748 c-16 -16 -15 -63 2 -77 17 -14 46 -4 48 18 5 57 -21 88
-50 59z"/>
<path d="M8135 4744 c-8 -9 -15 -24 -15 -34 0 -45 52 -60 65 -19 14 44 -21 81
-50 53z"/>
<path d="M8450 4690 c-11 -7 -12 -12 -3 -21 12 -12 53 4 53 21 0 13 -30 13
-50 0z"/>
<path d="M8702 4748 c-19 -19 -14 -28 18 -28 17 0 30 4 30 8 0 9 -21 32 -30
32 -3 0 -11 -5 -18 -12z"/>
<path d="M7810 4371 c0 -38 1 -40 23 -32 22 8 38 61 18 61 -5 0 -16 3 -25 6
-13 5 -16 -2 -16 -35z"/>
<path d="M7960 4290 c-11 -7 -12 -12 -3 -21 12 -12 53 4 53 21 0 13 -30 13
-50 0z"/>
<path d="M8380 4290 c-11 -7 -12 -12 -3 -21 12 -12 53 4 53 21 0 13 -30 13
-50 0z"/>
<path d="M8542 4348 c-18 -18 -15 -75 4 -82 24 -9 44 12 44 45 0 33 -30 55
-48 37z"/>
<path d="M8702 4348 c-19 -19 -14 -28 18 -28 17 0 30 4 30 8 0 9 -21 32 -30
32 -3 0 -11 -5 -18 -12z"/>
<path d="M7370 2955 c0 -41 2 -75 5 -75 3 0 21 7 40 14 25 11 35 22 37 38 4
62 -8 81 -54 92 l-28 6 0 -75z"/>
<path d="M8250 2991 c0 -38 1 -40 23 -32 22 8 38 61 18 61 -5 0 -16 3 -25 6
-13 5 -16 -2 -16 -35z"/>
<path d="M7567 2969 c-26 -15 -20 -29 13 -29 32 0 38 11 17 28 -8 7 -18 7 -30
1z"/>
<path d="M7781 2967 c-18 -18 -13 -27 19 -27 21 0 28 4 24 14 -8 20 -29 27
-43 13z"/>
<path d="M8031 2967 c-18 -18 -13 -27 14 -27 15 0 25 6 25 14 0 19 -25 27 -39
13z"/>
<path d="M8400 2910 c-11 -7 -12 -12 -3 -21 12 -12 53 4 53 21 0 13 -30 13
-50 0z"/>
<path d="M8820 2910 c-11 -7 -12 -12 -3 -21 12 -12 53 4 53 21 0 13 -30 13
-50 0z"/>
<path d="M8982 2968 c-18 -18 -15 -75 4 -82 24 -9 44 12 44 45 0 33 -30 55
-48 37z"/>
<path d="M9147 2969 c-26 -15 -20 -29 13 -29 32 0 38 11 17 28 -8 7 -18 7 -30
1z"/>
<path d="M7956 1643 c-3 -3 -6 -38 -6 -76 0 -59 2 -68 16 -63 9 3 22 6 29 6
39 0 61 76 33 112 -14 17 -61 31 -72 21z"/>
<path d="M8151 1587 c-18 -18 -13 -27 19 -27 21 0 28 4 24 14 -8 20 -29 27
-43 13z"/>
<path d="M8577 1589 c-26 -15 -20 -29 13 -29 32 0 38 11 17 28 -8 7 -18 7 -30
1z"/>
<path d="M7810 1212 c0 -36 2 -39 25 -34 20 3 25 10 25 33 0 16 -4 29 -9 29
-5 0 -16 3 -25 6 -13 5 -16 -1 -16 -34z"/>
<path d="M7960 1130 c-11 -7 -12 -12 -3 -21 12 -12 53 4 53 21 0 13 -30 13
-50 0z"/>
<path d="M8380 1130 c-11 -7 -12 -12 -3 -21 12 -12 53 4 53 21 0 13 -30 13
-50 0z"/>
<path d="M8542 1188 c-16 -16 -15 -75 1 -81 23 -8 47 13 47 43 0 34 -29 57
-48 38z"/>
<path d="M8707 1189 c-26 -15 -20 -29 13 -29 32 0 38 11 17 28 -8 7 -18 7 -30
1z"/>
<path d="M13714 2209 c-409 -31 -764 -194 -967 -442 -55 -68 -115 -200 -124
-278 l-8 -64 -538 -3 c-528 -2 -537 -3 -537 -22 0 -19 9 -20 538 -22 l537 -3
6 -51 c28 -227 210 -436 504 -580 187 -91 363 -135 613 -154 230 -18 497 12
697 77 167 54 371 170 479 271 93 88 173 218 201 323 19 68 19 209 1 274 -55
205 -221 383 -480 515 -178 90 -374 141 -616 160 -147 11 -157 11 -306 -1z
m456 -444 l0 -105 -54 0 c-45 0 -58 4 -70 22 -9 12 -16 34 -16 48 0 44 26 70
71 70 38 0 39 1 39 35 0 24 5 35 15 35 12 0 15 -18 15 -105z m-475 58 c1 -18
-2 -20 -16 -12 -10 5 -30 9 -44 9 -39 0 -28 -29 20 -54 30 -16 41 -28 43 -49
5 -43 -13 -57 -74 -57 -45 0 -54 3 -54 18 0 14 7 17 45 14 39 -4 45 -2 45 16
0 14 -12 25 -39 35 -38 16 -51 32 -51 66 0 30 22 42 74 39 43 -3 50 -6 51 -25z
m143 -35 c7 -7 12 -25 12 -40 0 -27 -2 -28 -45 -28 -44 0 -58 -11 -33 -26 7
-4 27 -7 45 -6 24 2 33 -2 33 -13 0 -22 -87 -21 -112 2 -23 20 -24 80 -1 105
19 21 82 25 101 6z m160 0 c7 -7 12 -38 12 -70 0 -51 -2 -58 -20 -58 -18 0
-20 7 -20 54 0 38 -4 56 -15 60 -25 9 -45 -22 -45 -70 0 -37 -3 -44 -20 -44
-18 0 -20 7 -20 70 l0 70 58 0 c32 0 63 -5 70 -12z m-368 -288 c0 -5 9 -10 20
-10 11 0 20 -7 20 -15 0 -8 -9 -15 -20 -15 -11 0 -20 5 -20 10 0 6 -11 10 -25
10 -18 0 -25 -5 -25 -20 0 -13 7 -20 20 -20 11 0 20 -4 20 -10 0 -5 -9 -10
-20 -10 -18 0 -20 -7 -20 -60 0 -53 -2 -60 -20 -60 -18 0 -20 7 -20 59 0 38
-5 61 -12 65 -10 5 -10 7 0 12 6 3 12 12 12 20 0 34 21 54 55 54 19 0 35 -4
35 -10z m710 -25 c0 -8 -9 -15 -20 -15 -11 0 -20 7 -20 15 0 8 9 15 20 15 11
0 20 -7 20 -15z m-90 -20 c0 -8 9 -15 20 -15 11 0 20 -4 20 -10 0 -5 -9 -10
-21 -10 -18 0 -20 -5 -17 -47 2 -39 6 -47 21 -45 10 2 17 -3 17 -13 0 -13 -8
-16 -37 -13 l-38 3 -3 55 c-2 30 -9 58 -15 63 -9 7 -9 10 1 14 6 2 12 11 12
19 0 8 9 14 20 14 11 0 20 -7 20 -15z m-1060 -30 c0 -10 -10 -15 -34 -15 -38
0 -53 -22 -41 -60 7 -21 14 -24 53 -20 14 1 22 -4 22 -14 0 -12 -11 -16 -44
-16 -50 0 -76 24 -76 70 0 46 26 70 76 70 32 0 44 -4 44 -15z m142 -2 c23 -20
24 -80 1 -105 -19 -22 -95 -25 -112 -5 -21 26 -24 75 -7 102 13 20 25 25 58
25 25 0 49 -7 60 -17z m168 -2 c5 -11 10 -42 10 -70 0 -44 -3 -51 -20 -51 -17
0 -20 7 -20 48 0 55 -14 76 -42 61 -14 -7 -18 -21 -18 -59 0 -43 -3 -50 -20
-50 -18 0 -20 7 -20 70 l0 70 60 0 c48 0 61 -4 70 -19z m170 -51 c0 -63 -2
-70 -20 -70 -18 0 -20 7 -20 70 0 63 2 70 20 70 18 0 20 -7 20 -70z m120 55
c0 -8 -9 -15 -20 -15 -25 0 -40 -29 -40 -74 0 -25 -4 -36 -15 -36 -12 0 -15
14 -15 69 l0 68 45 1 c33 1 45 -3 45 -13z m230 -5 c5 -10 10 -41 10 -69 0 -44
-3 -51 -20 -51 -18 0 -20 7 -20 54 0 35 -5 56 -12 59 -28 9 -38 -6 -38 -59 0
-47 -2 -54 -20 -54 -17 0 -20 7 -20 49 0 88 -49 90 -58 2 -3 -34 -9 -51 -18
-51 -11 0 -14 17 -14 70 l0 69 100 0 c87 0 101 -3 110 -19z m150 1 c5 -11 10
-42 10 -70 l0 -51 -60 0 c-48 0 -61 4 -70 19 -13 25 -13 27 6 45 8 9 31 16 50
16 24 0 34 5 34 15 0 15 -11 19 -39 16 -21 -3 -43 8 -36 19 3 5 26 10 50 10
34 0 47 -5 55 -19z m170 -51 c0 -63 -2 -70 -20 -70 -18 0 -20 7 -20 70 0 63 2
70 20 70 18 0 20 -7 20 -70z m152 53 c23 -20 24 -80 1 -105 -11 -12 -30 -18
-59 -18 -48 0 -74 25 -74 70 0 45 26 70 72 70 25 0 49 -7 60 -17z m168 -2 c5
-11 10 -42 10 -70 0 -44 -3 -51 -20 -51 -17 0 -20 7 -20 48 0 55 -14 76 -42
61 -14 -7 -18 -21 -18 -59 0 -43 -3 -50 -20 -50 -18 0 -20 7 -20 70 l0 70 60
0 c48 0 61 -4 70 -19z m-460 -416 c0 -98 -1 -105 -20 -105 -19 0 -20 7 -20
105 0 98 1 105 20 105 19 0 20 -7 20 -105z m-60 70 c0 -16 -35 -21 -44 -6 -8
12 4 21 26 21 10 0 18 -7 18 -15z m-482 -48 c6 -6 13 -24 17 -40 7 -27 7 -27
-44 -27 -49 0 -64 -10 -39 -26 7 -4 27 -7 45 -6 24 2 33 -2 33 -13 0 -22 -87
-21 -112 2 -23 20 -24 80 -1 105 19 21 85 25 101 5z m252 -7 c5 -10 10 -41 10
-69 0 -44 -3 -51 -20 -51 -18 0 -20 7 -20 54 0 35 -5 56 -12 59 -28 9 -38 -6
-38 -59 0 -47 -2 -54 -20 -54 -17 0 -20 7 -20 49 0 88 -49 90 -58 2 -3 -34 -9
-51 -18 -51 -11 0 -14 17 -14 70 l0 69 100 0 c87 0 101 -3 110 -19z m150 1 c5
-11 10 -42 10 -70 l0 -51 -60 0 c-47 0 -61 4 -69 18 -16 30 13 62 55 62 19 0
34 4 34 8 0 15 -22 30 -36 25 -19 -7 -47 5 -39 17 3 5 26 10 50 10 34 0 47 -5
55 -19z m70 -51 c0 -56 -3 -70 -15 -70 -12 0 -15 14 -15 70 0 56 3 70 15 70
12 0 15 -14 15 -70z"/>
<path d="M14082 1768 c-18 -18 -15 -66 6 -77 36 -19 62 27 37 65 -17 27 -26
29 -43 12z"/>
<path d="M13771 1767 c-18 -18 -13 -27 14 -27 15 0 25 6 25 14 0 19 -25 27
-39 13z"/>
<path d="M13256 1404 c-33 -33 -4 -94 35 -74 12 7 19 21 19 40 0 38 -31 57
-54 34z"/>
<path d="M14095 1350 c-3 -5 -3 -15 0 -20 7 -12 45 5 45 20 0 13 -37 13 -45 0z"/>
<path d="M14416 1404 c-33 -33 -4 -94 35 -74 12 7 19 21 19 40 0 38 -31 57
-54 34z"/>
<path d="M13592 1008 c-20 -20 -14 -28 18 -28 28 0 30 2 20 20 -12 23 -21 25
-38 8z"/>
<path d="M13985 950 c-3 -5 -3 -15 0 -20 7 -12 45 5 45 20 0 13 -37 13 -45 0z"/>
<path d="M10760 1365 c0 -63 4 -105 10 -105 6 0 10 42 10 105 0 63 -4 105 -10
105 -6 0 -10 -42 -10 -105z"/>
<path d="M11090 1423 c0 -37 -3 -44 -12 -35 -18 18 -53 15 -71 -6 -23 -25 -22
-85 1 -105 21 -19 57 -22 67 -7 5 8 11 7 21 -1 12 -10 14 4 14 95 0 64 -4 106
-10 106 -5 0 -10 -21 -10 -47z m-11 -57 c7 -8 11 -30 9 -48 -3 -30 -6 -33 -38
-33 -29 0 -36 4 -38 24 -6 43 6 71 32 71 13 0 29 -6 35 -14z"/>
<path d="M10400 1435 c0 -8 5 -15 10 -15 6 0 10 7 10 15 0 8 -4 15 -10 15 -5
0 -10 -7 -10 -15z"/>
<path d="M10400 1330 c0 -40 4 -70 10 -70 6 0 10 30 10 70 0 40 -4 70 -10 70
-6 0 -10 -30 -10 -70z"/>
<path d="M10470 1330 c0 -40 4 -70 10 -70 6 0 10 22 10 49 0 54 15 74 52 69
21 -3 23 -9 26 -60 4 -73 22 -76 22 -4 0 75 -30 103 -81 76 -13 -7 -19 -7 -19
0 0 5 -4 10 -10 10 -6 0 -10 -30 -10 -70z"/>
<path d="M10652 1384 c-16 -11 -22 -25 -22 -54 0 -29 6 -43 22 -54 25 -18 64
-21 73 -6 4 6 -6 10 -22 10 -36 0 -53 16 -53 50 0 34 17 50 53 50 16 0 26 4
22 10 -9 15 -48 12 -73 -6z"/>
<path d="M10830 1340 c0 -55 2 -62 25 -72 19 -8 31 -8 50 0 15 7 25 8 25 2 0
-6 5 -10 10 -10 6 0 10 30 10 70 0 40 -4 70 -10 70 -5 0 -10 -19 -10 -43 0
-54 -18 -80 -51 -75 -22 3 -24 8 -27 61 -4 76 -22 74 -22 -3z"/>
<path d="M11184 1392 c-16 -10 -34 -48 -34 -70 0 -41 85 -84 105 -52 4 6 -8
10 -27 10 -32 0 -58 14 -58 32 0 4 23 8 50 8 46 0 50 2 50 23 0 42 -53 72 -86
49z m64 -34 c3 -15 -4 -18 -38 -18 -38 0 -40 1 -30 21 14 25 63 23 68 -3z"/>
<path d="M10277 1356 c-14 -21 -15 -29 -5 -46 7 -11 19 -20 27 -20 11 0 10 5
-4 20 -14 16 -15 22 -5 34 6 9 10 21 8 27 -2 6 -12 0 -21 -15z"/>
<path d="M10330 1355 l-23 -25 23 -25 c27 -29 42 -25 15 5 -17 19 -17 21 0 40
27 30 12 34 -15 5z"/>
<path d="M11360 1373 c0 -6 7 -16 15 -23 14 -11 14 -15 -1 -37 -22 -34 -12
-38 16 -8 l24 26 -27 27 c-15 14 -27 22 -27 15z"/>
<path d="M11315 1350 c17 -19 17 -21 0 -40 -10 -11 -14 -20 -8 -20 5 0 18 9
28 20 17 19 17 21 0 40 -10 11 -23 20 -28 20 -6 0 -2 -9 8 -20z"/>
</g>
</svg>
