<svg xmlns="http://www.w3.org/2000/svg" xmlns:xlink="http://www.w3.org/1999/xlink" version="1.1" width="1160.7138240714194" height="809.9142297988182"><desc>%0Atitle%20PACKAGE%20TRACKING%20BY%20AWB%0A%0Aactor%20Client%20UI%0Aparticipant%20PackageController%20(API)%0Aparticipant%20PackageService%0Aparticipant%20PackageRepository%0Adatabase%20MySQL%20DB%0A%0APackageRepository-%3EMySQL%20DB%3A%20Fetch%20packages%0APackageRepository%3C--MySQL%20DB%3ARespond%20with%20packages%0A%0A%20%20Client%20UI-%3EPackageController%20(API)%3AGET%20%2Fpackages%2Ffind%3Fawb%3D%7Bawb%7D%0APackageController%20(API)-%3EPackageService%3A%20getPackageByAwb(String%20awb)%0APackageService-%3EPackageRepository%3AgetPackageByAwb(String%20awb)%0Aalt%20Package%20found%0A%20%20%20%20PackageService%3C--PackageRepository%3A%20Returns%20Package%20object%0A%20%20%20%20PackageController%20(API)%3C--PackageService%3A%20Sends%20package%20data%0A%20%20%20%20Client%20UI%3C--PackageController%20(API)%3A%20Display%20package%20details%0Aelse%20Package%20not%20found%0A%20%20%20%20PackageService%3C--PackageRepository%3A%20Returns%20NULL%0A%20%20%20%20PackageController%20(API)%3C--PackageService%3A%20Sends%20NULL%20data%0A%20%20%20%20Client%20UI%3C--PackageController%20(API)%3A%20Display%20information%20of%20the%20non-existent%20package%0Aend</desc><defs/><g><g/><g/><g/><g/><g/><g/><g/><g/><g/><g/><g/><g/><g/><g/><g/><g/><g/><g/><g/><g/><g/><g/><g/><g/><g/><g/><g/><g/><g/><g/><g/><g/><g/><g/><g/><g/><g/><g/><g/><g/><g/><g/><g/><g/><g/><g/><g/><g/><g/><g/><g/><g/><g/><g/><g/><g/><g/><g/><g/><g/><g/><g/><g/><g/><g/><g/><g/><g/><g/><g/><g><rect fill="white" stroke="none" x="0" y="0" width="1160" height="809"/></g><g/><g><path fill="none" stroke="black" paint-order="fill stroke markers" d=" M 73.50841485 128.73625218881818 L 73.50841485 809.9142297988182" stroke-miterlimit="10" stroke-width="1.3612669416666667" stroke-dasharray="12.565541,5.445067766666667"/><path fill="none" stroke="black" paint-order="fill stroke markers" d=" M 425.9163538339193 128.73625218881818 L 425.9163538339193 809.9142297988182" stroke-miterlimit="10" stroke-width="1.3612669416666667" stroke-dasharray="12.565541,5.445067766666667"/><path fill="none" stroke="black" paint-order="fill stroke markers" d=" M 671.2949959428386 128.73625218881818 L 671.2949959428386 809.9142297988182" stroke-miterlimit="10" stroke-width="1.3612669416666667" stroke-dasharray="12.565541,5.445067766666667"/><path fill="none" stroke="black" paint-order="fill stroke markers" d=" M 916.6736380517578 128.73625218881818 L 916.6736380517578 809.9142297988182" stroke-miterlimit="10" stroke-width="1.3612669416666667" stroke-dasharray="12.565541,5.445067766666667"/><path fill="none" stroke="black" paint-order="fill stroke markers" d=" M 1115.8891026704428 128.73625218881818 L 1115.8891026704428 809.9142297988182" stroke-miterlimit="10" stroke-width="1.3612669416666667" stroke-dasharray="12.565541,5.445067766666667"/></g><g><g><path fill="white" stroke="black" paint-order="fill stroke markers" d=" M 82.819480731 59.63834222981819 A 9.311065881 9.311065881 0 1 1 82.81947607546743 59.62903116548903 M 73.50841485 68.9494081108182 L 73.50841485 88.8783561368182 M 61.747068473999995 76.13689756281819 L 85.26976122599999 76.13689756281819 M 73.50841485 88.8783561368182 L 61.747068473999995 107.50048789881819 M 73.50841485 88.8783561368182 L 85.26976122599999 107.50048789881819" stroke-miterlimit="10" stroke-width="2.7769845610000004" stroke-dasharray=""/></g><g><g/><text fill="black" stroke="none" font-family="sans-serif" font-size="11pt" font-style="normal" font-weight="normal" text-decoration="normal" x="45.40176354384765" y="123.83569119881818" text-anchor="start" dominant-baseline="alphabetic" xml:space="preserve">Client UI</text></g><path fill="none" stroke="none"/><g><path fill="white" stroke="black" paint-order="fill stroke markers" d=" M 329.15905839990364 84.63120327881819 L 522.6736492679349 84.63120327881819 L 522.6736492679349 128.73625218881818 L 329.15905839990364 128.73625218881818 L 329.15905839990364 84.63120327881819 Z" stroke-miterlimit="10" stroke-width="2.613632528" stroke-dasharray=""/></g><g><g/><text fill="black" stroke="none" font-family="sans-serif" font-size="11pt" font-style="normal" font-weight="normal" text-decoration="normal" x="346.88275398040366" y="112.40104888881817" text-anchor="start" dominant-baseline="alphabetic" xml:space="preserve">PackageController (API)</text></g><path fill="none" stroke="none"/><g><path fill="white" stroke="black" paint-order="fill stroke markers" d=" M 600.6042593467135 84.63120327881819 L 741.9857325389636 84.63120327881819 L 741.9857325389636 128.73625218881818 L 600.6042593467135 128.73625218881818 L 600.6042593467135 84.63120327881819 Z" stroke-miterlimit="10" stroke-width="2.613632528" stroke-dasharray=""/></g><g><g/><text fill="black" stroke="none" font-family="sans-serif" font-size="11pt" font-style="normal" font-weight="normal" text-decoration="normal" x="618.3279549272136" y="112.40104888881817" text-anchor="start" dominant-baseline="alphabetic" xml:space="preserve">PackageService</text></g><path fill="none" stroke="none"/><g><path fill="white" stroke="black" paint-order="fill stroke markers" d=" M 835.3887699859063 84.63120327881819 L 997.9585061176094 84.63120327881819 L 997.9585061176094 128.73625218881818 L 835.3887699859063 128.73625218881818 L 835.3887699859063 84.63120327881819 Z" stroke-miterlimit="10" stroke-width="2.613632528" stroke-dasharray=""/></g><g><g/><text fill="black" stroke="none" font-family="sans-serif" font-size="11pt" font-style="normal" font-weight="normal" text-decoration="normal" x="853.1124655664063" y="112.40104888881817" text-anchor="start" dominant-baseline="alphabetic" xml:space="preserve">PackageRepository</text></g><g><path fill="white" stroke="black" paint-order="fill stroke markers" d=" M 1092.0397058524427 96.71925372081819 L 1092.0397058524427 62.41532679081819 L 1139.7384994884428 62.41532679081819 L 1139.7384994884428 96.71925372081819" stroke-miterlimit="10" stroke-width="2.7769845610000004" stroke-dasharray=""/><path fill="white" stroke="black" paint-order="fill stroke markers" d=" M 1139.7384994884428 61.22285694991819 L 1139.7373070285391 61.33066749483481 L 1139.733729768073 61.43846725878678 L 1139.7277680647676 61.546245461887544 L 1139.7194225147884 61.65399132640659 L 1139.7086939526832 61.761694077847274 L 1139.6955834512994 61.86934294602419 L 1139.680092321676 61.976927166140236 L 1139.6622221129135 62.084435979863045 L 1139.6419746120175 62.19185863640084 L 1139.6193518437212 62.299184393577484 L 1139.5943560702829 62.4064025189067 L 1139.566989791259 62.51350229066531 L 1139.5372557432543 62.62047299896537 L 1139.5051568996491 62.7273039468252 L 1139.470696470301 62.83398445123905 L 1139.4338779012242 62.94050384424536 L 1139.394704874245 63.04685147399361 L 1139.3531813066331 63.15301670580944 L 1139.3093113507111 63.25898892325815 L 1139.2630993934379 63.364757529206294 L 1139.2145500559704 63.47031194688142 L 1139.1636681932025 63.575641620929716 L 1139.1104588932774 63.68073601847156 L 1139.0549274770813 63.78558463015478 L 1138.9970794977094 63.89017697120557 L 1138.936920739911 63.994502582477 L 1138.8744572195124 64.09855103149486 L 1138.8096951828134 64.20231191350096 L 1138.7426411059632 64.3057748524936 L 1138.6733016943142 64.40892950226505 L 1138.6016838817498 64.51176554743633 L 1138.527794829991 64.61427270448858 L 1138.4516419278818 64.71644072279157 L 1138.3732327906491 64.81825938562858 L 1138.2925752591411 64.91971851121816 L 1138.2096773990436 65.02080795373233 L 1138.1245475000737 65.12151760431107 L 1138.0371940751504 65.22183739207324 L 1137.9476258595432 65.32175728512367 L 1137.855851809999 65.42126729155632 L 1137.7618811038467 65.52035746045347 L 1137.6657231380782 65.6190178828808 L 1137.5673875284099 65.71723869287828 L 1137.4668841083212 65.81501006844678 L 1137.36422292807 65.91232223253022 L 1137.2594142536889 66.00916545399325 L 1137.152468565958 66.10553004859446 L 1137.0433965593572 66.20140637995469 L 1136.9322091409958 66.29678486052069 L 1136.8189174295233 66.39165595252388 L 1136.7035327540164 66.48601016893414 L 1136.5860666528463 66.57983807440844 L 1136.4665308725255 66.67313028623443 L 1136.3449373665321 66.76587747526865 L 1136.2212982941157 66.85807036686953 L 1136.0956260190803 66.94969974182469 L 1135.9679331085488 67.04075643727302 L 1135.838232331706 67.13123134762085 L 1135.706536658521 67.22111542545254 L 1135.5728592584517 67.3103996824352 L 1135.4372134991268 67.39907519021754 L 1135.299612945009 67.4871330813227 L 1135.160071356039 67.57456455003492 L 1135.0186026862598 67.6613608532802 L 1134.87522108242 67.74751331150055 L 1134.7299408825606 67.83301330952195 L 1134.582776614581 67.91785229741582 L 1134.4337429947848 68.00202179135408 L 1134.28285492641 68.08551337445749 L 1134.1301274981377 68.1683186976373 L 1133.9755759825832 68.25042948043021 L 1133.8192158347697 68.33183751182635 L 1133.6610626905815 68.41253465109044 L 1133.5011323652013 68.4925128285758 L 1133.339440851528 68.5717640465313 L 1133.1760043185786 68.65028037990122 L 1133.0108391098702 68.72805397711764 L 1132.843961741786 68.80507706088565 L 1132.6753889019235 68.88134192896105 L 1132.5051374474263 68.95684095492061 L 1132.3332244032981 69.03156658892462 L 1132.1596669607002 69.10551135847197 L 1131.9844824752317 69.17866786914732 L 1131.8076884651957 69.25102880536058 L 1131.6293026098456 69.3225869310784 L 1131.4493427476184 69.39333509054786 L 1131.2678268743502 69.46326620901198 L 1131.0847731414774 69.53237329341717 L 1130.9001998542203 69.60064943311258 L 1130.7141254697542 69.66808780054113 L 1130.5265685953623 69.7346816519223 L 1130.3375479865756 69.80042432792644 L 1130.1470825452977 69.86530925434072 L 1129.955191317914 69.92932994272657 L 1129.761893493387 69.9924799910685 L 1129.5672084013386 70.05475308441433 L 1129.3711555101154 70.1161429955066 L 1129.1737544248433 70.17664358540536 L 1128.9750248854662 70.23624880410202 L 1128.7749867647724 70.29495269112441 L 1128.5736600664075 70.35274937613272 L 1128.3710649228733 70.40963307950663 L 1128.1672215935157 70.46559811292322 L 1127.9621504624972 70.52063887992576 L 1127.7558720367606 70.57474987648341 L 1127.5484069439763 70.62792569154163 L 1127.3397759304805 70.68016100756323 L 1127.129999859201 70.73145060106012 L 1126.91909970757 70.78178934311569 L 1126.707096565427 70.8311721998977 L 1126.4940116329094 70.8795942331616 L 1126.279866218333 70.92705060074444 L 1126.0646817360607 70.973536557049 L 1125.8484797043616 71.01904745351838 L 1125.6312817432583 71.06357873910088 L 1125.4131095723662 71.10712596070502 L 1125.1939850087208 71.14968476364494 L 1124.9739299645955 71.19125089207583 L 1124.7529664453114 71.23182018941947 L 1124.5311165470364 71.27138859877994 L 1124.3084024545753 71.30995216334925 L 1124.084846439152 71.34750702680313 L 1123.8604708561813 71.38404943368649 L 1123.635298143035 71.4195757297891 L 1123.4093508167966 71.45408236251096 L 1123.1826514720105 71.48756588121756 L 1122.955222778422 71.52002293758491 L 1122.7270874787114 71.55145028593446 L 1122.498268386218 71.58184478355753 L 1122.2687883826607 71.61120339102969 L 1122.0386704158486 71.63952317251467 L 1121.8079374973865 71.66680129605793 L 1121.5766127003742 71.69303503386982 L 1121.3447191570983 71.71822176259843 L 1121.1122800567202 71.7423589635919 L 1120.8793186429562 71.7654442231502 L 1120.6458582117532 71.78747523276665 L 1120.4119221089602 71.80844978935863 L 1120.1775337279923 71.82836579548797 L 1119.9427165074924 71.84722125957065 L 1119.7074939289867 71.86501429607597 L 1119.471889514537 71.8817431257151 L 1119.2359268243888 71.89740607561903 L 1118.999629454614 71.91200157950583 L 1118.763021034753 71.92552817783725 L 1118.5261252254504 71.93798451796474 L 1118.28896571609 71.94936935426468 L 1118.0515662224248 71.95968154826289 L 1117.8139504842063 71.96892006874862 L 1117.5761422628107 71.97708399187748 L 1117.3381653388617 71.98417250126396 L 1117.1000435098533 71.99018488806304 L 1116.86180058777 71.99512055104105 L 1116.6234603967057 71.99897899663581 L 1116.3850467704806 72.00175983900598 L 1116.146583550259 72.00346280006961 L 1115.9080945821638 72.00408770953204 L 1115.6696037148934 72.00363450490285 L 1115.4311347973355 72.0021032315021 L 1115.1927116761833 71.99949404245586 L 1114.9543581935502 71.9958071986809 L 1114.716098184586 71.99104306885846 L 1114.4779554750926 71.98520212939759 L 1114.2399538791428 71.97828496438737 L 1114.002117196698 71.97029226553852 L 1113.764469211228 71.96122483211428 L 1113.5270336873336 71.95108357085043 L 1113.289834368369 71.93986949586466 L 1113.0528949740685 71.92758372855508 L 1112.8162391981741 71.91422749748824 L 1112.5798907060664 71.89980213827607 L 1112.3438731323974 71.8843090934425 L 1112.1082100787278 71.86774991227908 L 1111.8729251111668 71.85012625069015 L 1111.6380417580147 71.83143987102717 L 1111.4035835074114 71.81169264191253 L 1111.1695738049864 71.79088653805269 L 1110.9360360515152 71.7690236400407 L 1110.702993600578 71.74610613414815 L 1110.4704697562265 71.72213631210651 L 1110.2384877706506 71.69711657087802 L 1110.007070841856 71.67104941241597 L 1109.7762421113425 71.64393744341446 L 1109.5460246617909 71.6157833750478 L 1109.3164415147544 71.58659002269937 L 1109.0875156283562 71.55636030568009 L 1108.8592698949942 71.52509724693644 L 1108.6317271390515 71.49280397274828 L 1108.4049101146143 71.45948371241609 L 1108.1788415031956 71.42513979793813 L 1107.9535439114686 71.38977566367726 L 1107.7290398690047 71.35339484601741 L 1107.5053518260208 71.31600098301004 L 1107.2825021511348 71.27759781401028 L 1107.0605131291288 71.23818917930303 L 1106.8394069587196 71.19777901971894 L 1106.6192057503404 71.15637137624027 L 1106.399931523928 71.11397038959687 L 1106.1816062067228 71.07058029985207 L 1105.9642516310746 71.02620544597868 L 1105.7478895322595 70.98085026542512 L 1105.5325415463071 70.93451929367163 L 1105.3182292078368 70.8872171637768 L 1105.1049739479038 70.8389486059142 L 1104.8927970918562 70.78971844689937 L 1104.681719857203 70.7395316097072 L 1104.4717633514917 70.6883931129796 L 1104.2629485701978 70.6363080705236 L 1104.0552963946254 70.58328169080006 L 1103.8488275898192 70.52931927640276 L 1103.6435628024876 70.47442622352818 L 1103.439522558938 70.41860802143584 L 1103.2367272630252 70.36187025189946 L 1103.0351971941095 70.3042185886487 L 1102.8349525050296 70.24565879680183 L 1102.6360132200882 70.18619673228926 L 1102.4383992330474 70.12583834126788 L 1102.2421303051415 70.06458965952649 L 1102.0472260630997 70.00245681188221 L 1101.8537059971836 69.93944601156807 L 1101.661589459239 69.87556355961155 L 1101.4708956607592 69.81081584420461 L 1101.2816436709652 69.74520934006487 L 1101.0938524148983 69.67875060778805 L 1100.9075406715276 69.61144629319199 L 1100.7227270718722 69.54330312665208 L 1100.5394300971382 69.47432792242817 L 1100.35766807687 69.40452757798322 L 1100.1774591871183 69.3339090732935 L 1099.998821448622 69.26247947015062 L 1099.8217727250062 69.19024591145539 L 1099.6463307209954 69.11721562050347 L 1099.4725129806438 69.0433959002631 L 1099.300336885581 68.96879413264479 L 1099.1298196532728 68.89341777776313 L 1098.9609783353 68.81727437319081 L 1098.7938298156541 68.74037153320482 L 1098.6283908090477 68.66271694802508 L 1098.4646778592437 68.58431838304537 L 1098.3027073374003 68.5051836780569 L 1098.142495440435 68.4253207464642 L 1097.9840581894039 68.34473757449386 L 1097.8274114279002 68.26344222039596 L 1097.6725708204692 68.18144281363814 L 1097.519551851043 68.09874755409275 L 1097.3683698213906 68.01536471121685 L 1097.2190398495893 67.9313026232252 L 1097.0715768685118 67.84656969625658 L 1096.9259956243334 67.76117440353308 L 1096.7823106750568 67.67512528451279 L 1096.6405363890576 67.5884309440359 L 1096.500686943646 67.50110005146425 L 1096.3627763236505 67.41314133981427 L 1096.2268183200174 67.32456360488388 L 1096.0928265284344 67.23537570437271 L 1095.9608143479686 67.14558655699653 L 1095.8307949797284 67.05520514159522 L 1095.7027814255418 66.96424049623502 L 1095.576786486658 66.87270171730466 L 1095.4528227624655 66.78059795860575 L 1095.3309026492338 66.68793843043741 L 1095.2110383388724 66.59473239867523 L 1095.0932418177124 66.50098918384472 L 1094.977524865308 66.40671816018926 L 1094.863899053258 66.31192875473263 L 1094.7523757440483 66.2166304463364 L 1094.6429660899178 66.120832764752 L 1094.53568103174 66.02454528966774 L 1094.4305312979318 65.92777764975091 L 1094.3275274033788 65.83053952168484 L 1094.2266796483846 65.73284062920132 L 1094.1279981176403 65.63469074210818 L 1094.0314926792175 65.53609967531233 L 1093.9371729835789 65.4370772878383 L 1093.845048462616 65.33763348184232 L 1093.755128328704 65.23777820162212 L 1093.6674215737808 65.13752143262249 L 1093.5819369684496 65.03687320043682 L 1093.4986830610992 64.93584356980442 L 1093.4176681770514 64.83444264360419 L 1093.3389004177266 64.73268056184422 L 1093.2623876598352 64.63056750064791 L 1093.1881375545895 64.52811367123628 L 1093.1161575269377 64.42532931890689 L 1093.0464547748231 64.32222472200931 L 1092.9790362684626 64.21881019091732 L 1092.9139087496505 64.11509606699785 L 1092.8510787310847 64.01109272157687 L 1092.7905524957146 63.90681055490224 L 1092.7323360961132 63.80225999510374 L 1092.6764353538717 63.697451497150205 L 1092.6228558590183 63.59239554180411 L 1092.5716029694577 63.48710263457343 L 1092.5226818104356 63.381583304661156 L 1092.476097274028 63.27584810391234 L 1092.431854018649 63.16990760575894 L 1092.3899564685876 63.06377240416249 L 1092.3504088135637 62.95745311255472 L 1092.3132150083102 62.85096036277616 L 1092.2783787721762 62.744304804013076 L 1092.2459035887566 62.63749710173245 L 1092.2157927055425 62.530547936615505 L 1092.1880491335974 62.423468003489624 L 1092.162675647255 62.316268010258895 L 1092.139674783843 62.208958676833305 L 1092.1190488434286 62.10155073405677 L 1092.1007998885884 61.99405492263407 L 1092.084929744203 61.88648199205676 L 1092.0714399972735 61.77884269952825 L 1092.0603319967634 61.6711478088881 L 1092.0516068534632 61.56340808953563 L 1092.0452654398803 61.45563431535299 L 1092.0413083901506 61.34783726362778 L 1092.039736099976 61.24002771397536 L 1092.040548726584 61.13221644726084 L 1092.0437461887125 61.02441424452105 L 1092.0493281666181 60.916631885886424 L 1092.0572941021078 60.808880149503025 L 1092.0676431985946 60.70116981045468 L 1092.0803744211773 60.59351163968555 L 1092.0954864967446 60.48591640292299 L 1092.112977914101 60.378394859601016 L 1092.1328469241198 60.27095776178435 L 1092.1550915399166 60.163615853093255 L 1092.179709537048 60.05637986762915 L 1092.206698453735 59.949260528901206 L 1092.2360555911084 59.84226854875404 L 1092.2677780134788 59.7354146262965 L 1092.3018625486307 59.62870944683179 L 1092.3383057881388 59.52216368078894 L 1092.3771040877095 59.41578798265577 L 1092.4182535675452 59.30959298991343 L 1092.4617501127323 59.203589321972714 L 1092.5075893736523 59.09778757911208 L 1092.5557667664175 58.992198341417634 L 1092.6062774733286 58.88683216772516 L 1092.6591164433573 58.78169959456423 L 1092.7142783926504 58.67681113510454 L 1092.771757805059 58.57217727810464 L 1092.8315489326899 58.46780848686303 L 1092.8936457964799 58.36371519817185 L 1092.9580421867943 58.25990782127324 L 1093.024731664048 58.15639673681838 L 1093.0937075593488 58.053192295829454 L 1093.1649629751646 57.950304818664556 L 1093.2384907860132 57.84774459398567 L 1093.3142836391748 57.745521877729786 L 1093.3923339554274 57.64364689208335 L 1093.472633929804 57.54212982446004 L 1093.5551755323745 57.44098082648201 L 1093.6399505090474 57.340210012964775 L 1093.7269503823952 57.2398274609057 L 1093.8161664525037 57.13984320847635 L 1093.9075897978396 57.040267254018644 L 1094.001211276145 56.94110955504505 L 1094.0970215253503 56.84238002724283 L 1094.19501096451 56.74408854348249 L 1094.2951697947617 56.646244932830506 L 1094.397488000306 56.54885897956639 L 1094.501955349408 56.45194042220433 L 1094.6085613954194 56.35549895251929 L 1094.7172954778248 56.25954421457787 L 1094.8281467233062 56.16408580377391 L 1094.9411040468315 56.06913326586893 L 1095.0561561527625 55.974696096037604 L 1095.1732915359846 55.88078373791821 L 1095.2924984830572 55.7874055826683 L 1095.4137650733846 55.694570968025594 L 1095.537079180409 55.60228917737418 L 1095.6624284728225 55.51056943881623 L 1095.7898004158 55.41942092424918 L 1095.919182272254 55.328852748448504 L 1096.050561104106 55.23887396815633 L 1096.1839237735826 55.14949358117568 L 1096.319256944528 55.0607205254708 L 1096.4565470837379 54.97256367827326 L 1096.5957804623126 54.88503185519433 L 1096.7369431570305 54.79813380934336 L 1096.8800210517397 54.71187823045254 L 1097.0249998387699 54.62627374400786 L 1097.1718650203632 54.541328910386646 L 1097.3206019101237 54.45705222400146 L 1097.4711956344868 54.373452112450714 L 1097.623631134205 54.290536935675895 L 1097.7778931658559 54.20831498512558 L 1097.9339663033645 54.12679448292632 L 1098.0918349395474 54.0459835810604 L 1098.2514832876723 53.965890360550645 L 1098.4128953830375 53.88652283065238 L 1098.5760550845678 53.80788892805245 L 1098.7409460764295 53.72999651607559 L 1098.9075518696604 53.652853383898076 L 1099.07585580382 53.57646724576885 L 1099.2458410486554 53.50084574023808 L 1099.4174906057838 53.42599642939328 L 1099.590787310392 53.35192679810317 L 1099.7657138329546 53.278644253269164 L 1099.9422526809647 53.20615612308466 L 1100.1203862006848 53.13446965630228 L 1100.3000965789113 53.06359202150896 L 1100.4813658447563 52.99353030640911 L 1100.664175871444 52.924291517115876 L 1100.8485083781243 52.85588257745046 L 1101.0343449317 52.78831032824984 L 1101.2216669486704 52.72158152668263 L 1101.4104556969905 52.65570284557336 L 1101.6006922979423 52.590680872735255 L 1101.7923577280244 52.52652211031142 L 1101.9854328208535 52.463232974124615 L 1102.1798982690811 52.40081979303573 L 1102.3757346263246 52.33928880831086 L 1102.5729223091116 52.278646172997206 L 1102.7714415988378 52.21889795130775 L 1102.9712726437397 52.160050118014894 L 1103.1723954608797 52.1021085578529 L 1103.3747899381433 52.045079064929524 L 1103.5784358362514 51.98896734214652 L 1103.7833127907843 51.933779000629414 L 1103.989400314217 51.87951955916637 L 1104.196677797969 51.826194443656306 L 1104.4051245144644 51.77380898656634 L 1104.6147196192055 51.72236842639853 L 1104.8254421528566 51.67187790716602 L 1105.0372710433396 51.622342477878675 L 1105.2501851079421 51.57376709203812 L 1105.4641630554352 51.526156607142475 L 1105.6791834882024 51.47951578420055 L 1105.8952249043796 51.43384928725578 L 1106.1122657000053 51.38916168291979 L 1106.3302841711804 51.34545743991578 L 1106.5492585162401 51.302740928631636 L 1106.7691668379318 51.261016420682886 L 1106.989987145607 51.220288088485546 L 1107.2116973574186 51.18056000483891 L 1107.4342753025305 51.14183614251822 L 1107.6576987233336 51.10412037387746 L 1107.8819452776718 51.06741647046204 L 1108.1069925410768 51.03172810263173 L 1108.3328180090095 50.99705883919358 L 1108.5593990991115 50.96341214704502 L 1108.7867131534626 50.930791390827245 L 1109.0147374408468 50.899199832588685 L 1109.2434491590252 50.86864063145883 L 1109.4728254370168 50.83911684333235 L 1109.7028433373848 50.81063142056343 L 1109.933479858531 50.78318721167063 L 1110.1647119369954 50.75678696105195 L 1110.3965164497629 50.731433308710464 L 1110.6288702165753 50.70712878999027 L 1110.8617500022494 50.683875835323 L 1111.095132519001 50.66167676998473 L 1111.3289944287726 50.6405338138635 L 1111.5633123455684 50.6204490812373 L 1111.798062837792 50.60142458056266 L 1112.0332224305896 50.583462214273794 L 1112.268767608198 50.566563778592354 L 1112.5046748162956 50.55073096334783 L 1112.7409204643584 50.53596535180856 L 1112.9774809280182 50.52226842052339 L 1113.214332551426 50.50964153917403 L 1113.4514516496165 50.49808597043808 L 1113.688814510878 50.48760286986282 L 1113.9263973991217 50.47819328574954 L 1114.1641765562572 50.46985815904882 L 1114.4021282045665 50.462598323266384 L 1114.6402285490833 50.456414504379765 L 1114.8784537799713 50.45130732076569 L 1115.1167800749063 50.44727728313828 L 1115.3551836014574 50.444324794497916 L 1115.5936405194702 50.44245015009101 L 1115.832126983452 50.44165353738045 L 1116.0706191449551 50.44193503602685 L 1116.309093154962 50.443294617880554 L 1116.5475251662704 50.445732146984525 L 1116.7858913358777 50.44924737958788 L 1117.0241678273662 50.45383996417029 L 1117.2623308132845 50.459509441477124 L 1117.5003564775332 50.46625524456538 L 1117.7382210177436 50.474076698860365 L 1117.9759006476604 50.48297302222316 L 1118.2133715995183 50.49294332502887 L 1118.4506101264203 50.50398661025549 L 1118.6875925047113 50.51610177358371 L 1118.924295036351 50.52928760350731 L 1119.1606940512831 50.54354278145426 L 1119.3967659098037 50.55886588191867 L 1119.6324870049234 50.575255372603245 L 1119.867833764729 50.592709614572584 L 1120.1027826547408 50.61122686241703 L 1120.3373101802658 50.630805264427224 L 1120.5713928887465 50.651442862779284 L 1120.8050073721072 50.67313759373059 L 1121.0381302690944 50.695887287826096 L 1121.2707382676124 50.71968967011537 L 1121.5028081070554 50.74454236038002 L 1121.734316580633 50.77044287337172 L 1121.9652405376903 50.797388619060754 L 1122.1955568860246 50.825376902895016 L 1122.4252425941925 50.85440492606945 L 1122.6542746938148 50.88446978580591 L 1122.8826302818725 50.9155684756435 L 1123.110286522997 50.947697885739125 L 1123.3372206517538 50.980854803178566 L 1123.5634099749193 51.01503591229771 L 1123.7888318737494 51.05023779501413 L 1124.0134638062425 51.08645693116888 L 1124.237283309392 51.12368969887854 L 1124.4602680014345 51.16193237489736 L 1124.6823955840866 51.201181134989596 L 1124.9036438447752 51.241432054311964 L 1125.1239906588582 51.28268110780607 L 1125.3434139918381 51.32492417060092 L 1125.5618919015646 51.368157018425464 L 1125.7794025404285 51.41237532803093 L 1125.9959241575473 51.45757467762322 L 1126.2114351009398 51.503750547305025 L 1126.425913819691 51.55089831952786 L 1126.639338866108 51.5990132795538 L 1126.8516888978638 51.64809061592693 L 1127.0629426801324 51.69812542095451 L 1127.2730790877117 51.749112691197745 L 1127.4820771071359 51.801047327972086 L 1127.6899158387769 51.85392413785714 L 1127.8965744989353 51.90773783321599 L 1128.1020324219169 51.962483032723924 L 1128.306269062101 52.01815426190663 L 1128.5092639959933 52.07474595368758 L 1128.71099692427 52.132252448944755 L 1128.911447673806 52.190667997076545 L 1129.1105961996936 52.24998675657682 L 1129.3084225872462 52.310202795619055 L 1129.5049070539899 52.371310092649544 L 1129.7000299516415 52.43330253698949 L 1129.8937717680742 52.49617392944612 L 1130.0861131292677 52.559917982932596 L 1130.2770348012461 52.62452832309667 L 1130.4665176920014 52.68999848895818 L 1130.6545428534023 52.7563219335551 L 1130.8410914830893 52.823492024598224 L 1131.026144926355 52.89150204513444 L 1131.2096846780094 52.960345194218355 L 1131.39169238423 53.03001458759244 L 1131.572149844398 53.10050325837541 L 1131.7510390129178 53.171804157758935 L 1131.9283420010217 53.243910155712484 L 1132.1040410785583 53.31681404169635 L 1132.2781186757668 53.39050852538269 L 1132.450557385032 53.46498623738456 L 1132.621339962627 53.5402397299928 L 1132.7904493304363 53.61626147792087 L 1132.957868577664 53.69304387905734 L 1133.1235809625248 53.770579255226075 L 1133.2875699139186 53.848859852954064 L 1133.4498190330864 53.92787784424677 L 1133.610312095252 54.00762532737092 L 1133.7690330512428 54.08809432764465 L 1133.9259660290954 54.16927679823499 L 1134.0810953356429 54.251164620962534 L 1134.2344054580835 54.33374960711325 L 1134.3858810655333 54.41702349825734 L 1134.5355070105575 54.500977967075094 L 1134.6832683306864 54.58560461818958 L 1134.8291502499108 54.670894989006214 L 1134.9731381801607 54.75684055055899 L 1135.1152177227627 54.84343270836337 L 1135.2553746698816 54.93066280327574 L 1135.3935950059388 55.0185221123593 L 1135.5298649090162 55.107001849756344 L 1135.664170752237 55.196093167566886 L 1135.7964991051288 55.28578715673337 L 1135.9268367349664 55.37607484793163 L 1136.0551706080958 55.46694721246779 L 1136.1814878912364 55.55839516318112 L 1136.305775952765 55.65040955535275 L 1136.4280223639796 55.742981187620146 L 1136.5482149003403 55.83610080289723 L 1136.6663415426938 55.92975908930006 L 1136.7823904784746 56.02394668107806 L 1136.8963501028854 56.11865415955053 L 1137.008209020059 56.213872054048544 L 1137.117956044197 56.30959084286201 L 1137.225580200688 56.405800954191804 L 1137.3310707272065 56.50249276710697 L 1137.4344170747877 56.5996566125068 L 1137.5356089088825 56.69728277408771 L 1137.6346361103924 56.79536148931491 L 1137.7314887766795 56.89388295039859 L 1137.8261572225579 56.99283730527477 L 1137.9186319812618 57.09221465859041 L 1138.0089038053925 57.19200507269298 L 1138.0969636678428 57.29219856862425 L 1138.1828027627 57.39278512711811 L 1138.2664125061258 57.49375468960253 L 1138.3477845372158 57.59509715920541 L 1138.4269107188347 57.69680240176424 L 1138.5037831384302 57.79886024683951 L 1138.5783941088243 57.90126048873177 L 1138.6507361689823 58.003992887502164 L 1138.7208020847586 58.10704716999642 L 1138.7885848496196 58.21041303087217 L 1138.8540776853456 58.31408013362946 L 1138.9172740427075 58.41803811164441 L 1138.978167602122 58.52227656920584 L 1139.0367522742845 58.62678508255487 L 1139.0930222007762 58.731553200927245 L 1139.1469717546515 58.83657044759845 L 1139.1985955409996 58.94182632093131 L 1139.2478883974854 59.04731029542622 L 1139.2948453948638 59.153011822773635 L 1139.3394618374748 59.25892033290889 L 1139.3817332637109 59.36502523506925 L 1139.4216554464647 59.471315918852895 L 1139.4592243935513 59.57778175528004 L 1139.4944363481075 59.684412097855756 L 1139.5272877889668 59.79119628363465 L 1139.5577754310125 59.89812363428712 L 1139.5858962255063 60.005183457167206 L 1139.6116473603918 60.11236504638185 L 1139.6350262605768 60.21965768386144 L 1139.6560305881912 60.327050640431644 L 1139.6746582428193 60.43453317688629 L 1139.6909073617117 60.5420945450613 L 1139.7047763199696 60.6497239889095 L 1139.7162637307088 60.757410745576195 L 1139.725368445198 60.86514404647545 L 1139.732089552973 60.972913118366954 L 1139.7364263819293 61.08070718443333 L 1139.7383784983867 61.188515465357796 M 1139.7384994884428 95.52678387991818 L 1139.7373070285391 95.6345944248348 L 1139.733729768073 95.74239418878678 L 1139.7277680647676 95.85017239188754 L 1139.7194225147884 95.95791825640659 L 1139.7086939526832 96.06562100784727 L 1139.6955834512994 96.1732698760242 L 1139.680092321676 96.28085409614023 L 1139.6622221129135 96.38836290986303 L 1139.6419746120175 96.49578556640084 L 1139.6193518437212 96.60311132357748 L 1139.5943560702829 96.7103294489067 L 1139.566989791259 96.8174292206653 L 1139.5372557432543 96.92439992896537 L 1139.5051568996491 97.0312308768252 L 1139.470696470301 97.13791138123905 L 1139.4338779012242 97.24443077424536 L 1139.394704874245 97.35077840399362 L 1139.3531813066331 97.45694363580944 L 1139.3093113507111 97.56291585325815 L 1139.2630993934379 97.66868445920629 L 1139.2145500559704 97.77423887688141 L 1139.1636681932025 97.8795685509297 L 1139.1104588932774 97.98466294847155 L 1139.0549274770813 98.08951156015478 L 1138.9970794977094 98.19410390120557 L 1138.936920739911 98.29842951247699 L 1138.8744572195124 98.40247796149485 L 1138.8096951828134 98.50623884350097 L 1138.7426411059632 98.60970178249359 L 1138.6733016943142 98.71285643226504 L 1138.6016838817498 98.81569247743631 L 1138.527794829991 98.91819963448859 L 1138.4516419278818 99.02036765279156 L 1138.3732327906491 99.12218631562857 L 1138.2925752591411 99.22364544121817 L 1138.2096773990436 99.32473488373233 L 1138.1245475000737 99.42544453431107 L 1138.0371940751504 99.52576432207324 L 1137.9476258595432 99.62568421512367 L 1137.855851809999 99.72519422155631 L 1137.7618811038467 99.82428439045346 L 1137.6657231380782 99.92294481288079 L 1137.5673875284099 100.02116562287829 L 1137.4668841083212 100.11893699844678 L 1137.36422292807 100.2162491625302 L 1137.2594142536889 100.31309238399325 L 1137.152468565958 100.40945697859446 L 1137.0433965593572 100.50533330995468 L 1136.9322091409958 100.60071179052068 L 1136.8189174295233 100.69558288252388 L 1136.7035327540164 100.78993709893413 L 1136.5860666528463 100.88376500440843 L 1136.4665308725255 100.97705721623441 L 1136.3449373665321 101.06980440526866 L 1136.2212982941157 101.16199729686952 L 1136.0956260190803 101.25362667182469 L 1135.9679331085488 101.34468336727302 L 1135.838232331706 101.43515827762084 L 1135.706536658521 101.52504235545253 L 1135.5728592584517 101.61432661243519 L 1135.4372134991268 101.70300212021755 L 1135.299612945009 101.7910600113227 L 1135.160071356039 101.87849148003492 L 1135.0186026862598 101.9652877832802 L 1134.87522108242 102.05144024150056 L 1134.7299408825606 102.13694023952193 L 1134.582776614581 102.22177922741581 L 1134.4337429947848 102.30594872135407 L 1134.28285492641 102.38944030445748 L 1134.1301274981377 102.47224562763729 L 1133.9755759825832 102.5543564104302 L 1133.8192158347697 102.63576444182635 L 1133.6610626905815 102.71646158109044 L 1133.5011323652013 102.79643975857579 L 1133.339440851528 102.8756909765313 L 1133.1760043185786 102.95420730990122 L 1133.0108391098702 103.03198090711763 L 1132.843961741786 103.10900399088564 L 1132.6753889019235 103.18526885896105 L 1132.5051374474263 103.2607678849206 L 1132.3332244032981 103.33549351892461 L 1132.1596669607002 103.40943828847196 L 1131.9844824752317 103.48259479914732 L 1131.8076884651957 103.55495573536056 L 1131.6293026098456 103.6265138610784 L 1131.4493427476184 103.69726202054787 L 1131.2678268743502 103.76719313901197 L 1131.0847731414774 103.83630022341715 L 1130.9001998542203 103.90457636311257 L 1130.7141254697542 103.97201473054113 L 1130.5265685953623 104.03860858192229 L 1130.3375479865756 104.10435125792642 L 1130.1470825452977 104.1692361843407 L 1129.955191317914 104.23325687272656 L 1129.761893493387 104.29640692106851 L 1129.5672084013386 104.35868001441433 L 1129.3711555101154 104.4200699255066 L 1129.1737544248433 104.48057051540535 L 1128.9750248854662 104.54017573410202 L 1128.7749867647724 104.5988796211244 L 1128.5736600664075 104.65667630613272 L 1128.3710649228733 104.71356000950664 L 1128.1672215935157 104.7695250429232 L 1127.9621504624972 104.82456580992574 L 1127.7558720367606 104.87867680648341 L 1127.5484069439763 104.93185262154162 L 1127.3397759304805 104.98408793756322 L 1127.129999859201 105.0353775310601 L 1126.91909970757 105.08571627311568 L 1126.707096565427 105.13509912989768 L 1126.4940116329094 105.1835211631616 L 1126.279866218333 105.23097753074444 L 1126.0646817360607 105.27746348704899 L 1125.8484797043616 105.32297438351839 L 1125.6312817432583 105.36750566910086 L 1125.4131095723662 105.41105289070501 L 1125.1939850087208 105.45361169364494 L 1124.9739299645955 105.49517782207583 L 1124.7529664453114 105.53574711941947 L 1124.5311165470364 105.57531552877992 L 1124.3084024545753 105.61387909334925 L 1124.084846439152 105.65143395680312 L 1123.8604708561813 105.68797636368647 L 1123.635298143035 105.72350265978909 L 1123.4093508167966 105.75800929251095 L 1123.1826514720105 105.79149281121755 L 1122.955222778422 105.82394986758491 L 1122.7270874787114 105.85537721593445 L 1122.498268386218 105.88577171355752 L 1122.2687883826607 105.9151303210297 L 1122.0386704158486 105.94345010251467 L 1121.8079374973865 105.97072822605791 L 1121.5766127003742 105.99696196386981 L 1121.3447191570983 106.02214869259844 L 1121.1122800567202 106.04628589359189 L 1120.8793186429562 106.0693711531502 L 1120.6458582117532 106.09140216276666 L 1120.4119221089602 106.11237671935864 L 1120.1775337279923 106.13229272548797 L 1119.9427165074924 106.15114818957065 L 1119.7074939289867 106.16894122607596 L 1119.471889514537 106.1856700557151 L 1119.2359268243888 106.20133300561903 L 1118.999629454614 106.21592850950582 L 1118.763021034753 106.22945510783724 L 1118.5261252254504 106.24191144796474 L 1118.28896571609 106.25329628426466 L 1118.0515662224248 106.2636084782629 L 1117.8139504842063 106.2728469987486 L 1117.5761422628107 106.28101092187747 L 1117.3381653388617 106.28809943126396 L 1117.1000435098533 106.29411181806304 L 1116.86180058777 106.29904748104106 L 1116.6234603967057 106.30290592663582 L 1116.3850467704806 106.30568676900597 L 1116.146583550259 106.30738973006962 L 1115.9080945821638 106.30801463953205 L 1115.6696037148934 106.30756143490284 L 1115.4311347973355 106.3060301615021 L 1115.1927116761833 106.30342097245587 L 1114.9543581935502 106.29973412868088 L 1114.716098184586 106.29496999885845 L 1114.4779554750926 106.28912905939758 L 1114.2399538791428 106.28221189438736 L 1114.002117196698 106.27421919553852 L 1113.764469211228 106.26515176211427 L 1113.5270336873336 106.25501050085043 L 1113.289834368369 106.24379642586464 L 1113.0528949740685 106.23151065855508 L 1112.8162391981741 106.21815442748823 L 1112.5798907060664 106.20372906827606 L 1112.3438731323974 106.1882360234425 L 1112.1082100787278 106.17167684227908 L 1111.8729251111668 106.15405318069014 L 1111.6380417580147 106.13536680102716 L 1111.4035835074114 106.11561957191253 L 1111.1695738049864 106.09481346805269 L 1110.9360360515152 106.0729505700407 L 1110.702993600578 106.05003306414814 L 1110.4704697562265 106.0260632421065 L 1110.2384877706506 106.00104350087803 L 1110.007070841856 105.97497634241597 L 1109.7762421113425 105.94786437341445 L 1109.5460246617909 105.9197103050478 L 1109.3164415147544 105.89051695269937 L 1109.0875156283562 105.86028723568009 L 1108.8592698949942 105.82902417693644 L 1108.6317271390515 105.79673090274827 L 1108.4049101146143 105.76341064241608 L 1108.1788415031956 105.72906672793813 L 1107.9535439114686 105.69370259367726 L 1107.7290398690047 105.6573217760174 L 1107.5053518260208 105.61992791301003 L 1107.2825021511348 105.58152474401028 L 1107.0605131291288 105.54211610930304 L 1106.8394069587196 105.50170594971894 L 1106.6192057503404 105.46029830624026 L 1106.399931523928 105.41789731959686 L 1106.1816062067228 105.37450722985206 L 1105.9642516310746 105.33013237597868 L 1105.7478895322595 105.28477719542511 L 1105.5325415463071 105.23844622367163 L 1105.3182292078368 105.1911440937768 L 1105.1049739479038 105.14287553591419 L 1104.8927970918562 105.09364537689936 L 1104.681719857203 105.0434585397072 L 1104.4717633514917 104.99232004297959 L 1104.2629485701978 104.9402350005236 L 1104.0552963946254 104.88720862080007 L 1103.8488275898192 104.83324620640276 L 1103.6435628024876 104.77835315352817 L 1103.439522558938 104.72253495143585 L 1103.2367272630252 104.66579718189945 L 1103.0351971941095 104.60814551864868 L 1102.8349525050296 104.54958572680184 L 1102.6360132200882 104.49012366228926 L 1102.4383992330474 104.42976527126788 L 1102.2421303051415 104.36851658952648 L 1102.0472260630997 104.30638374188221 L 1101.8537059971836 104.24337294156805 L 1101.661589459239 104.17949048961154 L 1101.4708956607592 104.11474277420461 L 1101.2816436709652 104.04913627006486 L 1101.0938524148983 103.98267753778805 L 1100.9075406715276 103.91537322319199 L 1100.7227270718722 103.84723005665208 L 1100.5394300971382 103.77825485242818 L 1100.35766807687 103.70845450798322 L 1100.1774591871183 103.63783600329349 L 1099.998821448622 103.56640640015061 L 1099.8217727250062 103.49417284145538 L 1099.6463307209954 103.42114255050346 L 1099.4725129806438 103.3473228302631 L 1099.300336885581 103.27272106264479 L 1099.1298196532728 103.19734470776314 L 1098.9609783353 103.1212013031908 L 1098.7938298156541 103.04429846320481 L 1098.6283908090477 102.96664387802507 L 1098.4646778592437 102.88824531304537 L 1098.3027073374003 102.8091106080569 L 1098.142495440435 102.72924767646418 L 1097.9840581894039 102.64866450449387 L 1097.8274114279002 102.56736915039596 L 1097.6725708204692 102.48536974363815 L 1097.519551851043 102.40267448409276 L 1097.3683698213906 102.31929164121684 L 1097.2190398495893 102.2352295532252 L 1097.0715768685118 102.15049662625658 L 1096.9259956243334 102.06510133353308 L 1096.7823106750568 101.97905221451278 L 1096.6405363890576 101.89235787403591 L 1096.500686943646 101.80502698146424 L 1096.3627763236505 101.71706826981428 L 1096.2268183200174 101.62849053488388 L 1096.0928265284344 101.53930263437272 L 1095.9608143479686 101.44951348699652 L 1095.8307949797284 101.35913207159521 L 1095.7027814255418 101.26816742623502 L 1095.576786486658 101.17662864730465 L 1095.4528227624655 101.08452488860574 L 1095.3309026492338 100.9918653604374 L 1095.2110383388724 100.89865932867522 L 1095.0932418177124 100.80491611384473 L 1094.977524865308 100.71064509018925 L 1094.863899053258 100.61585568473262 L 1094.7523757440483 100.5205573763364 L 1094.6429660899178 100.424759694752 L 1094.53568103174 100.32847221966773 L 1094.4305312979318 100.2317045797509 L 1094.3275274033788 100.13446645168483 L 1094.2266796483846 100.03676755920131 L 1094.1279981176403 99.93861767210817 L 1094.0314926792175 99.84002660531232 L 1093.9371729835789 99.7410042178383 L 1093.845048462616 99.64156041184232 L 1093.755128328704 99.54170513162211 L 1093.6674215737808 99.4414483626225 L 1093.5819369684496 99.34080013043682 L 1093.4986830610992 99.23977049980442 L 1093.4176681770514 99.13836957360418 L 1093.3389004177266 99.03660749184422 L 1093.2623876598352 98.9344944306479 L 1093.1881375545895 98.83204060123627 L 1093.1161575269377 98.72925624890688 L 1093.0464547748231 98.6261516520093 L 1092.9790362684626 98.52273712091731 L 1092.9139087496505 98.41902299699785 L 1092.8510787310847 98.31501965157686 L 1092.7905524957146 98.21073748490224 L 1092.7323360961132 98.10618692510373 L 1092.6764353538717 98.0013784271502 L 1092.6228558590183 97.89632247180411 L 1092.5716029694577 97.79102956457344 L 1092.5226818104356 97.68551023466115 L 1092.476097274028 97.57977503391233 L 1092.431854018649 97.47383453575894 L 1092.3899564685876 97.3676993341625 L 1092.3504088135637 97.2613800425547 L 1092.3132150083102 97.15488729277617 L 1092.2783787721762 97.04823173401307 L 1092.2459035887566 96.94142403173245 L 1092.2157927055425 96.8344748666155 L 1092.1880491335974 96.72739493348962 L 1092.162675647255 96.6201949402589 L 1092.139674783843 96.51288560683331 L 1092.1190488434286 96.40547766405678 L 1092.1007998885884 96.29798185263407 L 1092.084929744203 96.19040892205675 L 1092.0714399972735 96.08276962952824 L 1092.0603319967634 95.9750747388881 L 1092.0516068534632 95.86733501953563 L 1092.0452654398803 95.75956124535298 L 1092.0413083901506 95.65176419362778 L 1092.039736099976 95.54395464397535" stroke-miterlimit="10" stroke-width="2.7769845610000004" stroke-dasharray=""/></g><g><g/><text fill="black" stroke="none" font-family="sans-serif" font-size="11pt" font-style="normal" font-weight="normal" text-decoration="normal" x="1079.2319829194662" y="123.83569119881818" text-anchor="start" dominant-baseline="alphabetic" xml:space="preserve">MySQL DB</text></g></g><g><g><text fill="black" stroke="none" font-family="sans-serif" font-size="16pt" font-style="normal" font-weight="normal" text-decoration="normal" x="427.1073455810547" y="24.651306798181814" text-anchor="start" dominant-baseline="alphabetic" xml:space="preserve">PACKAGE TRACKING BY AWB</text></g><g><rect fill="white" stroke="none" x="962.0845078348502" y="161.4066587888182" width="108.3937250525" height="21.23576429"/><text fill="black" stroke="none" font-family="sans-serif" font-size="11pt" font-style="normal" font-weight="normal" text-decoration="normal" x="964.5347883298502" y="176.10834175881817" text-anchor="start" dominant-baseline="alphabetic" xml:space="preserve">Fetch packages</text></g><g><path fill="none" stroke="black" paint-order="fill stroke markers" d=" M 916.6736380517578 182.64242307881818 L 1102.439785286776 182.64242307881818" stroke-miterlimit="10" stroke-width="1.3612669416666667" stroke-dasharray=""/><g transform="translate(1115.8891026704428,182.64242307881818) translate(-1115.8891026704428,-182.64242307881818)"><path fill="black" stroke="none" paint-order="stroke fill markers" d=" M 1102.276433253776 175.83608837048484 L 1115.8891026704428 182.64242307881818 L 1102.276433253776 189.44875778715152 Z"/></g></g><g><rect fill="white" stroke="none" x="936.0036286234244" y="207.1452280288182" width="160.55548347535156" height="21.23576429"/><text fill="black" stroke="none" font-family="sans-serif" font-size="11pt" font-style="normal" font-weight="normal" text-decoration="normal" x="938.4539091184245" y="221.84691099881817" text-anchor="start" dominant-baseline="alphabetic" xml:space="preserve">Respond with packages</text></g><g><path fill="none" stroke="black" paint-order="fill stroke markers" d=" M 1115.8891026704428 228.3809923188182 L 930.1229554354245 228.3809923188182" stroke-miterlimit="10" stroke-width="1.3612669416666667" stroke-dasharray="6.53408132"/><g transform="translate(916.6736380517578,228.3809923188182) translate(-916.6736380517578,-228.3809923188182)"><path fill="black" stroke="none" paint-order="stroke fill markers" d=" M 930.2863074684245 221.57465761048485 L 916.6736380517578 228.3809923188182 L 930.2863074684245 235.18732702715153 Z"/></g></g><g><rect fill="white" stroke="none" x="142.74171810477216" y="252.88379726881823" width="213.941332474375" height="21.23576429"/><text fill="black" stroke="none" font-family="sans-serif" font-size="11pt" font-style="normal" font-weight="normal" text-decoration="normal" x="145.19199859977215" y="267.5854802388182" text-anchor="start" dominant-baseline="alphabetic" xml:space="preserve">GET /packages/find?awb={awb}</text></g><g><path fill="none" stroke="black" paint-order="fill stroke markers" d=" M 73.50841485 274.1195615588182 L 412.46703645025264 274.1195615588182" stroke-miterlimit="10" stroke-width="1.3612669416666667" stroke-dasharray=""/><g transform="translate(425.9163538339193,274.1195615588182) translate(-425.9163538339193,-274.1195615588182)"><path fill="black" stroke="none" paint-order="stroke fill markers" d=" M 412.3036844172526 267.31322685048485 L 425.9163538339193 274.1195615588182 L 412.3036844172526 280.92589626715153 Z"/></g></g><g><rect fill="white" stroke="none" x="445.2463444055859" y="298.6223665088182" width="206.71866096558594" height="21.23576429"/><text fill="black" stroke="none" font-family="sans-serif" font-size="11pt" font-style="normal" font-weight="normal" text-decoration="normal" x="447.6966249005859" y="313.32404947881815" text-anchor="start" dominant-baseline="alphabetic" xml:space="preserve">getPackageByAwb(String awb)</text></g><g><path fill="none" stroke="black" paint-order="fill stroke markers" d=" M 425.9163538339193 319.8581307988182 L 657.8456785591719 319.8581307988182" stroke-miterlimit="10" stroke-width="1.3612669416666667" stroke-dasharray=""/><g transform="translate(671.2949959428386,319.8581307988182) translate(-671.2949959428386,-319.8581307988182)"><path fill="black" stroke="none" paint-order="stroke fill markers" d=" M 657.6823265261719 313.05179609048486 L 671.2949959428386 319.8581307988182 L 657.6823265261719 326.66446550715153 Z"/></g></g><g><rect fill="white" stroke="none" x="690.6249865145053" y="344.3609357488182" width="206.71866096558594" height="21.23576429"/><text fill="black" stroke="none" font-family="sans-serif" font-size="11pt" font-style="normal" font-weight="normal" text-decoration="normal" x="693.0752670095053" y="359.06261871881816" text-anchor="start" dominant-baseline="alphabetic" xml:space="preserve">getPackageByAwb(String awb)</text></g><g><path fill="none" stroke="black" paint-order="fill stroke markers" d=" M 671.2949959428386 365.5967000388182 L 903.2243206680912 365.5967000388182" stroke-miterlimit="10" stroke-width="1.3612669416666667" stroke-dasharray=""/><g transform="translate(916.6736380517578,365.5967000388182) translate(-916.6736380517578,-365.5967000388182)"><path fill="black" stroke="none" paint-order="stroke fill markers" d=" M 903.0609686350912 358.79036533048486 L 916.6736380517578 365.5967000388182 L 903.0609686350912 372.40303474715154 Z"/></g></g><g><rect fill="white" stroke="none" x="713.7101610750522" y="434.2045538988182" width="160.5483118444922" height="21.23576429"/><text fill="black" stroke="none" font-family="sans-serif" font-size="11pt" font-style="normal" font-weight="normal" text-decoration="normal" x="716.1604415700522" y="448.90623686881816" text-anchor="start" dominant-baseline="alphabetic" xml:space="preserve">Returns Package object</text></g><g><path fill="none" stroke="black" paint-order="fill stroke markers" d=" M 916.6736380517578 455.4403181888182 L 684.7443133265052 455.4403181888182" stroke-miterlimit="10" stroke-width="1.3612669416666667" stroke-dasharray="6.53408132"/><g transform="translate(671.2949959428386,455.4403181888182) translate(-671.2949959428386,-455.4403181888182)"><path fill="black" stroke="none" paint-order="stroke fill markers" d=" M 684.9076653595052 448.63398348048486 L 671.2949959428386 455.4403181888182 L 684.9076653595052 462.24665289715153 Z"/></g></g><g><rect fill="white" stroke="none" x="479.3193424524609" y="479.9431231388182" width="138.57266487183594" height="21.23576429"/><text fill="black" stroke="none" font-family="sans-serif" font-size="11pt" font-style="normal" font-weight="normal" text-decoration="normal" x="481.7696229474609" y="494.64480610881816" text-anchor="start" dominant-baseline="alphabetic" xml:space="preserve">Sends package data</text></g><g><path fill="none" stroke="black" paint-order="fill stroke markers" d=" M 671.2949959428386 501.1788874288182 L 439.36567121758594 501.1788874288182" stroke-miterlimit="10" stroke-width="1.3612669416666667" stroke-dasharray="6.53408132"/><g transform="translate(425.9163538339193,501.1788874288182) translate(-425.9163538339193,-501.1788874288182)"><path fill="black" stroke="none" paint-order="stroke fill markers" d=" M 439.52902325058596 494.37255272048486 L 425.9163538339193 501.1788874288182 L 439.52902325058596 507.98522213715154 Z"/></g></g><g><rect fill="white" stroke="none" x="170.25426845877607" y="525.6816923788182" width="158.9162317663672" height="21.23576429"/><text fill="black" stroke="none" font-family="sans-serif" font-size="11pt" font-style="normal" font-weight="normal" text-decoration="normal" x="172.70454895377605" y="540.3833753488182" text-anchor="start" dominant-baseline="alphabetic" xml:space="preserve">Display package details</text></g><g><path fill="none" stroke="black" paint-order="fill stroke markers" d=" M 425.9163538339193 546.9174566688182 L 86.95773223366666 546.9174566688182" stroke-miterlimit="10" stroke-width="1.3612669416666667" stroke-dasharray="6.53408132"/><g transform="translate(73.50841485,546.9174566688182) translate(-73.50841485,-546.9174566688182)"><path fill="black" stroke="none" paint-order="stroke fill markers" d=" M 87.12108426666666 540.1111219604849 L 73.50841485 546.9174566688182 L 87.12108426666666 553.7237913771515 Z"/></g></g><g><rect fill="white" stroke="none" x="745.0916689485873" y="615.5253105288182" width="97.78529609742188" height="21.23576429"/><text fill="black" stroke="none" font-family="sans-serif" font-size="11pt" font-style="normal" font-weight="normal" text-decoration="normal" x="747.5419494435873" y="630.2269934988182" text-anchor="start" dominant-baseline="alphabetic" xml:space="preserve">Returns NULL</text></g><g><path fill="none" stroke="black" paint-order="fill stroke markers" d=" M 916.6736380517578 636.7610748188182 L 684.7443133265052 636.7610748188182" stroke-miterlimit="10" stroke-width="1.3612669416666667" stroke-dasharray="6.53408132"/><g transform="translate(671.2949959428386,636.7610748188182) translate(-671.2949959428386,-636.7610748188182)"><path fill="black" stroke="none" paint-order="stroke fill markers" d=" M 684.9076653595052 629.9547401104849 L 671.2949959428386 636.7610748188182 L 684.9076653595052 643.5674095271515 Z"/></g></g><g><rect fill="white" stroke="none" x="488.2921284021679" y="661.2638797688181" width="120.62709297242188" height="21.23576429"/><text fill="black" stroke="none" font-family="sans-serif" font-size="11pt" font-style="normal" font-weight="normal" text-decoration="normal" x="490.74240889716793" y="675.9655627388181" text-anchor="start" dominant-baseline="alphabetic" xml:space="preserve">Sends NULL data</text></g><g><path fill="none" stroke="black" paint-order="fill stroke markers" d=" M 671.2949959428386 682.4996440588181 L 439.36567121758594 682.4996440588181" stroke-miterlimit="10" stroke-width="1.3612669416666667" stroke-dasharray="6.53408132"/><g transform="translate(425.9163538339193,682.4996440588181) translate(-425.9163538339193,-682.4996440588181)"><path fill="black" stroke="none" paint-order="stroke fill markers" d=" M 439.52902325058596 675.6933093504848 L 425.9163538339193 682.4996440588181 L 439.52902325058596 689.3059787671515 Z"/></g></g><g><rect fill="white" stroke="none" x="92.83840542166668" y="707.0024490088181" width="313.747973099375" height="21.23576429"/><text fill="black" stroke="none" font-family="sans-serif" font-size="11pt" font-style="normal" font-weight="normal" text-decoration="normal" x="95.28868591666668" y="721.704131978818" text-anchor="start" dominant-baseline="alphabetic" xml:space="preserve">Display information of the non-existent package</text></g><g><path fill="none" stroke="black" paint-order="fill stroke markers" d=" M 425.9163538339193 728.2382132988181 L 86.95773223366666 728.2382132988181" stroke-miterlimit="10" stroke-width="1.3612669416666667" stroke-dasharray="6.53408132"/><g transform="translate(73.50841485,728.2382132988181) translate(-73.50841485,-728.2382132988181)"><path fill="black" stroke="none" paint-order="stroke fill markers" d=" M 87.12108426666666 721.4318785904848 L 73.50841485 728.2382132988181 L 87.12108426666666 735.0445480071514 Z"/></g></g><g><g/><path fill="none" stroke="black" paint-order="fill stroke markers" d=" M 16.335203299999996 390.0995049888182 L 973.8468496017579 390.0995049888182 L 973.8468496017579 752.7410182488181 L 16.335203299999996 752.7410182488181 L 16.335203299999996 390.0995049888182 Z" stroke-miterlimit="10" stroke-width="2.3336004714285714" stroke-dasharray=""/><path fill="white" stroke="black" paint-order="fill stroke markers" d=" M 16.335203299999996 390.0995049888182 L 16.335203299999996 409.7017489488182 L 62.69440689707031 409.7017489488182 L 72.49552887707031 399.9006269688182 L 72.49552887707031 390.0995049888182 L 16.335203299999996 390.0995049888182" stroke-miterlimit="10" stroke-width="2.3336004714285714" stroke-dasharray=""/><text fill="black" stroke="none" font-family="sans-serif" font-size="8.8pt" font-style="normal" font-weight="bold" text-decoration="normal" x="32.67040659999999" y="403.1676676288182" text-anchor="start" dominant-baseline="alphabetic" xml:space="preserve">alt</text><g><rect fill="white" stroke="none" x="86.38045168207032" y="391.4063212528182" width="96.14590705933594" height="16.988611432000003"/></g><text fill="black" stroke="none" font-family="sans-serif" font-size="8.8pt" font-style="normal" font-weight="bold" text-decoration="normal" x="88.83073217707032" y="403.1676676288182" text-anchor="start" dominant-baseline="alphabetic" xml:space="preserve">[Package found]</text><g><path fill="none" stroke="black" paint-order="fill stroke markers" d=" M 16.335203299999996 571.4202616188182 L 973.8468496017579 571.4202616188182" stroke-miterlimit="10" stroke-width="2.3336004714285714" stroke-dasharray="4.083800825"/></g><g/><g><rect fill="white" stroke="none" x="86.38045168207032" y="572.7270778828182" width="117.64132942261719" height="16.988611432000003"/></g><text fill="black" stroke="none" font-family="sans-serif" font-size="8.8pt" font-style="normal" font-weight="bold" text-decoration="normal" x="88.83073217707032" y="584.4884242588182" text-anchor="start" dominant-baseline="alphabetic" xml:space="preserve">[Package not found]</text></g><g/></g><g/><g/><g/><g/><g/></g></svg>